<svg width="670" height="431" viewBox="0 0 670 431" fill="none" xmlns="http://www.w3.org/2000/svg">
<path fill-rule="evenodd" clip-rule="evenodd" d="M0 59.1604C0 77.8787 7.76865 76.8976 11.4805 89.7722C17.7818 111.63 11.4369 109.941 36.4514 122.998C51.6202 130.914 44.7393 134.3 54.1293 144.46C57.2013 147.783 65.4858 149.306 65.4858 153.184C65.4858 157.954 61.8109 164.459 59.6099 167.356L49.1043 177.932C47.9586 178.993 47.5599 179.346 46.4745 180.321C43.7945 182.725 45.9385 179.995 44.0089 182.872C42.2636 185.472 42.3406 187.864 40.7226 190.614L38.458 193.398C33.634 197.412 25.5337 191.143 13.8556 197.951C2.42205 204.62 11.0852 208.704 11.0852 216.204C11.0852 221.472 6.58945 230.791 7.1288 237.121C7.7385 244.318 18.1369 250.118 18.1369 252.214C18.1369 254.003 14.8807 268.438 14.2744 269.385L0 277.218C0.15745 284.276 8.67315 291.583 12.7434 297.576C14.0097 299.432 13.2191 298.614 14.8639 300.476L24.589 309.822C29.2489 313.155 36.2939 316.158 41.6371 317.907C60.1493 323.954 48.3338 328.464 60.089 350.598L64.1291 355.593C71.1875 362.192 65.2781 365.292 63.0738 372.852C61.975 376.623 61.1543 381.566 61.429 386.232C61.7271 391.251 63.0738 393.772 62.3234 400.104C61.0571 410.84 57.687 417.07 70.6281 419.158C73.9479 419.697 80.4302 420.888 82.8857 421.011C92.6275 421.487 90.4333 410.258 99.7463 410.258C105.093 410.258 103.214 413.075 108.078 411.605C112.985 410.125 110.027 409.593 117.696 409.038C125.766 408.452 130.278 414.259 138.868 410.102C145.815 406.739 153.926 406.147 160.411 402.422C169.962 396.938 174.073 407.398 180.753 393.652C184.428 386.095 186.022 389.252 197.472 389.252C199.894 389.252 200.437 387.632 202.511 386.252C209.871 391.144 210.132 394.088 219.938 390.546C234.986 385.114 229.297 386.608 235.559 398.451C240.081 407.009 247.652 403.643 253.602 410.548C255.451 412.696 255.706 415.257 258.932 415.257C267.122 415.257 258.875 402.469 278.737 412.6C284.629 415.606 292.539 416.844 297.802 420.682C306.026 426.678 306.924 434.548 320.377 429.253C322.783 428.305 322.36 428.079 325.493 427.327C328.317 426.642 329.161 426.705 332.089 425.874C335.583 424.882 341.754 421.26 343.563 421.26C349.1 421.26 351.985 422.694 357.11 421.776C362.373 420.831 365.72 418.26 369.76 418.26C373.602 418.26 374.574 421.26 378.828 421.26C381.639 421.26 402.955 415.586 405.93 411.16C411.166 403.37 408.938 388.836 405.923 381.356C403.286 374.807 398.315 373.011 396.962 367.244C409.169 353.305 415.43 364.244 423.159 364.244C429.339 364.244 423.216 356.638 428.957 351.998C433.333 348.466 437.473 350.308 444.123 349.045C456.371 346.723 445.168 329.299 459.409 328.214C490.269 325.87 483.784 327.908 499.991 314.418C506.44 309.05 510.945 319.407 518.969 312.326L524.918 309.23C530.03 312.626 533.96 318.706 538.265 322.983C542.539 327.227 549.779 335.239 556.15 335.239C559.192 335.239 560.291 332.089 562.184 330.223C571.416 321.12 572.582 330.237 584.361 330.237C586.612 320.651 594.726 327.233 602.497 327.233C603.714 327.233 607.533 323.674 607.533 322.231C607.533 314.804 601.469 308.379 596.608 304.075C596.39 303.879 595.751 303.333 595.536 303.137C594.535 302.196 595.453 303.203 594.035 301.627L583.054 288.503C577.329 282.792 580.669 282.367 582.347 275.219C569.848 266.911 576.743 271.268 574.414 263.984C573.651 261.613 563.473 254.968 561.189 255.214L549.122 256.408C549.065 240.327 561.018 245.798 565.798 241.787C567.929 239.998 567.065 237.184 567.959 233.928C569.142 229.637 569.222 231.832 572.756 229.691C576.773 227.253 575.527 222.563 580.649 221.622C583.841 221.036 587.912 222.48 593.429 221.206C596.427 214.997 594.555 216.344 594.377 209.21C594.243 203.828 595.442 201.54 595.442 195.197C595.442 184.205 593.587 176.263 596.772 165.51C598.658 159.151 600.337 155.582 597.459 150.184C600.273 148.844 602.662 148.791 605.265 146.932C612.682 141.637 611.68 129.135 617.75 123.318C621.271 119.945 621.452 121.694 627.08 120.574C650.339 115.941 641.344 121.857 653.88 125.177C657.984 122.449 670 108.773 670 100.169C670 94.9041 667.069 92.0638 666.938 86.2068C666.781 79.279 667.347 76.0295 665.97 70.1626C650.131 66.4974 639.415 71.5994 619.445 62.34C613.894 59.7657 605.754 56.8123 603.171 51.4875C600.273 45.5108 599.717 33.1517 592.421 33.1517C588.294 33.1517 580.3 37.9876 574.8 38.543C573.617 38.6628 572.622 38.8557 570.83 37.6583C570.415 37.3823 569.319 36.2448 569.266 36.1816C564.797 30.7637 567.071 28.1528 558.164 28.1528C540.78 28.1528 547.588 33.8668 529.092 20.001C526.932 18.3813 525.655 17.2072 523.227 15.827C513.27 10.1762 506.125 7.14629 493.686 7.14629C485.727 7.14629 480.799 10.7283 474.062 13.6718C470.518 15.2216 467.717 15.2516 463.824 16.5121C447.282 21.8702 425.815 19.8846 409.96 29.0508L368.148 67.5617C364.179 71.2868 349.807 76.1659 349.609 76.1659C344.916 76.1659 323.332 67.5318 315.778 64.738C311.845 63.2812 310.424 60.6305 306.927 58.5252C300.264 54.5174 303.312 45.288 292.783 42.5574C284.395 40.3856 272.238 42.155 263.97 42.155C249.86 42.155 245.197 38.257 235.522 47.9221C232.855 50.5829 231.304 51.0186 228.919 53.3667C221.546 60.6072 228.296 66.1615 191.429 66.1615C181.63 66.1615 171.818 62.197 163.845 59.5363C156.107 56.9487 147.179 54.6738 138.874 54.544C133.94 54.4675 139.903 55.1593 135.005 55.1593C133.645 55.1593 123.273 50.0407 119.93 49.1228C101.904 44.1638 84.3429 55.1593 62.4641 55.1593C49.9519 55.1593 55.8445 36.5641 63.0805 32.7626C70.1892 29.0242 74.5543 32.0209 74.5543 21.1484C74.5543 16.2626 64.4841 15.3015 56.8327 10.735C39.2519 0.235019 40.6857 -4.66073 31.9389 5.84586C30.1098 8.04097 27.212 9.80371 26.2472 12.0919C23.46 18.7105 28.8569 18.6806 19.0146 24.022L8.57935 29.6694C4.355 31.4355 3.8927 33.0686 3.25955 37.3889C2.1574 44.9122 0 52.0729 0 59.1604Z" fill="#526172" fill-opacity="0.1"/>
<path d="M38.375 86.9375H19.75V71.75H38.3125C40.9792 71.75 43.125 71.1667 44.75 70C46.375 68.8333 47.5625 67.2292 48.3125 65.1875C49.0625 63.1042 49.4375 60.7708 49.4375 58.1875C49.4375 55.5625 49.0625 53.1042 48.3125 50.8125C47.5625 48.5208 46.375 46.6875 44.75 45.3125C43.125 43.8958 41 43.1875 38.375 43.1875H25.625V119H7.375V28H38.375C44.5 28 49.7708 29.2917 54.1875 31.875C58.6042 34.4583 61.9792 38.0208 64.3125 42.5625C66.6875 47.0625 67.875 52.2292 67.875 58.0625C67.875 63.8958 66.6875 68.9792 64.3125 73.3125C61.9375 77.6458 58.5417 81 54.125 83.375C49.75 85.75 44.5 86.9375 38.375 86.9375ZM96.75 66.4375V119H79.25V51.375H95.75L96.75 66.4375ZM112.688 50.875L112.438 68.3125C111.646 68.1458 110.688 68.0208 109.562 67.9375C108.479 67.8542 107.521 67.8125 106.688 67.8125C104.729 67.8125 103.062 68.125 101.688 68.75C100.312 69.3333 99.1667 70.2292 98.25 71.4375C97.375 72.6042 96.7083 74.0625 96.25 75.8125C95.7917 77.5625 95.5208 79.5417 95.4375 81.75L92.125 80.5C92.125 76.0833 92.4583 72.0417 93.125 68.375C93.8333 64.6667 94.875 61.4583 96.25 58.75C97.625 56 99.2708 53.875 101.188 52.375C103.146 50.875 105.354 50.125 107.812 50.125C108.646 50.125 109.521 50.2083 110.438 50.375C111.396 50.5 112.146 50.6667 112.688 50.875ZM140 51.375V119H122.438V51.375H140ZM121.625 33.875C121.625 31.1667 122.479 28.9375 124.188 27.1875C125.938 25.3958 128.292 24.5 131.25 24.5C134.167 24.5 136.479 25.375 138.188 27.125C139.896 28.875 140.75 31.1042 140.75 33.8125C140.75 36.5208 139.896 38.7708 138.188 40.5625C136.479 42.3125 134.167 43.1875 131.25 43.1875C128.292 43.1875 125.938 42.3125 124.188 40.5625C122.479 38.7708 121.625 36.5417 121.625 33.875ZM169.75 101.188L181.562 51.375H192.562L189.875 71.625L178.25 119H169.062L169.75 101.188ZM166.375 51.375L174.438 101.062L174.375 119H163.625L149.562 51.375H166.375ZM201.438 100.25L209.25 51.375H226.188L212.062 119H201.312L201.438 100.25ZM194.062 51.375L205.875 100.812L206.688 119H197.5L185.875 71.75L183.25 51.375H194.062ZM233 87.5V82.9375C233 77.6458 233.625 72.9583 234.875 68.875C236.167 64.7917 238 61.375 240.375 58.625C242.75 55.8333 245.604 53.7292 248.938 52.3125C252.312 50.8542 256.083 50.125 260.25 50.125C264.458 50.125 268.229 50.8542 271.562 52.3125C274.938 53.7292 277.812 55.8333 280.188 58.625C282.604 61.375 284.458 64.7917 285.75 68.875C287.042 72.9583 287.688 77.6458 287.688 82.9375V87.5C287.688 92.75 287.042 97.4167 285.75 101.5C284.458 105.583 282.604 109.021 280.188 111.812C277.812 114.604 274.958 116.708 271.625 118.125C268.292 119.542 264.542 120.25 260.375 120.25C256.208 120.25 252.438 119.542 249.062 118.125C245.729 116.708 242.854 114.604 240.438 111.812C238.021 109.021 236.167 105.583 234.875 101.5C233.625 97.4167 233 92.75 233 87.5ZM250.5 82.9375V87.5C250.5 90.625 250.708 93.3333 251.125 95.625C251.583 97.9167 252.229 99.8125 253.062 101.312C253.938 102.812 254.979 103.917 256.188 104.625C257.396 105.333 258.792 105.688 260.375 105.688C261.958 105.688 263.375 105.333 264.625 104.625C265.875 103.917 266.896 102.812 267.688 101.312C268.521 99.8125 269.125 97.9167 269.5 95.625C269.917 93.3333 270.125 90.625 270.125 87.5V82.9375C270.125 79.8958 269.896 77.2292 269.438 74.9375C268.979 72.6042 268.333 70.7083 267.5 69.25C266.667 67.75 265.625 66.625 264.375 65.875C263.167 65.0833 261.792 64.6875 260.25 64.6875C258.708 64.6875 257.333 65.0833 256.125 65.875C254.958 66.625 253.938 67.75 253.062 69.25C252.229 70.7083 251.583 72.6042 251.125 74.9375C250.708 77.2292 250.5 79.8958 250.5 82.9375ZM344 104.438V119H301.062V104.438H344ZM343.562 62L307.938 119H296.25V108L331.688 51.375H343.562V62ZM337.438 51.375V65.9375H296.938V51.375H337.438Z" fill="black" fill-opacity="0.2"/>
<path d="M110.224 150.112C110.272 151.984 110.224 153.904 109.984 155.776C109.792 157.072 109.504 158.512 108.688 159.568C107.248 161.536 104.656 161.008 103.648 158.896C102.976 157.552 102.784 156.016 102.592 154.528C102.4 152.512 102.352 150.4 102.544 148.384C102.736 146.032 103.264 142.288 106.144 142C106.288 142 106.24 142 106.432 142C110.032 142 110.128 147.568 110.224 150.112ZM107.872 157.696C108.832 155.104 108.688 151.984 108.544 149.296C108.496 147.904 108.352 146.512 107.92 145.216C107.68 144.4 107.248 143.584 106.288 143.584C105.328 143.632 104.896 144.784 104.656 145.552C104.176 147.088 104.08 148.672 104.08 150.256C104.032 151.84 104.08 153.472 104.272 155.008C104.416 156.112 104.608 157.264 105.088 158.224C105.376 158.8 105.856 159.328 106.528 159.232C107.248 159.088 107.632 158.32 107.872 157.696ZM120.453 141.952C121.461 141.952 121.461 143.584 120.453 143.584C119.445 143.584 118.677 143.584 117.717 143.584C117.813 149.056 117.861 154.528 117.909 160C117.957 161.056 116.325 161.056 116.325 160C116.229 154.528 116.181 149.056 116.085 143.584C115.077 143.584 114.213 143.584 113.205 143.584C112.149 143.584 112.149 141.952 113.205 141.952C115.749 141.952 117.909 141.952 120.453 141.952ZM146.794 142.768C146.794 141.712 148.426 141.712 148.426 142.768C148.33 148.48 148.282 154.24 148.234 160C148.186 161.056 146.602 161.056 146.602 160C146.65 157.264 146.65 154.576 146.698 151.84C145.258 151.84 143.818 151.84 142.33 151.84C142.33 154.576 142.282 157.264 142.234 160C142.234 161.056 140.65 161.056 140.65 160C140.698 154.24 140.794 148.48 140.842 142.768C140.842 141.712 142.474 141.712 142.474 142.768C142.426 145.216 142.378 147.712 142.378 150.208C143.818 150.208 145.258 150.208 146.698 150.208C146.746 147.712 146.746 145.216 146.794 142.768ZM160.639 159.76C160.975 160.768 159.391 161.2 159.103 160.192C159.007 159.856 158.911 159.52 158.863 159.184C158.527 159.616 158.143 160 157.663 160.288C156.127 161.2 153.919 160.768 152.863 159.328C151.615 157.6 151.999 154.864 153.679 153.568C155.119 152.464 156.895 152.56 158.335 153.376C158.287 152.272 158.287 151.12 158.287 150.016C158.287 148.24 158.527 146.128 157.807 144.448C157.567 143.968 157.231 143.584 156.703 143.536C155.695 143.44 155.263 144.16 155.119 145.024C154.879 146.032 153.343 145.6 153.535 144.592C153.919 142.768 155.455 141.472 157.423 142C158.815 142.432 159.439 143.824 159.679 145.12C160.015 146.896 159.919 148.768 159.919 150.544C159.919 153.568 159.775 156.88 160.639 159.76ZM157.231 158.608C158.095 157.792 158.239 156.496 158.287 155.344C157.231 154.384 155.647 153.856 154.495 155.008C153.535 155.92 153.391 157.84 154.447 158.704C155.263 159.328 156.463 159.328 157.231 158.608ZM177.216 160C177.216 160.432 176.88 160.816 176.4 160.816C172.992 160.816 169.536 160.816 166.128 160.816C165.744 160.816 165.312 160.48 165.312 160C165.216 154.24 165.168 148.48 165.12 142.768C165.072 141.712 166.704 141.712 166.704 142.768C166.8 148.24 166.848 153.712 166.896 159.184C168.096 159.184 169.296 159.184 170.496 159.184C170.448 153.712 170.352 148.24 170.304 142.768C170.304 141.712 171.936 141.712 171.936 142.768C171.984 148.24 172.08 153.712 172.128 159.184C173.28 159.184 174.432 159.184 175.584 159.184C175.536 153.712 175.44 148.24 175.392 142.768C175.392 141.712 177.024 141.712 177.024 142.768C177.072 148.48 177.168 154.24 177.216 160ZM188.799 142.288C189.183 141.712 190.287 141.904 190.287 142.72C190.191 148.48 190.143 154.24 190.095 160C190.047 161.056 188.463 161.056 188.463 160C188.511 155.872 188.559 151.792 188.607 147.664C187.118 151.84 185.583 156.016 184.095 160.192C183.855 160.96 182.463 160.96 182.463 160C182.511 154.24 182.559 148.48 182.655 142.72C182.655 141.712 184.287 141.712 184.287 142.72C184.239 146.944 184.191 151.12 184.143 155.344C185.679 151.072 187.215 146.848 188.655 142.528C188.703 142.432 188.751 142.336 188.799 142.288ZM202.187 159.808C202.475 160.816 200.939 161.2 200.603 160.24C199.883 157.984 199.163 155.728 198.395 153.472C197.675 155.728 196.907 157.984 196.187 160.24C195.899 161.2 194.315 160.816 194.651 159.808C195.611 156.832 196.571 153.856 197.531 150.88C196.667 148.24 195.803 145.6 194.987 142.96C194.651 142 196.187 141.568 196.523 142.528C197.147 144.448 197.771 146.416 198.395 148.336C199.019 146.416 199.691 144.448 200.267 142.528C200.603 141.568 202.187 142 201.851 142.96C200.987 145.6 200.123 148.24 199.259 150.88C200.219 153.856 201.227 156.832 202.187 159.808ZM234.375 160C234.423 160.432 234.423 160.912 234.423 161.344C234.423 161.824 234.087 162.16 233.607 162.16C233.174 162.16 232.791 161.776 232.791 161.344C232.791 161.152 232.839 161.008 232.791 160.816C229.575 160.816 226.359 160.816 223.095 160.816C223.095 161.008 223.095 161.152 223.095 161.344C223.047 161.824 222.711 162.16 222.279 162.16C221.847 162.16 221.463 161.776 221.463 161.344C221.463 160.912 221.511 160.432 221.463 160C221.463 159.808 221.511 159.664 221.607 159.52C221.751 159.328 221.943 159.184 222.279 159.184C222.279 159.184 222.279 159.184 223.575 159.184C224.343 158.848 224.775 157.84 225.015 157.12C225.398 155.824 225.591 154.48 225.687 153.136C225.975 149.68 225.879 146.224 225.879 142.768C225.879 142.384 226.167 141.952 226.695 141.952C228.039 141.904 229.383 141.952 230.727 141.952C231.111 141.952 231.543 142.288 231.543 142.768C231.591 148.24 231.639 153.712 231.734 159.184C232.359 159.184 232.983 159.184 233.607 159.184C233.991 159.184 234.375 159.472 234.375 160ZM227.223 154.24C227.031 155.824 226.743 157.792 225.831 159.184C227.271 159.184 228.663 159.184 230.103 159.184C230.055 154 229.959 148.768 229.911 143.536C229.095 143.536 228.327 143.536 227.511 143.536C227.511 147.136 227.607 150.688 227.223 154.24ZM249.103 142.768C249.199 148.48 249.247 154.24 249.295 160C249.343 161.056 247.711 161.056 247.711 160C247.615 154.528 247.567 149.056 247.519 143.536C246.703 143.536 245.887 143.536 245.071 143.536C245.119 147.952 245.311 152.464 244.399 156.784C244.063 158.368 243.439 160.24 241.711 160.72C239.503 161.296 237.775 159.472 237.775 157.36C237.823 156.304 239.407 156.304 239.407 157.36C239.407 158.176 239.839 159.136 240.751 159.184C241.519 159.232 241.951 158.8 242.239 158.224C242.911 156.976 243.055 155.44 243.151 154.048C243.535 150.304 243.439 146.512 243.439 142.768C243.439 142.384 243.775 141.952 244.255 141.952C245.599 141.904 246.943 141.952 248.335 141.952C248.767 141.952 249.103 142.24 249.103 142.768ZM262.546 142.72C262.594 148.48 262.642 154.24 262.69 160C262.69 161.056 261.058 161.056 261.058 160C261.058 156.832 261.01 153.664 261.01 150.496C260.77 150.496 260.53 150.496 260.29 150.496C259.234 152.272 259.426 154.048 259.282 156.064C259.186 157.264 258.946 158.992 258.13 160C257.458 160.72 256.498 160.96 255.538 160.768C253.762 160.432 253.234 158.848 253.474 157.216C253.618 156.208 255.154 156.64 255.01 157.648C254.914 158.656 255.49 159.424 256.45 159.184C256.93 159.088 257.218 158.464 257.362 157.888C258.082 155.392 257.506 152.608 258.61 150.208C257.122 149.728 255.922 148.672 255.73 146.896C255.586 145.36 256.114 143.776 257.362 142.816C258.658 141.856 260.29 141.76 261.826 141.952C262.21 142 262.498 142.24 262.546 142.72ZM257.362 146.848C257.602 148.576 259.474 149.008 261.01 148.864C260.962 147.088 260.962 145.264 260.962 143.488C258.946 143.392 257.026 144.496 257.362 146.848ZM288.075 142.768C288.075 141.712 289.707 141.712 289.707 142.768C289.611 148.48 289.563 154.24 289.515 160C289.467 161.056 287.883 161.056 287.883 160C287.931 157.264 287.931 154.576 287.979 151.84C286.539 151.84 285.099 151.84 283.611 151.84C283.611 154.576 283.563 157.264 283.515 160C283.515 161.056 281.931 161.056 281.931 160C281.979 154.24 282.075 148.48 282.123 142.768C282.123 141.712 283.755 141.712 283.755 142.768C283.707 145.216 283.659 147.712 283.659 150.208C285.099 150.208 286.539 150.208 287.979 150.208C288.027 147.712 288.027 145.216 288.075 142.768ZM301.921 159.76C302.257 160.768 300.673 161.2 300.385 160.192C300.289 159.856 300.193 159.52 300.145 159.184C299.809 159.616 299.425 160 298.945 160.288C297.409 161.2 295.201 160.768 294.145 159.328C292.897 157.6 293.281 154.864 294.961 153.568C296.401 152.464 298.177 152.56 299.617 153.376C299.569 152.272 299.569 151.12 299.569 150.016C299.569 148.24 299.809 146.128 299.089 144.448C298.849 143.968 298.513 143.584 297.985 143.536C296.977 143.44 296.545 144.16 296.401 145.024C296.161 146.032 294.625 145.6 294.817 144.592C295.201 142.768 296.737 141.472 298.705 142C300.097 142.432 300.721 143.824 300.961 145.12C301.297 146.896 301.201 148.768 301.201 150.544C301.201 153.568 301.057 156.88 301.921 159.76ZM298.513 158.608C299.377 157.792 299.521 156.496 299.569 155.344C298.513 154.384 296.929 153.856 295.777 155.008C294.817 155.92 294.673 157.84 295.729 158.704C296.545 159.328 297.745 159.328 298.513 158.608ZM318.497 160C318.497 160.432 318.161 160.816 317.681 160.816C314.273 160.816 310.817 160.816 307.409 160.816C307.025 160.816 306.593 160.48 306.593 160C306.497 154.24 306.449 148.48 306.401 142.768C306.353 141.712 307.985 141.712 307.985 142.768C308.081 148.24 308.129 153.712 308.177 159.184C309.377 159.184 310.577 159.184 311.777 159.184C311.729 153.712 311.633 148.24 311.585 142.768C311.585 141.712 313.217 141.712 313.217 142.768C313.265 148.24 313.361 153.712 313.409 159.184C314.561 159.184 315.713 159.184 316.865 159.184C316.817 153.712 316.721 148.24 316.673 142.768C316.673 141.712 318.305 141.712 318.305 142.768C318.353 148.48 318.449 154.24 318.497 160ZM330.08 142.288C330.464 141.712 331.568 141.904 331.568 142.72C331.472 148.48 331.424 154.24 331.376 160C331.328 161.056 329.744 161.056 329.744 160C329.792 155.872 329.84 151.792 329.888 147.664C328.4 151.84 326.864 156.016 325.376 160.192C325.136 160.96 323.744 160.96 323.744 160C323.792 154.24 323.84 148.48 323.936 142.72C323.936 141.712 325.568 141.712 325.568 142.72C325.52 146.944 325.472 151.12 325.424 155.344C326.96 151.072 328.496 146.848 329.936 142.528C329.984 142.432 330.032 142.336 330.08 142.288ZM343.468 159.808C343.756 160.816 342.22 161.2 341.884 160.24C341.164 157.984 340.444 155.728 339.676 153.472C338.956 155.728 338.188 157.984 337.468 160.24C337.18 161.2 335.596 160.816 335.932 159.808C336.892 156.832 337.852 153.856 338.812 150.88C337.948 148.24 337.084 145.6 336.268 142.96C335.932 142 337.468 141.568 337.804 142.528C338.428 144.448 339.052 146.416 339.676 148.336C340.3 146.416 340.972 144.448 341.548 142.528C341.884 141.568 343.468 142 343.132 142.96C342.268 145.6 341.404 148.24 340.54 150.88C341.5 153.856 342.508 156.832 343.468 159.808Z" fill="black" fill-opacity="0.5"/>
<path fill-rule="evenodd" clip-rule="evenodd" d="M302.297 209.917C303.562 209.917 304.588 210.94 304.588 212.202C304.588 213.464 303.562 214.487 302.297 214.487C301.032 214.487 300.006 213.464 300.006 212.202C300.006 210.94 301.032 209.917 302.297 209.917ZM329.973 196.002C331.239 196.002 332.264 197.025 332.264 198.287C332.264 199.549 331.239 200.572 329.973 200.572C328.708 200.572 327.682 199.549 327.682 198.287C327.682 197.025 328.708 196.002 329.973 196.002ZM343.701 196.008C344.967 196.008 345.992 197.031 345.992 198.293C345.992 199.555 344.967 200.578 343.701 200.578C342.436 200.578 341.41 199.555 341.41 198.293C341.41 197.031 342.436 196.008 343.701 196.008ZM316.116 196C317.382 196 318.407 197.023 318.407 198.285C318.407 199.547 317.382 200.571 316.116 200.571C314.851 200.571 313.825 199.547 313.825 198.285C313.825 197.023 314.851 196 316.116 196ZM302.291 196C303.556 196 304.582 197.023 304.582 198.285C304.582 199.547 303.556 200.571 302.291 200.571C301.026 200.571 300 199.547 300 198.285C300 197.023 301.026 196 302.291 196ZM329.976 251.423C331.242 251.423 332.267 252.447 332.267 253.709C332.267 254.97 331.242 255.994 329.976 255.994C328.711 255.994 327.685 254.97 327.685 253.709C327.685 252.447 328.711 251.423 329.976 251.423ZM343.704 251.429C344.97 251.429 345.995 252.453 345.995 253.715C345.995 254.977 344.97 256 343.704 256C342.439 256 341.413 254.977 341.413 253.715C341.413 252.453 342.439 251.429 343.704 251.429ZM316.119 251.422C317.385 251.422 318.41 252.445 318.41 253.707C318.41 254.969 317.385 255.992 316.119 255.992C314.854 255.992 313.828 254.969 313.828 253.707C313.828 252.445 314.854 251.422 316.119 251.422ZM302.294 251.422C303.56 251.422 304.585 252.445 304.585 253.707C304.585 254.969 303.56 255.992 302.294 255.992C301.029 255.992 300.003 254.969 300.003 253.707C300.003 252.445 301.029 251.422 302.294 251.422ZM329.977 237.597C331.243 237.597 332.268 238.621 332.268 239.883C332.268 241.145 331.243 242.168 329.977 242.168C328.712 242.168 327.686 241.145 327.686 239.883C327.686 238.621 328.712 237.597 329.977 237.597ZM343.705 237.604C344.971 237.604 345.996 238.627 345.996 239.889C345.996 241.151 344.971 242.174 343.705 242.174C342.44 242.174 341.414 241.151 341.414 239.889C341.414 238.627 342.44 237.604 343.705 237.604ZM316.12 237.596C317.386 237.596 318.411 238.619 318.411 239.881C318.411 241.143 317.386 242.166 316.12 242.166C314.855 242.166 313.829 241.143 313.829 239.881C313.829 238.619 314.855 237.596 316.12 237.596ZM302.295 237.596C303.56 237.596 304.586 238.619 304.586 239.881C304.586 241.143 303.56 242.166 302.295 242.166C301.03 242.166 300.004 241.143 300.004 239.881C300.004 238.619 301.03 237.596 302.295 237.596ZM329.981 223.836C331.246 223.836 332.272 224.86 332.272 226.122C332.272 227.383 331.246 228.407 329.981 228.407C328.716 228.407 327.69 227.383 327.69 226.122C327.69 224.86 328.716 223.836 329.981 223.836ZM343.709 223.842C344.974 223.842 346 224.866 346 226.128C346 227.389 344.974 228.413 343.709 228.413C342.444 228.413 341.418 227.389 341.418 226.128C341.418 224.866 342.444 223.842 343.709 223.842ZM316.124 223.835C317.389 223.835 318.415 224.858 318.415 226.12C318.415 227.382 317.389 228.405 316.124 228.405C314.859 228.405 313.833 227.382 313.833 226.12C313.833 224.858 314.859 223.835 316.124 223.835ZM302.299 223.835C303.564 223.835 304.59 224.858 304.59 226.12C304.59 227.382 303.564 228.405 302.299 228.405C301.034 228.405 300.008 227.382 300.008 226.12C300.008 224.858 301.034 223.835 302.299 223.835ZM329.979 209.918C331.245 209.918 332.27 210.942 332.27 212.203C332.27 213.465 331.245 214.489 329.979 214.489C328.714 214.489 327.688 213.465 327.688 212.203C327.688 210.942 328.714 209.918 329.979 209.918ZM343.707 209.924C344.972 209.924 345.998 210.948 345.998 212.209C345.998 213.471 344.972 214.495 343.707 214.495C342.442 214.495 341.416 213.471 341.416 212.209C341.416 210.948 342.442 209.924 343.707 209.924ZM316.122 209.917C317.388 209.917 318.413 210.94 318.413 212.202C318.413 213.464 317.388 214.487 316.122 214.487C314.857 214.487 313.831 213.464 313.831 212.202C313.831 210.94 314.857 209.917 316.122 209.917Z" fill="white" fill-opacity="0.5"/>
</svg>
