<svg xmlns="http://www.w3.org/2000/svg" width="30" height="30" viewBox="0 0 30 30" fill="none">
    <path d="M24.3004 9.06578L24.3016 9.06578C25.162 9.06362 25.8401 8.716 26.2947 8.17683C26.7403 7.6484 26.9507 6.96223 26.9483 6.29497C26.946 5.62751 26.7306 4.94111 26.2755 4.41363C25.8112 3.8757 25.1222 3.53307 24.2474 3.53307C23.3719 3.53307 22.6742 3.875 22.1991 4.40892C21.7319 4.9339 21.5 5.62081 21.4934 6.29455C21.4868 6.9687 21.7059 7.66157 22.1826 8.19182C22.6672 8.73089 23.3861 9.06578 24.3004 9.06578ZM20.5194 29.5C18.7025 29.5 16.4998 29.4534 14.3133 29.4067L14.2229 29.4047C12.0703 29.3587 9.9384 29.3131 8.22615 29.3131C5.09552 29.3131 3.20664 28.3764 2.08036 26.9395C0.934591 25.4777 0.5 23.4025 0.5 20.9705C0.5 18.4985 0.523826 15.8947 0.547674 13.6731C0.553331 13.1462 0.558993 12.6405 0.564338 12.1631C0.581502 10.63 0.595407 9.38811 0.595407 8.67002C0.595407 5.95055 1.18879 3.93584 2.42294 2.59978C3.6498 1.27162 5.59662 0.521568 8.5159 0.521568C9.55753 0.521568 11.9477 0.51682 14.4844 0.511781L14.9869 0.510783C17.7062 0.50539 20.5024 0.5 21.9223 0.5C24.596 0.5 26.4469 1.06355 27.6453 2.32968C28.851 3.6036 29.5 5.69693 29.5 9.00791C29.5 9.50939 29.4889 10.1422 29.4735 11.0266C29.4635 11.5953 29.4518 12.2681 29.44 13.0768C29.4099 15.1371 29.3799 18.0654 29.3799 22.3688C29.3799 25.0057 28.7678 26.7334 27.4484 27.8283C26.1035 28.9443 23.9135 29.5 20.5194 29.5ZM15.0424 6.65672C12.356 6.65672 10.2786 7.70145 8.87333 9.28865C7.47609 10.8668 6.76303 12.9574 6.74208 15.0345C6.72112 17.112 7.39247 19.2086 8.807 20.7921C10.2297 22.3846 12.3727 23.4224 15.2155 23.4224C17.8387 23.4224 19.8412 22.3729 21.1781 20.7805C22.5056 19.1991 23.156 17.1088 23.1489 15.0378C23.1417 12.9666 22.4766 10.876 21.1224 9.29486C19.7591 7.70303 17.7208 6.65672 15.0424 6.65672Z" stroke="#526172"/>
</svg>