<svg xmlns="http://www.w3.org/2000/svg" width="23" height="30" viewBox="0 0 23 30" fill="none">
    <path d="M11.3398 0C8.24568 0 6.08984 2.69956 6.08984 6V9H3.25391C1.51894 9 0.0898438 10.5244 0.0898438 12.375V26.625C0.0898438 28.4756 1.51894 30 3.25391 30H19.4258C21.1607 30 22.0898 28.4888 22.0898 26.6381V12.375C22.0898 10.5244 21.1607 9 19.4258 9H17L16.8477 6C16.8477 2.69956 14.434 0 11.3398 0ZM11.3398 0.934867C14.3901 0.990083 16 3.91544 16 6V9H7V6C7 3.91544 8.5 1 11.3398 0.934867ZM3.25391 10H19.4258C20.5898 10 21.0898 11.7401 21.0898 12.375V27.5C21.0898 28.1349 20.185 29 19.5898 29H3.08984C2.08984 29 1.08984 28 1.08984 27.1356V12C1.08984 11 2.41406 10 3.25391 10ZM11.3398 17.25C10.7804 17.25 10.2439 17.4871 9.84829 17.909C9.45271 18.331 9.23047 18.9033 9.23047 19.5C9.23047 20.0967 9.45271 20.669 9.84829 21.091C10.2439 21.5129 10.7804 21.75 11.3398 21.75C11.8993 21.75 12.4358 21.5129 12.8314 21.091C13.227 20.669 13.4492 20.0967 13.4492 19.5C13.4492 18.9033 13.227 18.331 12.8314 17.909C12.4358 17.4871 11.8993 17.25 11.3398 17.25Z" fill="#526172"/>
</svg>