<svg xmlns="http://www.w3.org/2000/svg" width="30" height="30" viewBox="0 0 30 30" fill="none">
    <path d="M2.67962 5.21512L6.18763 1.70711C6.57815 1.31658 7.21132 1.31658 7.60184 1.70711L12.5034 6.60868C12.8939 6.99921 12.8939 7.63237 12.5034 8.0229L9.26392 11.2624C8.792 11.7343 8.675 12.4553 8.97347 13.0522C10.6989 16.503 13.497 19.3011 16.9478 21.0265C17.5447 21.325 18.2657 21.208 18.7376 20.7361L21.9771 17.4966C22.3676 17.1061 23.0008 17.1061 23.3913 17.4966L28.2929 22.3982C28.6834 22.7887 28.6834 23.4218 28.2929 23.8124L24.7849 27.3204C22.6735 29.4317 19.331 29.6693 16.9422 27.8777L11.1023 23.4977C9.35873 22.1901 7.8099 20.6413 6.50225 18.8977L2.12226 13.0578C0.330722 10.669 0.568269 7.32647 2.67962 5.21512Z" stroke="#526172"/>
</svg>