<svg width="100" height="100" viewBox="0 0 100 100" fill="none" xmlns="http://www.w3.org/2000/svg">
<path fill-rule="evenodd" clip-rule="evenodd" d="M36.5235 69.1738C36.0695 69.3053 36.1105 69.7464 36.131 67.3889L36.133 28.9018L36.5235 29.0284C37.473 29.3099 40.1295 30.8662 41.19 31.4584L55.3295 39.0008C58.2755 40.6237 61.5655 42.3605 64.7395 44.0418L74.1465 49.0873L36.5235 69.1738ZM100 47.9916V51.7954C99.742 58.5897 98.107 65.254 95.2485 71.4247C93.475 75.252 91.708 77.6794 89.314 80.9216C88.8135 81.5992 88.435 82.0093 87.9195 82.6529C86.689 84.1907 83.124 87.5219 81.6685 88.7071C67.4895 100.257 46.655 103.618 29.556 95.648C21.421 91.8567 20.522 90.3404 14.8995 85.6935C14.2245 85.1354 14.0455 84.6563 13.4315 84.0362C10.7885 81.3652 8.728 78.4651 6.797 75.239C6.0505 73.9917 5.277 72.6115 4.69 71.2907C1.2395 63.5297 0 58.3661 0 48.6327C0 41.0672 2.3205 33.8233 4.7515 28.5753C6.525 24.748 8.292 22.3206 10.686 19.0784C12.552 16.5514 15.9355 13.2443 18.3315 11.2929C32.5105 -0.256887 53.345 -3.61755 70.444 4.35202C78.579 8.14326 79.478 9.65956 85.1005 14.3065C85.7755 14.8646 85.9545 15.3437 86.5685 15.9638C89.815 19.2449 93.4395 24.465 95.31 28.7383C96.472 31.3923 97.664 34.2439 98.5465 37.7776C99.3925 41.1678 99.8705 44.5874 100 47.9916Z" fill="white" fill-opacity="0.5"/>
</svg>
