<svg xmlns="http://www.w3.org/2000/svg" width="47" height="10" viewBox="0 0 47 10" fill="none">
    <path d="M11.5797 6.1536C9.50205 6.86866 9.53623 6.97411 6.81159 7.79462C4.08696 8.61513 0 9.02539 0 9.02539C0 9.02539 0.975996 9.0254 5.1087 9.02538C8.44602 9.02537 8.85998 9.02538 12.2658 9.02538C15.744 9.02538 17.029 9.02539 20.6485 9.02538C23.0323 9.02538 25.51 9.02537 27.7998 9.02538C31.1372 9.02539 33.5209 9.02537 37.335 9.02538C41.1492 9.02539 43.1859 9.02538 47 9.02539C47 9.02539 42.2319 8.42368 39.5073 7.52112C36.1015 6.39291 31.6739 4.10231 30.9928 3.69206C30.3116 3.2818 23.8406 -0.000250816 23.8406 -0.000250816C23.8406 -0.000250816 21.1159 1.23052 18.0507 2.87154C14.9855 4.51257 13.9638 5.33308 11.5797 6.1536Z" fill="#303943"/>
</svg>