<svg xmlns="http://www.w3.org/2000/svg" width="35" height="30" viewBox="0 0 35 30" fill="none">
    <path d="M16.9372 29.2798V29.2797L16.9278 29.2798C14.2907 29.3296 11.6799 28.7578 9.31223 27.6124L9.16261 27.54L8.99943 27.5716L2.4537 28.8391L3.71912 22.4799L3.75451 22.302L3.66764 22.1428C1.31559 17.8322 0.453138 12.3759 1.78166 8.03518C2.44317 5.8738 3.64367 3.99891 5.46452 2.66209C7.28487 1.32564 9.76166 0.500265 13.0217 0.500265V0.50033L13.0297 0.5002C20.6985 0.376418 26.0381 2.15888 29.4247 4.83468C32.8027 7.50367 34.2775 11.0904 34.1825 14.6893C33.9923 21.9016 27.4724 29.2798 16.9372 29.2798ZM24.9928 23.5271L25.2049 23.9799L25.4696 23.8559L25.4914 23.5645L25.8689 18.5245L25.9002 18.1076L25.4954 18.003L19.6605 16.4957L19.4776 16.4485L19.3091 16.534L17.3698 17.5186L13.9466 14.2488L14.9692 12.3909L15.0649 12.2172L15.0154 12.0252L13.5052 6.15871L13.4054 5.77086L13.0051 5.78361L8.3269 5.93264L7.98438 5.94355L7.87098 6.26695L8.34282 6.43239C7.87098 6.26695 7.87086 6.26729 7.87073 6.26766L7.87044 6.26851L7.86971 6.27062L7.86772 6.27646L7.8617 6.29459C7.85684 6.30953 7.85032 6.33014 7.84247 6.35627C7.82679 6.40853 7.80582 6.48291 7.7823 6.57819C7.73529 6.76869 7.67803 7.04298 7.63252 7.39119C7.54149 8.08766 7.49739 9.08047 7.67661 10.2895C8.03624 12.7157 9.28982 15.9766 12.7967 19.439C16.296 22.894 19.3553 24.0636 21.5824 24.3429C22.692 24.4821 23.5828 24.3986 24.2038 24.2765C24.5141 24.2155 24.7567 24.1449 24.9255 24.0878C25.0099 24.0593 25.0759 24.0341 25.1227 24.0152C25.1461 24.0057 25.1647 23.9978 25.1785 23.9918L25.1954 23.9843L25.2011 23.9817L25.2032 23.9807L25.2042 23.9803C25.2046 23.9801 25.2049 23.9799 24.9928 23.5271Z" stroke="#526172"/>
</svg>