<svg xmlns="http://www.w3.org/2000/svg" width="120" height="120" viewBox="0 0 120 120" fill="none">
    <path d="M19.8946 87.5473C15.6076 85.2854 11.248 82.9713 7.8142 79.5863C1.3996 73.2605 -0.9446 63.7633 0.3376 55.1486C1.6204 46.5352 6.1588 38.7368 11.8162 32.1115C16.8784 26.1819 23.0158 20.954 30.3688 17.9892C37.7206 15.0244 46.3972 14.5117 53.8438 17.7124C58.8982 19.8849 63.2092 23.6409 68.4382 25.3421C76.8772 28.0866 85.9606 25.0053 94.7464 26.0132C103.895 27.0625 112.466 32.8823 116.708 40.9243C121.333 49.6945 120.73 60.2883 117.096 69.2434C113.463 78.1996 107.093 85.774 100.369 92.7787C92.3572 101.126 82.5664 109.36 70.648 109.527C62.0206 109.648 53.8834 105.478 46.195 101.422C37.4284 96.7971 28.6612 92.1719 19.8946 87.5473Z" fill="url(#paint0_linear_95_99)"/>
    <path d="M112.172 22.6847C112.507 28.9061 110.366 35.0096 108.246 40.9722C102.936 55.9126 97.6243 70.8524 92.3137 85.7927C90.2295 91.6559 88.0786 97.6376 83.8813 102.62C78.0836 109.503 68.4463 113.946 58.4853 114.33C48.523 114.714 38.4505 111.031 31.9408 104.624C24.4082 97.2102 22.0003 87.1447 18.3041 77.8735C14.9381 69.4302 10.2902 61.2522 8.83983 52.4246C7.3901 43.5969 9.88259 33.5853 18.2952 28.2451C25.0632 23.9492 34.116 23.5187 42.5696 23.5366C51.0225 23.5545 59.9113 23.7704 67.3843 20.4188C72.4443 18.1491 76.3577 14.448 80.7062 11.2911C85.0548 8.13363 90.3596 5.37194 96.074 5.6492C100.772 5.87698 105.127 8.22551 107.896 11.4526C110.667 14.6785 111.958 18.6977 112.172 22.6847Z" fill="#3F4B98"/>
    <path fill-rule="evenodd" clip-rule="evenodd" d="M55.1615 51.3824V56.5304H46.5656C46.0517 56.5304 45.4277 57.2421 45.4277 58.1626V68.0816C45.4277 68.9077 45.8711 69.7138 46.6921 69.7138H55.1615V95.8302C55.1615 96.7655 55.6226 97.7134 56.2993 97.7134H67.6764C68.4673 97.7134 68.9404 97.0172 68.9404 96.2069V69.7138H78.9273C79.8667 69.7138 80.1913 68.7842 80.1913 67.8306V58.4137C80.1913 57.4002 79.7907 56.5304 78.8007 56.5304H68.9404V50.2526C68.9404 45.7417 71.4352 46.2283 73.4381 45.9307C77.3868 45.3431 80.5706 47.0181 80.5706 44.2258V35.0599C80.5706 34.1519 80.0651 33.4277 79.18 33.4277H70.454C66.0302 33.6315 61.507 34.8854 58.6986 38.5732C55.676 42.5434 55.1615 46.0795 55.1615 51.3824Z" fill="white"/>
    <defs>
        <linearGradient id="paint0_linear_95_99" x1="86.4532" y1="126.105" x2="32.2124" y2="-4.12804" gradientUnits="userSpaceOnUse">
            <stop stop-color="#4155A2"/>
            <stop offset="0.529412" stop-color="#5C70BD"/>
            <stop offset="1" stop-color="#6074C0"/>
        </linearGradient>
    </defs>
</svg>