<svg xmlns="http://www.w3.org/2000/svg" width="120" height="120" viewBox="0 0 60 60" fill="none">
    <path d="M9.94733 44.3923C7.80382 43.2619 5.62402 42.1054 3.90711 40.4137C0.699802 37.2523 -0.472301 32.506 0.168801 28.2007C0.810202 23.896 3.07941 19.9987 5.90812 16.6876C8.43923 13.7242 11.5079 11.1115 15.1844 9.62975C18.8604 8.14804 23.1987 7.89184 26.922 9.49145C29.4492 10.5771 31.6047 12.4543 34.2192 13.3045C38.4387 14.6761 42.9804 13.1362 47.3733 13.6399C51.9475 14.1643 56.233 17.0728 58.354 21.0919C60.6667 25.4749 60.3652 30.7693 58.5484 35.2447C56.7316 39.7207 53.5465 43.5061 50.1846 47.0069C46.1787 51.1787 41.2833 55.2935 35.3241 55.3769C31.0104 55.4375 26.9418 53.3534 23.0976 51.3266C18.7143 49.0151 14.3306 46.7035 9.94733 44.3923Z" fill="url(#paint0_linear_95_735)"/>
    <path d="M31.0132 56.4051C28.8948 57.7059 26.7342 59.0247 24.3237 59.631C19.8201 60.7641 14.9145 59.1921 11.3337 56.235C7.75255 53.2782 5.37143 49.0839 3.80723 44.7114C2.40712 40.7985 1.59952 36.5963 2.12782 32.474C2.65612 28.352 4.63403 24.3128 7.98325 21.8522C10.2564 20.1827 13.0587 19.2842 15.1629 17.4055C18.558 14.3731 19.4745 9.44111 22.1703 5.77299C24.9768 1.95397 29.8008 -0.287637 34.5298 0.0297646C39.6865 0.376266 44.3389 3.57488 47.4757 7.6828C50.6128 11.7904 52.4255 16.7452 53.8904 21.7019C55.6358 27.6083 56.8763 34.2818 53.9153 39.6821C51.7721 43.5906 47.8072 46.0935 44.0083 48.426C39.6766 51.0855 35.3449 53.7456 31.0132 56.4051Z" fill="url(#paint1_linear_95_735)"/>
    <path d="M13.2002 38.5022C13.2002 33.1742 13.2002 27.8462 13.2002 22.5184C13.256 22.201 13.2968 21.8806 13.3703 21.5674C14.2139 17.9737 16.4105 15.6652 19.9658 14.6653C20.4065 14.5414 20.8667 14.4871 21.3179 14.4004C26.646 14.4004 31.974 14.4004 37.302 14.4004C37.6206 14.4568 37.941 14.5054 38.2578 14.5705C42.4557 15.4348 45.4086 19.0333 45.4164 23.3164C45.4248 28.1087 45.4239 32.9012 45.4113 37.6937C45.4095 38.2769 45.3612 38.8703 45.2466 39.4415C44.4021 43.6538 40.788 46.6106 36.4881 46.6172C31.7064 46.6241 26.9244 46.6244 22.1423 46.6112C21.5489 46.6097 20.9402 46.5731 20.3642 46.4405C16.7681 45.6116 14.4608 43.4072 13.4639 39.8498C13.3409 39.4106 13.2863 38.9519 13.2002 38.5022ZM37.9491 23.9713C36.7914 23.9653 35.8461 23.0101 35.8605 21.8605C35.8743 20.7247 36.8217 19.7854 37.9572 19.7806C39.0993 19.7761 40.0653 20.7415 40.0632 21.8848C40.0611 23.0362 39.1071 23.9776 37.9491 23.9713ZM37.6137 30.5162C37.6101 35.0849 33.8802 38.8127 29.3121 38.8142C24.7313 38.8154 20.9936 35.0687 21.0062 30.4889C21.0188 25.9198 24.7559 22.1986 29.3238 22.2064C33.8922 22.2145 37.6176 25.9486 37.6137 30.5162ZM29.31 35.9378C32.3199 35.9378 34.7439 33.5105 34.7373 30.5027C34.731 27.5012 32.3289 25.096 29.3259 25.0831C26.319 25.0699 23.8892 27.4894 23.8826 30.5024C23.876 33.5114 26.2986 35.9375 29.31 35.9378ZM29.298 43.7336C29.298 43.7384 29.298 43.7435 29.298 43.7486C31.6368 43.7486 33.9756 43.7468 36.3144 43.7495C37.0419 43.7504 37.7532 43.6697 38.448 43.4378C40.7625 42.6653 42.5742 40.4195 42.5562 37.5701C42.5265 32.8613 42.5475 28.1522 42.5487 23.4427C42.549 22.7365 42.462 22.0465 42.2373 21.3724C41.4639 19.0519 39.2103 17.2459 36.3696 17.2642C31.6608 17.2942 26.9514 17.2729 22.2422 17.2717C21.536 17.2714 20.846 17.3593 20.1719 17.5828C17.8718 18.3463 16.0454 20.5912 16.0637 23.4505C16.0937 28.1594 16.0733 32.8688 16.0703 37.5776C16.0697 38.3822 16.1936 39.1595 16.4753 39.9146C17.2805 42.0725 19.4831 43.6934 21.7784 43.7255C24.2846 43.7609 26.7915 43.7336 29.298 43.7336Z" fill="white"/>
    <defs>
        <linearGradient id="paint0_linear_95_735" x1="43.2267" y1="63.6623" x2="16.1283" y2="-1.43279" gradientUnits="userSpaceOnUse">
            <stop stop-color="#645CA3"/>
            <stop offset="0.634809" stop-color="#C26E5E"/>
            <stop offset="1" stop-color="#F3AC08"/>
        </linearGradient>
        <linearGradient id="paint1_linear_95_735" x1="6.77424" y1="52.0575" x2="51.9646" y2="6.86739" gradientUnits="userSpaceOnUse">
            <stop stop-color="#5860A7"/>
            <stop offset="0.129412" stop-color="#76579F"/>
            <stop offset="0.380392" stop-color="#98559C"/>
            <stop offset="0.690196" stop-color="#F18A19"/>
            <stop offset="1" stop-color="#F4BD00"/>
        </linearGradient>
    </defs>
</svg>