<svg xmlns="http://www.w3.org/2000/svg" width="120" height="120" viewBox="0 0 60 60" fill="none">
    <path d="M9.9473 15.9339C7.8038 17.0643 5.624 18.2208 3.9071 19.9125C0.6998 23.0739 -0.4723 27.8202 0.1688 32.1255C0.8102 36.4302 3.0794 40.3275 5.9081 43.6386C8.4392 46.602 11.5079 49.2147 15.1844 50.6964C18.8603 52.1781 23.1986 52.4343 26.9219 50.8347C29.4491 49.749 31.6046 47.8719 34.2191 47.0217C38.4386 45.6501 42.9803 47.19 47.3732 46.6863C51.9473 46.1619 56.2328 43.2534 58.3538 39.2343C60.6665 34.8513 60.365 29.5569 58.5482 25.0815C56.7314 20.6055 53.5463 16.8201 50.1845 13.3194C46.1786 9.14763 41.2832 5.03283 35.324 4.94943C31.0103 4.88883 26.9417 6.97293 23.0975 8.99973C18.7142 11.3112 14.3306 13.6227 9.9473 15.9339Z" fill="#5DBE28"/>
    <path d="M2.1095 14.3875C2.41127 17.3677 3.87483 20.1592 5.3173 22.8853C8.93233 29.7148 12.5471 36.5443 16.1618 43.374C17.5804 46.0544 19.0394 48.7872 21.3923 50.9349C24.6423 53.902 29.5277 55.5021 34.2669 55.1522C39.0061 54.802 43.4977 52.5094 46.1032 49.1102C49.1177 45.1773 49.5131 40.2558 50.5761 35.6434C51.5444 31.4431 53.1385 27.3005 53.1724 23.0198C53.206 18.739 51.2882 14.1053 46.9152 12.0124C43.3974 10.329 39.0847 10.6084 35.0881 11.0693C31.0921 11.5301 26.9044 12.1083 23.1231 10.9123C20.5622 10.1026 18.4386 8.54951 16.1489 7.27892C13.8593 6.00807 11.1471 4.97718 8.46486 5.41481C6.26019 5.77463 4.3741 7.12617 3.30219 8.81037C2.23088 10.4948 1.91659 12.4775 2.1095 14.3875Z" fill="#52A823"/>
    <path d="M12 47.376C12.0801 47.0392 12.1262 46.8117 12.1888 46.5889C12.8968 44.0694 13.598 41.5483 14.3267 39.0348C14.4496 38.6111 14.3969 38.277 14.1899 37.8972C10.0821 30.3514 11.9113 20.8781 18.5878 15.4425C22.7831 12.0272 27.6104 10.7252 32.96 11.5964C40.3074 12.7927 46.1981 18.3956 47.6107 25.7086C48.8895 32.3271 47.0124 38.0455 42.0574 42.6404C38.3369 46.0906 33.8413 47.551 28.7971 47.2828C26.3225 47.1514 23.9695 46.4843 21.7728 45.3218C21.3721 45.1102 21.0087 45.0742 20.5749 45.1883C17.9305 45.884 15.2807 46.559 12.6323 47.2392C12.4577 47.284 12.2801 47.3157 12 47.376ZM24.0834 20.9438C25.0299 20.7473 25.4918 21.2021 25.7886 22.0341C26.1374 23.0119 26.5734 23.9605 27.0093 24.904C27.2556 25.4366 27.1866 25.8566 26.7818 26.2713C26.4195 26.6432 26.1025 27.0586 25.7538 27.4445C25.4941 27.7324 25.4595 28.0216 25.6539 28.3608C27.1157 30.909 29.2503 32.6575 31.9775 33.7095C32.3282 33.8446 32.5548 33.688 32.7549 33.4285C33.1752 32.884 33.6078 32.3485 34.0157 31.7948C34.3138 31.3903 34.6496 31.3086 35.1059 31.5255C36.2723 32.0797 37.445 32.6221 38.624 33.1489C39.0904 33.3572 39.199 33.6763 39.1297 34.1596C38.666 37.3908 35.7352 38.3594 33.4669 37.7825C30.2781 36.9716 27.5645 35.3307 25.2554 33.0177C23.7801 31.5401 22.4519 29.9376 21.5973 28.0033C21.0457 26.7551 20.7489 25.4586 21.0083 24.0843C21.2412 22.8488 21.9439 21.8982 22.9159 21.1638C23.2203 20.9339 23.6896 20.9222 24.0834 20.811C24.0834 20.8553 24.0834 20.8996 24.0834 20.9438ZM16.3684 43.0797C16.6224 43.0369 16.799 43.0198 16.9689 42.9766C18.3508 42.6256 19.7348 42.2818 21.1107 41.9079C21.4968 41.8028 21.8059 41.8399 22.1511 42.0507C24.7883 43.6592 27.6564 44.4564 30.7425 44.2465C36.3364 43.866 40.6033 41.2196 43.2051 36.2702C45.8768 31.1866 45.612 26.045 42.5173 21.1996C39.9656 17.204 36.2086 14.9253 31.4813 14.4726C26.3106 13.9775 21.9841 15.7931 18.5841 19.708C16.4973 22.1106 15.3595 24.9569 15.1066 28.1266C14.835 31.5343 15.6518 34.6869 17.5176 37.557C17.7084 37.8506 17.749 38.1171 17.6504 38.4528C17.2627 39.7726 16.8975 41.0988 16.5265 42.4233C16.4736 42.6121 16.4341 42.8043 16.3684 43.0797Z" fill="white"/>
</svg>