<svg xmlns="http://www.w3.org/2000/svg" width="30" height="30" viewBox="0 0 30 30" fill="none">
    <g clip-path="url(#clip0_77_6526)">
        <path fill-rule="evenodd" clip-rule="evenodd" d="M14.8302 8.95913C13.0246 8.95913 10.5568 6.13988 6.1816 8.74823C6.0271 8.84018 5.93245 8.92283 5.8063 9.01748C3.64705 10.6409 2.4082 13.3558 2.4082 16.1075C2.4082 18.0455 2.5921 19.703 3.14755 21.4027C4.16005 24.5006 4.90825 25.7786 6.8356 28.262C7.43305 29.0312 8.7943 30.3457 10.084 30.3457C12.0649 30.3457 13.1904 29.1736 14.8885 29.1736C15.7788 29.1736 15.8239 29.1241 16.731 29.3822C17.1333 29.4971 17.3265 29.5792 17.6836 29.7188C18.6564 30.0983 19.7067 30.454 20.7985 30.2789C21.0682 30.236 21.5328 30.0791 21.7638 29.9549C22.596 29.5082 22.9303 29.077 23.4582 28.486C24.5286 27.2873 26.7943 23.5946 26.9002 22.3184C26.0833 22.1279 24.7936 21.0212 24.1971 20.2759C23.208 19.0393 22.9914 17.8015 22.885 16.2614L23.032 14.6996C23.2075 13.9753 23.3583 13.5505 23.7024 12.9679C24.1798 12.158 24.9165 11.3878 25.7053 10.8692C25.8603 10.7675 25.9503 10.6862 26.08 10.5994C25.9624 10.1597 25.1563 9.43763 24.8053 9.12068C23.8423 8.25203 21.669 7.55273 20.2206 7.55273C19.6866 7.55273 19.174 7.64468 18.7114 7.74278C17.4447 8.01113 15.4104 8.95913 14.8302 8.95913Z" fill="white"/>
        <path fill-rule="evenodd" clip-rule="evenodd" d="M14.5957 6.55675V7.25965C16.06 7.25965 16.7788 7.171 17.9697 6.23875C18.2604 6.0115 18.5335 5.80045 18.765 5.51065C18.8989 5.34265 18.9909 5.2549 19.1164 5.1004C20.2096 3.75505 20.6895 2.53765 20.6895 0.345703C19.1953 0.345703 17.4357 1.3414 16.4554 2.32255C15.4284 3.35035 14.5957 5.0257 14.5957 6.55675Z" fill="white"/>
    </g>
    <defs>
        <clipPath id="clip0_77_6526">
            <rect width="30" height="30" fill="white"/>
        </clipPath>
    </defs>
</svg>