<svg width="1571" height="300" viewBox="0 0 1571 300" fill="none" xmlns="http://www.w3.org/2000/svg">
<mask id="mask0_202_5906" style="mask-type:alpha" maskUnits="userSpaceOnUse" x="0" y="0" width="1571" height="300">
<rect width="1571" height="300" rx="10" fill="#526172"/>
</mask>
<g mask="url(#mask0_202_5906)">
<path d="M173.286 167.96C151.03 155.672 128.396 143.1 110.569 124.71C77.2663 90.3432 65.0959 38.7475 71.7527 -8.05412C78.4126 -54.8493 101.975 -97.2157 131.346 -133.21C157.627 -165.424 189.491 -193.826 227.665 -209.933C265.833 -226.04 310.88 -228.825 349.54 -211.436C375.781 -199.634 398.162 -179.229 425.309 -169.986C469.122 -155.076 516.28 -171.816 561.893 -166.34C609.388 -160.64 653.886 -129.022 675.909 -85.3318C699.922 -37.6855 696.792 19.8684 677.927 68.5191C659.063 117.176 625.991 158.326 591.084 196.381C549.489 241.732 498.659 286.463 436.782 287.369C391.991 288.028 349.745 265.372 309.83 243.34C264.316 218.212 218.8 193.084 173.286 167.96Z" fill="#596C81"/>
<path d="M957.286 414.288C935.03 402 912.396 389.428 894.569 371.038C861.266 336.671 849.096 285.076 855.753 238.274C862.413 191.479 885.975 149.112 915.346 113.118C941.627 80.9042 973.491 52.5023 1011.67 36.3952C1049.83 20.2881 1094.88 17.503 1133.54 34.8918C1159.78 46.6941 1182.16 67.0995 1209.31 76.3418C1253.12 91.252 1300.28 74.5122 1345.89 79.9878C1393.39 85.6884 1437.89 117.306 1459.91 160.996C1483.92 208.643 1480.79 266.197 1461.93 314.847C1443.06 363.505 1409.99 404.655 1375.08 442.71C1333.49 488.06 1282.66 532.791 1220.78 533.697C1175.99 534.356 1133.75 511.701 1093.83 489.668C1048.32 464.54 1002.8 439.413 957.286 414.288Z" fill="#596C81"/>
<path d="M-36.1673 385.944C-31.7978 360.356 -17.5082 337.087 -3.43953 314.372C31.8172 257.466 67.0713 200.559 102.326 143.651C116.161 121.317 130.377 98.5527 151.965 81.378C181.783 57.6505 224.914 46.7111 265.628 52.5451C306.342 58.3814 343.768 80.8656 364.254 111.8C387.956 147.591 388.456 190.378 394.905 230.887C400.78 267.777 412.093 304.54 409.852 341.572C407.609 378.604 388.306 417.531 349.308 433.035C317.937 445.505 280.863 440.533 246.627 434.18C212.396 427.826 176.579 420.346 143.221 428.445C120.629 433.928 101.373 446.098 80.8506 455.727C60.328 465.358 36.2991 472.664 13.398 467.29C-5.42552 462.872 -20.9113 450.069 -29.17 434.872C-37.4233 419.673 -38.9636 402.344 -36.1673 385.944Z" fill="#607289"/>
</g>
</svg>
