<svg xmlns="http://www.w3.org/2000/svg" width="30" height="30" viewBox="0 0 30 30" fill="none">
    <path fill-rule="evenodd" clip-rule="evenodd" d="M12.6621 30L12.6625 19.4538L8.85928 19.452L8.85778 15.1089L12.6547 15.0905C12.7477 13.6205 12.5355 11.997 12.7453 10.5503C12.9157 9.37643 13.4202 8.17754 14.2155 7.39293C15.9213 5.70987 18.8062 5.68073 21.6693 6.20265L21.6742 9.90816C20.1483 9.96116 18.576 9.68306 17.7832 10.7468C17.4004 11.2606 17.3463 11.9181 17.3467 12.6788C17.3472 13.4544 17.3101 14.3236 17.3539 15.0876L21.4905 15.0914L20.8365 19.4507L17.3569 19.4537L17.3473 30C17.5254 29.9961 17.9568 29.904 18.1137 29.8679C20.9859 29.2077 23.5684 27.8276 25.6389 25.7525C25.7166 25.6747 25.7784 25.6216 25.8483 25.5373C27.1639 23.9533 27.1641 24.1037 28.2921 22.0814C28.3543 21.9698 28.3992 21.9189 28.4482 21.8127L29.1265 20.1764C29.8272 18.3392 29.9956 16.6564 30 14.7611C30.0037 13.0607 29.5494 11.0449 28.932 9.49449C28.3879 8.12848 27.2124 6.10089 26.2039 5.04663C25.8634 4.69049 25.1988 3.97456 24.8278 3.68696C23.4306 2.60387 22.8048 2.03318 20.959 1.23921C16.2694 -0.778264 10.9023 -0.310998 6.75313 2.4849C6.02458 2.97587 5.34328 3.4922 4.73848 4.10108C3.39418 5.45457 2.57038 6.36977 1.64683 8.23023C1.24933 9.031 0.879279 9.86846 0.622329 10.7957C-0.120921 13.4783 -0.224271 16.0327 0.452529 18.7554C0.585129 19.2891 0.703929 19.6475 0.865179 20.1385C1.38973 21.7354 2.74063 24.0906 3.89188 25.2321L4.31428 25.7061C5.00113 26.4285 6.55993 27.6161 7.35613 28.087C8.68933 28.8751 10.3 29.5427 11.8542 29.854C12.0888 29.9011 12.424 29.9952 12.6621 30Z" fill="white"/>
</svg>