<svg xmlns="http://www.w3.org/2000/svg" width="30" height="30" viewBox="0 0 30 30" fill="none">
    <path fill-rule="evenodd" clip-rule="evenodd" d="M21.3571 21.3582L25.5852 25.5862C26.0611 25.2175 26.8956 24.1128 27.2703 23.5915C28.1241 22.4038 28.6197 21.3282 29.1396 19.9627C29.4774 19.0758 29.8368 17.4753 29.9101 16.5619C29.9164 16.4839 29.9233 16.359 29.9374 16.2058C29.9503 16.0635 29.9463 15.9313 29.9875 15.8143C29.9899 15.8076 29.9947 15.7963 30.0001 15.7884V15.7704C29.9959 15.7624 29.9919 15.7404 29.9908 15.7449L29.971 15.6607C29.9521 15.4978 29.9713 14.1574 29.9284 13.6384C29.9115 13.434 29.8692 13.057 29.8347 12.8161C29.7963 12.5475 29.746 12.1927 29.6886 11.9922H15.0051L14.9961 17.9812L23.4634 17.9851C23.427 18.2169 23.1724 18.7467 23.0719 18.9532C22.7892 19.5343 22.4004 20.1184 22.0072 20.6233L21.3571 21.3582Z" fill="#4285F4"/>
    <path fill-rule="evenodd" clip-rule="evenodd" d="M4.39062 25.5889C4.48258 25.7427 4.80282 26.0068 4.98372 26.1703L5.36547 26.497C6.05022 27.046 6.81582 27.6313 7.59417 28.0462C7.80912 28.1608 7.98583 28.2591 8.21248 28.3722C8.44183 28.4868 8.65348 28.5775 8.87608 28.6869C9.26233 28.8763 9.81087 29.0853 10.2351 29.2186C11.9205 29.7486 13.1062 29.9733 14.9202 29.9733C16.975 29.9733 18.4263 29.715 20.4102 28.977C20.628 28.896 20.8987 28.7872 21.0993 28.6867C21.8545 28.3083 22.1854 28.1941 22.948 27.7029C23.614 27.2739 24.2542 26.8257 24.8461 26.2954C25.0528 26.1103 25.4901 25.7535 25.5847 25.5859L21.3567 21.3579L20.7669 21.8785C20.5654 22.0533 20.3593 22.2033 20.1373 22.3636C19.6914 22.6854 19.2279 22.9212 18.6924 23.1793C16.4928 24.24 13.5261 24.2547 11.3053 23.1909C10.3773 22.7463 9.66178 22.3098 8.91568 21.6319C8.80708 21.5334 8.73702 21.4285 8.61672 21.3535L7.34368 22.6242C7.32343 22.6443 7.29688 22.6665 7.27288 22.6882C7.21767 22.738 7.18588 22.768 7.13608 22.8214L7.04007 22.9278C6.85107 23.1166 6.68427 23.2429 6.49722 23.4645L4.52622 25.4397C4.52127 25.4445 4.51362 25.4508 4.50852 25.4554C4.43082 25.5285 4.44823 25.498 4.39062 25.5889Z" fill="#34A853"/>
    <path fill-rule="evenodd" clip-rule="evenodd" d="M4.39095 25.5889C4.44855 25.498 4.43115 25.5285 4.50885 25.4554C4.51395 25.4508 4.5216 25.4445 4.52655 25.4397L6.49755 23.4645C6.6846 23.2429 6.8514 23.1166 7.0404 22.9278L7.1364 22.8214C7.1862 22.768 7.218 22.738 7.2732 22.6882C7.2972 22.6665 7.32375 22.6443 7.344 22.6242L8.61705 21.3535L8.094 20.7669C6.7722 19.1115 5.9907 17.2804 5.9907 14.9863C5.9907 13.6702 6.30015 12.2749 6.7845 11.305C7.25265 10.3675 7.64085 9.67512 8.34405 8.91507C8.4405 8.81082 8.55165 8.73462 8.61705 8.61987L4.386 4.38867C4.0641 4.57227 2.86515 6.14217 2.64315 6.45237C1.5861 7.92987 0.7014 10.0032 0.33285 11.7706C0.09375 12.9169 0 13.7062 0 14.8852C0 17.0458 0.3771 19.1212 1.2666 21.0517C1.8273 22.2687 2.27565 23.0481 3.027 24.046C3.2445 24.3349 4.14795 25.4415 4.39095 25.5889Z" fill="#FBBC05"/>
    <path fill-rule="evenodd" clip-rule="evenodd" d="M4.38672 4.38815L8.61777 8.61935C8.80932 8.49065 9.09837 8.1635 9.23682 8.0528C11.8735 5.94215 15.3958 5.363 18.4683 6.68285C18.7561 6.80645 19.0137 6.94295 19.2633 7.06865C19.9467 7.41305 20.4654 7.8389 21.0432 8.32446C21.1485 8.41296 21.2371 8.55261 21.3646 8.60886L25.5814 4.4024C25.5114 4.2194 25.2781 4.0574 25.1262 3.9377L23.5563 2.6738C22.9144 2.1929 21.8848 1.6652 21.1662 1.31765C17.044 -0.675847 11.4924 -0.359946 7.58127 1.94435C6.92697 2.32985 6.46407 2.6162 5.89542 3.0581C5.63577 3.26 4.53777 4.14365 4.38672 4.38815Z" fill="#EA4335"/>
</svg>