<svg xmlns="http://www.w3.org/2000/svg" width="1564" height="1007" viewBox="0 0 1564 1007" fill="none">
    <path fill-rule="evenodd" clip-rule="evenodd" d="M0 138.224C0 181.958 18.1346 179.666 26.7991 209.746C41.5086 260.816 26.6975 256.868 85.0894 287.376C120.498 305.871 104.436 313.781 126.356 337.521C133.527 345.284 152.865 348.843 152.865 357.904C152.865 369.047 144.287 384.247 139.149 391.015L114.626 415.726C111.951 418.205 111.021 419.029 108.487 421.306C102.231 426.924 107.236 420.544 102.731 427.266C98.6571 433.343 98.837 438.93 95.0599 445.356L89.7736 451.86C78.5128 461.24 59.604 446.592 32.3435 462.499C5.65386 478.079 25.8764 487.622 25.8764 505.145C25.8764 517.454 15.3819 539.227 16.641 554.015C18.0642 570.831 42.3375 584.383 42.3375 589.279C42.3375 593.459 34.7364 627.185 33.321 629.399L0 647.7C0.36754 664.189 20.246 681.262 29.7473 695.264C32.7032 699.601 30.8577 697.689 34.6973 702.041L57.3988 723.877C68.2764 731.663 84.7219 738.68 97.1948 742.767C140.408 756.895 112.827 767.432 140.267 819.146L149.698 830.818C166.175 846.235 152.381 853.478 147.235 871.141C144.67 879.953 142.754 891.5 143.395 902.402C144.091 914.128 147.235 920.019 145.483 934.814C142.527 959.898 134.66 974.453 164.869 979.333C172.619 980.592 187.75 983.374 193.482 983.661C216.223 984.773 211.101 958.538 232.841 958.538C245.321 958.538 240.934 965.12 252.289 961.686C263.745 958.228 256.84 956.984 274.74 955.687C293.578 954.319 304.112 967.887 324.162 958.173C340.381 950.317 359.313 948.934 374.453 940.23C396.748 927.416 406.343 951.856 421.936 919.739C430.514 902.084 434.237 909.458 460.966 909.458C466.619 909.458 467.886 905.674 472.727 902.449C489.907 913.88 490.517 920.757 513.406 912.481C548.534 899.791 535.256 903.28 549.871 930.952C560.428 950.946 578.101 943.082 591.99 959.214C596.306 964.234 596.901 970.218 604.431 970.218C623.551 970.218 604.298 940.339 650.663 964.009C664.419 971.034 682.882 973.924 695.167 982.892C714.365 996.903 716.461 1015.29 747.866 1002.92C753.48 1000.7 752.495 1000.17 759.807 998.418C766.399 996.817 768.37 996.965 775.204 995.022C783.361 992.706 797.765 984.244 801.988 984.244C814.914 984.244 821.647 987.593 833.612 985.449C845.897 983.242 853.709 977.235 863.14 977.235C872.11 977.235 874.378 984.244 884.309 984.244C890.87 984.244 940.629 970.987 947.573 960.644C959.796 942.445 954.595 908.487 947.557 891.01C941.403 875.71 929.798 871.513 926.639 858.039C955.135 825.472 969.75 851.03 987.791 851.03C1002.22 851.03 987.924 833.258 1001.33 822.418C1011.54 814.165 1021.21 818.47 1036.73 815.517C1065.32 810.093 1039.17 769.382 1072.41 766.849C1144.45 761.37 1129.31 766.134 1167.14 734.616C1182.2 722.074 1192.71 746.272 1211.44 729.728L1225.33 722.493C1237.26 730.427 1246.44 744.632 1256.49 754.625C1266.46 764.541 1283.36 783.261 1298.24 783.261C1305.34 783.261 1307.9 775.902 1312.32 771.542C1333.87 750.274 1336.59 771.574 1364.09 771.574C1369.34 749.178 1388.28 764.557 1406.43 764.557C1409.27 764.557 1418.18 756.242 1418.18 752.869C1418.18 735.517 1404.03 720.504 1392.68 710.449C1392.17 709.99 1390.68 708.716 1390.18 708.257C1387.84 706.058 1389.98 708.413 1386.67 704.729L1361.04 674.066C1347.68 660.723 1355.47 659.729 1359.39 643.029C1330.21 623.618 1346.31 633.798 1340.87 616.78C1339.09 611.239 1315.33 595.713 1310 596.288L1281.83 599.078C1281.7 561.506 1309.6 574.289 1320.76 564.917C1325.73 560.737 1323.71 554.163 1325.8 546.555C1328.56 536.531 1328.75 541.659 1337 536.655C1346.38 530.959 1343.47 520.002 1355.43 517.803C1362.88 516.436 1372.38 519.808 1385.26 516.832C1392.26 502.324 1387.89 505.471 1387.47 488.803C1387.16 476.23 1389.96 470.883 1389.96 456.064C1389.96 430.382 1385.63 411.825 1393.06 386.702C1397.47 371.845 1401.38 363.507 1394.67 350.895C1401.23 347.763 1406.81 347.639 1412.89 343.295C1430.2 330.924 1427.86 301.713 1442.03 288.122C1450.25 280.243 1450.67 284.33 1463.81 281.711C1518.1 270.887 1497.11 284.711 1526.37 292.466C1535.95 286.094 1564 254.141 1564 234.038C1564 221.737 1557.16 215.1 1556.85 201.416C1556.49 185.229 1557.81 177.637 1554.59 163.93C1517.62 155.366 1492.6 167.287 1445.99 145.653C1433.03 139.638 1414.03 132.738 1408 120.297C1401.23 106.333 1399.94 77.4565 1382.9 77.4565C1373.27 77.4565 1354.61 88.7552 1341.77 90.0529C1339.01 90.3327 1336.69 90.7834 1332.5 87.9859C1331.54 87.3409 1328.98 84.6833 1328.85 84.5357C1318.42 71.8771 1323.73 65.777 1302.94 65.777C1262.36 65.777 1278.25 79.1272 1235.08 46.7309C1230.03 42.9465 1227.05 40.2034 1221.38 36.9785C1198.14 23.776 1181.46 16.6968 1152.43 16.6968C1133.85 16.6968 1122.34 25.0659 1106.62 31.9431C1098.34 35.5642 1091.81 35.6342 1082.72 38.5793C1044.1 51.098 993.992 46.4589 956.98 67.8751L859.379 157.853C850.112 166.556 816.564 177.956 816.103 177.956C805.147 177.956 754.763 157.783 737.129 151.256C727.948 147.852 724.633 141.659 716.468 136.74C700.914 127.376 708.031 105.812 683.452 99.4323C663.871 94.3579 635.492 98.492 616.193 98.492C583.255 98.492 572.369 89.3847 549.785 111.967C543.56 118.183 539.94 119.201 534.372 124.687C517.16 141.604 532.917 154.581 446.858 154.581C423.985 154.581 401.08 145.319 382.468 139.102C364.404 133.056 343.564 127.741 324.178 127.438C312.659 127.259 326.579 128.876 315.146 128.876C311.971 128.876 287.76 116.917 279.956 114.772C237.877 103.186 196.884 128.876 145.812 128.876C116.604 128.876 130.359 85.4293 147.251 76.5473C163.845 67.813 174.034 74.8144 174.034 49.4118C174.034 37.9965 150.527 35.7507 132.666 25.0815C91.6269 0.549104 94.9739 -10.8895 74.5559 13.6584C70.2862 18.7871 63.5219 22.9056 61.2697 28.2519C54.7635 43.7158 67.3615 43.6459 44.3863 56.1257L20.027 69.3205C10.166 73.4468 9.08684 77.2622 7.60886 87.3565C5.03608 104.934 0 121.664 0 138.224Z" fill="#526172" fill-opacity="0.1"/>
</svg>