<svg width="14" height="21" viewBox="0 0 14 21" fill="none" xmlns="http://www.w3.org/2000/svg">
<path fill-rule="evenodd" clip-rule="evenodd" d="M1 6.91454C1 3.49255 3.65697 1 7 1C10.343 1 13 3.49255 13 6.91454C13 7.51433 12.7831 8.39106 12.3565 9.48538C11.9388 10.5566 11.3562 11.7477 10.7059 12.9451C9.42225 15.3088 7.91319 17.6279 7 18.9811C6.08681 17.6279 4.57775 15.3088 3.29411 12.9451C2.64382 11.7477 2.06116 10.5566 1.64352 9.48538C1.21688 8.39106 1 7.51433 1 6.91454ZM7 0C3.13401 0 0 2.91138 0 6.91454C0 10.0783 4.3723 16.8791 6.20582 19.5919C6.59064 20.1613 7.40937 20.1613 7.79418 19.5919C9.6277 16.8791 14 10.0783 14 6.91454C14 2.91138 10.866 0 7 0ZM7.00033 9.01653C8.28899 9.01653 9.33366 8.00733 9.33366 6.76242C9.33366 5.5175 8.28899 4.5083 7.00033 4.5083C5.71166 4.5083 4.66699 5.5175 4.66699 6.76242C4.66699 8.00733 5.71166 9.01653 7.00033 9.01653Z" fill="#526172"/>
</svg>
