<svg xmlns="http://www.w3.org/2000/svg" width="16" height="12" viewBox="0 0 16 12" fill="none">
    <path fill-rule="evenodd" clip-rule="evenodd" d="M11.4834 1.45406C11.431 1.36865 11.3821 1.16722 11.344 1.04809C11.2922 0.886049 11.2548 0.769807 11.2045 0.611895C11.1453 0.426135 11.0361 0 10.5927 0H5.48062C5.05766 0 4.93943 0.389313 4.87644 0.587708L4.58986 1.45406H2.57274C1.15775 1.45406 0 2.56305 0 3.91845V9.53556C0 10.891 1.15775 12 2.57274 12H13.4273C14.8423 12 16 10.891 16 9.53556V3.91845C16 2.56305 14.8423 1.45406 13.4273 1.45406H11.4834ZM8.05018 3.54028C8.99903 3.54028 9.85819 3.90875 10.4801 4.50445C11.102 5.10016 11.4866 5.92313 11.4866 6.83203C11.4866 7.74092 11.102 8.5639 10.4801 9.1596C9.85819 9.7553 8.99903 10.1238 8.05018 10.1238C7.10132 10.1238 6.24217 9.7553 5.62028 9.1596C4.99838 8.5639 4.61371 7.74092 4.61371 6.83203C4.61371 5.92313 4.99838 5.10016 5.62028 4.50445C6.24217 3.90875 7.10132 3.54028 8.05018 3.54028ZM9.77845 5.17653C9.33617 4.75293 8.7251 4.49084 8.05018 4.49084C7.3752 4.49084 6.76413 4.75293 6.3219 5.17653C5.87967 5.60014 5.60606 6.18553 5.60606 6.83203C5.60606 7.47858 5.87967 8.06392 6.3219 8.48752C6.76413 8.91113 7.3752 9.17321 8.05018 9.17321C8.7251 9.17321 9.33617 8.91113 9.77845 8.48752C10.2207 8.06386 10.4943 7.47858 10.4943 6.83203C10.4943 6.18553 10.2207 5.60019 9.77845 5.17653Z" fill="white"/>
</svg>