<svg width="46" height="60" viewBox="0 0 46 60" fill="none" xmlns="http://www.w3.org/2000/svg">
<path fill-rule="evenodd" clip-rule="evenodd" d="M2.29677 13.9166C3.56219 13.9166 4.58782 14.9396 4.58782 16.2019C4.58782 17.4641 3.56219 18.4871 2.29677 18.4871C1.03173 18.4871 0.00572622 17.4641 0.00572622 16.2019C0.00572622 14.9396 1.03173 13.9166 2.29677 13.9166ZM29.9734 0.00152326C31.2388 0.00152326 32.2644 1.02495 32.2644 2.2868C32.2644 3.54866 31.2388 4.57208 29.9734 4.57208C28.7083 4.57208 27.6823 3.54866 27.6823 2.2868C27.6823 1.02495 28.7083 0.00152326 29.9734 0.00152326ZM43.7013 0.00761748C44.9667 0.00761748 45.9924 1.03104 45.9924 2.2929C45.9924 3.55475 44.9667 4.57818 43.7013 4.57818C42.4363 4.57818 41.4103 3.55475 41.4103 2.2929C41.4103 1.03104 42.4363 0.00761748 43.7013 0.00761748ZM16.1164 0C17.3818 0 18.4074 1.02342 18.4074 2.28528C18.4074 3.54713 17.3818 4.57056 16.1164 4.57056C14.8513 4.57056 13.8253 3.54713 13.8253 2.28528C13.8253 1.02342 14.8513 0 16.1164 0ZM2.29105 0C3.55647 0 4.58209 1.02342 4.58209 2.28528C4.58209 3.54713 3.55647 4.57056 2.29105 4.57056C1.02601 4.57056 0 3.54713 0 2.28528C0 1.02342 1.02601 0 2.29105 0ZM29.9764 55.4233C31.2418 55.4233 32.2675 56.4468 32.2675 57.7086C32.2675 58.9705 31.2418 59.9939 29.9764 59.9939C28.7114 59.9939 27.6854 58.9705 27.6854 57.7086C27.6854 56.4468 28.7114 55.4233 29.9764 55.4233ZM43.7044 55.4294C44.9698 55.4294 45.9954 56.4529 45.9954 57.7147C45.9954 58.9766 44.9698 60 43.7044 60C42.4393 60 41.4133 58.9766 41.4133 57.7147C41.4133 56.4529 42.4393 55.4294 43.7044 55.4294ZM16.1194 55.4218C17.3848 55.4218 18.4105 56.4452 18.4105 57.7071C18.4105 58.969 17.3848 59.9924 16.1194 59.9924C14.8544 59.9924 13.8284 58.969 13.8284 57.7071C13.8284 56.4452 14.8544 55.4218 16.1194 55.4218ZM2.2941 55.4218C3.55952 55.4218 4.58514 56.4452 4.58514 57.7071C4.58514 58.969 3.55952 59.9924 2.2941 59.9924C1.02906 59.9924 0.00305305 58.969 0.00305305 57.7071C0.00305305 56.4452 1.02906 55.4218 2.2941 55.4218ZM29.9772 41.5974C31.2426 41.5974 32.2682 42.6208 32.2682 43.8827C32.2682 45.1445 31.2426 46.168 29.9772 46.168C28.7122 46.168 27.6861 45.1445 27.6861 43.8827C27.6861 42.6208 28.7122 41.5974 29.9772 41.5974ZM43.7051 41.6035C44.9706 41.6035 45.9962 42.6269 45.9962 43.8888C45.9962 45.1506 44.9706 46.1741 43.7051 46.1741C42.4401 46.1741 41.4141 45.1506 41.4141 43.8888C41.4141 42.6269 42.4401 41.6035 43.7051 41.6035ZM16.1202 41.5959C17.3856 41.5959 18.4112 42.6193 18.4112 43.8812C18.4112 45.143 17.3856 46.1664 16.1202 46.1664C14.8551 46.1664 13.8291 45.143 13.8291 43.8812C13.8291 42.6193 14.8551 41.5959 16.1202 41.5959ZM2.29486 41.5959C3.56028 41.5959 4.58591 42.6193 4.58591 43.8812C4.58591 45.143 3.56028 46.1664 2.29486 46.1664C1.02982 46.1664 0.00381748 45.143 0.00381748 43.8812C0.00381748 42.6193 1.02982 41.5959 2.29486 41.5959ZM29.981 27.8362C31.2464 27.8362 32.2721 28.8596 32.2721 30.1215C32.2721 31.3834 31.2464 32.4068 29.981 32.4068C28.716 32.4068 27.69 31.3834 27.69 30.1215C27.69 28.8596 28.716 27.8362 29.981 27.8362ZM43.709 27.8423C44.9744 27.8423 46 28.8657 46 30.1276C46 31.3894 44.9744 32.4129 43.709 32.4129C42.4439 32.4129 41.4179 31.3894 41.4179 30.1276C41.4179 28.8657 42.4439 27.8423 43.709 27.8423ZM16.124 27.8347C17.3894 27.8347 18.415 28.8581 18.415 30.12C18.415 31.3818 17.3894 32.4053 16.124 32.4053C14.859 32.4053 13.833 31.3818 13.833 30.12C13.833 28.8581 14.859 27.8347 16.124 27.8347ZM2.29868 27.8347C3.5641 27.8347 4.58973 28.8581 4.58973 30.12C4.58973 31.3818 3.5641 32.4053 2.29868 32.4053C1.03364 32.4053 0.00763729 31.3818 0.00763729 30.12C0.00763729 28.8581 1.03364 27.8347 2.29868 27.8347ZM29.9791 13.9181C31.2445 13.9181 32.2701 14.9415 32.2701 16.2034C32.2701 17.4652 31.2445 18.4887 29.9791 18.4887C28.7141 18.4887 27.6881 17.4652 27.6881 16.2034C27.6881 14.9415 28.7141 13.9181 29.9791 13.9181ZM43.707 13.9242C44.9725 13.9242 45.9981 14.9476 45.9981 16.2095C45.9981 17.4713 44.9725 18.4948 43.707 18.4948C42.442 18.4948 41.416 17.4713 41.416 16.2095C41.416 14.9476 42.442 13.9242 43.707 13.9242ZM16.1221 13.9166C17.3875 13.9166 18.4131 14.94 18.4131 16.2019C18.4131 17.4637 17.3875 18.4871 16.1221 18.4871C14.8571 18.4871 13.831 17.4637 13.831 16.2019C13.831 14.94 14.8571 13.9166 16.1221 13.9166Z" fill="white" fill-opacity="0.5"/>
</svg>
