<?xml version="1.0" encoding="UTF-8"?>
<!DOCTYPE svg PUBLIC "-//W3C//DTD SVG 1.1//EN" "http://www.w3.org/Graphics/SVG/1.1/DTD/svg11.dtd">
<!-- Creator: CorelDRAW 2021 (64-Bit) -->
<svg xmlns="http://www.w3.org/2000/svg" xml:space="preserve" width="208.721mm" height="48.1537mm" version="1.1" style="shape-rendering:geometricPrecision; text-rendering:geometricPrecision; image-rendering:optimizeQuality; fill-rule:evenodd; clip-rule:evenodd"
viewBox="0 0 2399.61 553.61"
 xmlns:xlink="http://www.w3.org/1999/xlink"
 xmlns:xodm="http://www.corel.com/coreldraw/odm/2003">
 <defs>
  <style type="text/css">
   <![CDATA[
    .fil1 {fill:#52A823}
    .fil0 {fill:#FEFEFE;fill-rule:nonzero}
   ]]>
  </style>
 </defs>
 <g id="Слой_x0020_1">
  <metadata id="CorelCorpID_0Corel-Layer"/>
  <path class="fil0" d="M713.97 117.52c23.47,0 44.47,3.69 63.02,11.07 18.55,7.38 34.35,18.07 47.41,32.08 13.06,14 23.09,30.56 30.09,49.68 7,19.11 10.5,40.21 10.5,63.3 0,29.14 -5.96,54.79 -17.88,76.93 -11.92,22.14 -28.39,39.36 -49.39,51.66 -21.01,12.3 -45.33,18.45 -72.96,18.45 -13.63,0 -26.5,-2.08 -38.61,-6.25 -12.11,-4.16 -23.09,-10.03 -32.93,-17.6 -9.84,-7.57 -17.79,-16.46 -23.85,-26.68l-0.57 0 0 168.62 -65.29 0 0 -266.27c0,-32.17 6.34,-59.8 19.02,-82.89 12.68,-23.09 30.37,-40.88 53.08,-53.37 22.71,-12.49 48.83,-18.74 78.35,-18.74zm0 55.64c-16.27,0 -30.85,4.07 -43.72,12.21 -12.87,8.14 -22.9,19.4 -30.09,33.78 -7.19,14.38 -10.79,31.04 -10.79,49.96 0,18.55 3.6,35.11 10.79,49.68 7.19,14.57 17.22,25.93 30.09,34.06 12.87,8.14 27.63,12.21 44.28,12.21 16.65,0 31.32,-4.16 44,-12.49 12.68,-8.33 22.62,-19.68 29.81,-34.06 7.19,-14.38 10.79,-30.85 10.79,-49.39 0,-18.92 -3.6,-35.58 -10.79,-49.96 -7.19,-14.38 -17.22,-25.64 -30.09,-33.78 -12.87,-8.14 -27.63,-12.21 -44.28,-12.21zm210.63 240.72l0 -207.23c0,-25.74 7.29,-45.89 21.86,-60.47 14.57,-14.57 34.73,-21.86 60.46,-21.86l69.83 0 0 55.64 -57.91 0c-9.08,0 -16.18,2.65 -21.29,7.95 -5.11,5.3 -7.66,12.49 -7.66,21.57l0 204.39 -65.29 0zm197.58 0l0 -289.55 65.29 0 0 289.55 -65.29 0zm32.36 -329.86c-11.36,0 -21.2,-4.16 -29.52,-12.49 -8.33,-8.33 -12.49,-18.17 -12.49,-29.52 0,-11.36 4.16,-21.2 12.49,-29.52 8.33,-8.33 18.17,-12.49 29.52,-12.49 11.73,0 21.67,4.16 29.81,12.49 8.14,8.33 12.21,18.17 12.21,29.52 0,11.35 -4.07,21.2 -12.21,29.52 -8.14,8.33 -18.07,12.49 -29.81,12.49zm213.47 336.67c-18.92,0 -36.15,-3.69 -51.67,-11.07 -15.52,-7.38 -27.82,-18.74 -36.9,-34.06 -9.08,-15.33 -13.63,-34.92 -13.63,-58.76l0 -192.47 65.29 0 0 202.68c0,7.57 1.7,14.29 5.11,20.16 3.41,5.87 7.85,10.31 13.34,13.34 5.49,3.03 11.64,4.54 18.45,4.54 6.43,0 12.49,-1.51 18.17,-4.54 5.68,-3.03 10.22,-7.48 13.63,-13.34 3.41,-5.87 5.11,-12.59 5.11,-20.16l0 -106.74c0,-22.33 4.26,-41.16 12.77,-56.49 8.52,-15.33 20.44,-26.87 35.77,-34.63 15.33,-7.76 32.83,-11.64 52.52,-11.64 20.06,0 37.66,3.88 52.8,11.64 15.14,7.76 27.06,19.3 35.77,34.63 8.71,15.33 13.06,34.16 13.06,56.49l0 106.74c0,7.57 1.7,14.29 5.11,20.16 3.41,5.87 7.95,10.31 13.63,13.34 5.68,3.03 11.92,4.54 18.74,4.54 6.43,0 12.4,-1.51 17.88,-4.54 5.49,-3.03 9.94,-7.48 13.34,-13.34 3.41,-5.87 5.11,-12.59 5.11,-20.16l0 -202.68 65.29 0 0 192.47c0,23.85 -4.54,43.43 -13.63,58.76 -9.08,15.33 -21.39,26.68 -36.9,34.06 -15.52,7.38 -32.55,11.07 -51.1,11.07 -18.55,0 -35.58,-3.69 -51.1,-11.07 -15.52,-7.38 -28.01,-18.74 -37.47,-34.06 -9.46,-15.33 -14.19,-34.92 -14.19,-58.76l0 -105.6c0,-8.33 -1.61,-15.23 -4.83,-20.72 -3.22,-5.49 -7.57,-9.75 -13.06,-12.77 -5.49,-3.03 -11.64,-4.54 -18.45,-4.54 -6.06,0 -11.92,1.51 -17.6,4.54 -5.68,3.03 -10.22,7.29 -13.63,12.77 -3.41,5.49 -5.11,12.4 -5.11,20.72l0 105.6c0,23.85 -4.64,43.43 -13.91,58.76 -9.27,15.33 -21.57,26.68 -36.9,34.06 -15.33,7.38 -32.27,11.07 -50.81,11.07zm595 0.57c-29.9,-0.38 -56.4,-7.29 -79.48,-20.72 -23.09,-13.44 -41.35,-31.6 -54.79,-54.5 -13.44,-22.9 -20.15,-48.54 -20.15,-76.93 0,-28.39 6.72,-54.03 20.15,-76.93 13.44,-22.9 31.7,-41.07 54.79,-54.5 23.09,-13.44 49.58,-20.34 79.48,-20.72 29.52,0.38 55.83,7.29 78.92,20.72 23.09,13.44 41.35,31.51 54.79,54.22 13.44,22.71 20.15,48.45 20.15,77.21 0,28.39 -6.72,54.03 -20.15,76.93 -13.44,22.9 -31.7,41.07 -54.79,54.5 -23.09,13.44 -49.39,20.34 -78.92,20.72zm0 -56.21c17.79,0 33.31,-4.26 46.56,-12.77 13.25,-8.52 23.47,-19.97 30.66,-34.35 7.19,-14.38 10.79,-30.66 10.79,-48.83 0,-17.79 -3.6,-33.97 -10.79,-48.54 -7.19,-14.57 -17.41,-26.12 -30.66,-34.63 -13.25,-8.52 -28.77,-12.78 -46.56,-12.78 -18.17,0 -33.78,4.26 -46.84,12.78 -13.06,8.52 -23.28,19.97 -30.66,34.35 -7.38,14.38 -11.07,30.66 -11.07,48.83 0,17.79 3.69,33.97 11.07,48.54 7.38,14.57 17.6,26.12 30.66,34.63 13.06,8.52 28.67,12.77 46.84,12.77zm262.87 48.83c-12.49,0 -23.66,-3.03 -33.5,-9.08 -9.84,-6.06 -17.7,-14.19 -23.56,-24.41 -5.87,-10.22 -8.8,-21.39 -8.8,-33.5 0,-12.11 3.03,-23.09 9.08,-32.93 6.06,-9.84 14.38,-18.36 24.98,-25.55l126.04 -82.32c3.78,-1.89 6.15,-3.97 7.1,-6.25 0.95,-2.27 1.42,-4.54 1.42,-6.81 0,-3.41 -1.23,-6.43 -3.69,-9.08 -2.46,-2.65 -5.77,-3.97 -9.94,-3.97l-140.8 0 0 -55.64 160.1 0c12.49,0 23.56,3.03 33.21,9.08 9.65,6.06 17.41,14.19 23.28,24.41 5.87,10.22 8.8,21.39 8.8,33.5 0,12.11 -3.03,23.09 -9.08,32.93 -6.06,9.84 -14.38,18.36 -24.98,25.55l-125.47 82.32c-3.41,1.89 -5.77,3.97 -7.1,6.25 -1.33,2.27 -1.99,4.54 -1.99,6.81 0,3.41 1.33,6.43 3.97,9.08 2.65,2.65 6.06,3.97 10.22,3.97l148.75 0 0 55.64 -168.05 0z"/>
  <path class="fil0" d="M1129.67 537.35l0 -6.85 16.26 0c3.14,0 5.57,-0.89 7.29,-2.67 1.73,-1.78 2.59,-4.16 2.59,-7.13 0,-3.03 -0.85,-5.41 -2.55,-7.13 -1.7,-1.73 -4.14,-2.59 -7.33,-2.59l-16.26 0 0 -5.1 15.14 0c3.72,0 7,0.45 9.84,1.36 2.84,0.9 5.07,2.4 6.69,4.5 1.62,2.1 2.43,4.96 2.43,8.57l0 1.12c0,3.4 -0.69,6.28 -2.07,8.65 -1.38,2.36 -3.48,4.17 -6.3,5.42 -2.82,1.25 -6.35,1.87 -10.6,1.87l-15.14 0zm-6.22 0l0 -58.82 7.81 0 0 58.82 -7.81 0zm6.22 -27.81l0 -5.1 14.11 0c3.29,0 5.73,-0.89 7.29,-2.67 1.57,-1.78 2.35,-4.05 2.35,-6.81 0,-2.82 -0.78,-5.11 -2.35,-6.89 -1.57,-1.78 -4,-2.67 -7.29,-2.67l-14.11 0 0 -6.85 12.75 0c6.38,0 11.13,1.34 14.27,4.02 3.14,2.68 4.7,6.55 4.7,11.6l0 1.12c0,3.56 -0.8,6.39 -2.39,8.49 -1.59,2.1 -3.81,3.59 -6.66,4.46 -2.84,0.88 -6.15,1.32 -9.92,1.32l-12.75 0zm61.61 28.77c-5.05,0 -8.93,-1.65 -11.64,-4.94 -2.71,-3.29 -4.06,-8.05 -4.06,-14.27l0 -24.71 7.65 0 0 26.22c0,3.35 0.9,5.96 2.71,7.85 1.81,1.89 4.25,2.83 7.33,2.83 3.19,0 5.79,-1.02 7.81,-3.07 2.02,-2.05 3.03,-4.85 3.03,-8.41l0 -25.42 7.65 0 0 42.64 -6.06 0 0 -18.25 0.96 0c0,4.2 -0.56,7.74 -1.67,10.64 -1.12,2.89 -2.78,5.1 -4.98,6.61 -2.21,1.52 -5.01,2.27 -8.41,2.27l-0.32 0zm49.25 0c-5.58,0 -9.9,-1.2 -12.95,-3.59 -3.05,-2.39 -4.64,-5.66 -4.74,-9.8l7.17 0c0.11,1.65 0.94,3.2 2.51,4.66 1.57,1.46 4.24,2.19 8.01,2.19 3.4,0 6,-0.68 7.81,-2.03 1.81,-1.35 2.71,-3.02 2.71,-4.98 0,-1.75 -0.66,-3.12 -1.99,-4.1 -1.33,-0.98 -3.48,-1.63 -6.46,-1.95l-4.62 -0.48c-4.04,-0.43 -7.33,-1.63 -9.88,-3.63 -2.55,-1.99 -3.83,-4.8 -3.83,-8.41 0,-2.71 0.69,-5.03 2.07,-6.97 1.38,-1.94 3.29,-3.43 5.74,-4.46 2.44,-1.04 5.26,-1.55 8.45,-1.55 4.78,0 8.66,1.06 11.64,3.19 2.98,2.12 4.52,5.29 4.62,9.48l-7.17 0c-0.05,-1.7 -0.84,-3.15 -2.35,-4.34 -1.51,-1.2 -3.76,-1.79 -6.73,-1.79 -2.98,0 -5.23,0.61 -6.77,1.83 -1.54,1.22 -2.31,2.76 -2.31,4.62 0,1.59 0.54,2.87 1.63,3.83 1.09,0.96 2.88,1.57 5.38,1.83l4.62 0.48c4.57,0.48 8.24,1.74 11,3.79 2.76,2.05 4.14,4.93 4.14,8.65 0,2.66 -0.76,5.01 -2.27,7.05 -1.51,2.05 -3.6,3.64 -6.26,4.78 -2.66,1.14 -5.71,1.71 -9.17,1.71zm30.84 -1.27l0 -42.56 7.65 0 0 42.56 -7.65 0zm-6.53 -36.5l0 -6.06 14.19 0 0 6.06 -14.19 0zm8.69 -12.91c-1.7,0 -2.96,-0.45 -3.79,-1.35 -0.82,-0.9 -1.24,-2.05 -1.24,-3.43 0,-1.38 0.41,-2.52 1.24,-3.43 0.82,-0.9 2.09,-1.35 3.79,-1.35 1.7,0 2.96,0.45 3.78,1.35 0.82,0.9 1.24,2.05 1.24,3.43 0,1.38 -0.41,2.52 -1.24,3.43 -0.82,0.9 -2.08,1.35 -3.78,1.35zm20.32 49.41l0 -42.56 6.06 0 0 18.25 -0.96 0c0,-4.2 0.57,-7.74 1.71,-10.64 1.14,-2.89 2.88,-5.1 5.22,-6.61 2.34,-1.52 5.29,-2.27 8.85,-2.27l0.32 0c5.37,0 9.34,1.67 11.92,5.02 2.58,3.35 3.87,8.18 3.87,14.51l0 24.31 -7.65 0 0 -25.9c0,-3.29 -0.93,-5.94 -2.79,-7.93 -1.86,-1.99 -4.41,-2.99 -7.65,-2.99 -3.35,0 -6.06,1.04 -8.13,3.11 -2.07,2.07 -3.11,4.83 -3.11,8.29l0 25.42 -7.65 0zm69.1 1.43c-3.72,0 -6.93,-0.64 -9.64,-1.91 -2.71,-1.27 -4.91,-2.96 -6.62,-5.06 -1.7,-2.1 -2.96,-4.45 -3.79,-7.05 -0.82,-2.6 -1.23,-5.26 -1.23,-7.97l0 -1.43c0,-2.76 0.41,-5.45 1.23,-8.05 0.82,-2.6 2.09,-4.96 3.79,-7.05 1.7,-2.1 3.87,-3.77 6.5,-5.02 2.63,-1.25 5.72,-1.87 9.28,-1.87 4.62,0 8.43,1 11.44,2.99 3,1.99 5.23,4.56 6.7,7.69 1.46,3.14 2.19,6.48 2.19,10.04l0 3.43 -37.78 0 0 -5.74 32.2 0 -1.75 3.11c0,-3.03 -0.48,-5.64 -1.43,-7.85 -0.96,-2.21 -2.39,-3.92 -4.3,-5.14 -1.91,-1.22 -4.33,-1.83 -7.25,-1.83 -3.03,0 -5.54,0.69 -7.53,2.07 -1.99,1.38 -3.48,3.27 -4.46,5.66 -0.98,2.39 -1.48,5.15 -1.48,8.29 0,3.03 0.49,5.75 1.48,8.17 0.98,2.42 2.51,4.33 4.58,5.74 2.07,1.41 4.7,2.11 7.89,2.11 3.35,0 6.07,-0.74 8.17,-2.23 2.1,-1.49 3.36,-3.21 3.79,-5.18l7.17 0c-0.58,2.92 -1.75,5.45 -3.51,7.57 -1.75,2.13 -3.96,3.75 -6.62,4.86 -2.66,1.12 -5.66,1.67 -9.01,1.67zm44.63 -0.16c-5.58,0 -9.9,-1.2 -12.95,-3.59 -3.05,-2.39 -4.64,-5.66 -4.74,-9.8l7.17 0c0.11,1.65 0.94,3.2 2.51,4.66 1.57,1.46 4.24,2.19 8.01,2.19 3.4,0 6,-0.68 7.81,-2.03 1.81,-1.35 2.71,-3.02 2.71,-4.98 0,-1.75 -0.66,-3.12 -1.99,-4.1 -1.33,-0.98 -3.48,-1.63 -6.46,-1.95l-4.62 -0.48c-4.04,-0.43 -7.33,-1.63 -9.88,-3.63 -2.55,-1.99 -3.83,-4.8 -3.83,-8.41 0,-2.71 0.69,-5.03 2.07,-6.97 1.38,-1.94 3.29,-3.43 5.74,-4.46 2.44,-1.04 5.26,-1.55 8.45,-1.55 4.78,0 8.66,1.06 11.64,3.19 2.98,2.12 4.52,5.29 4.62,9.48l-7.17 0c-0.05,-1.7 -0.84,-3.15 -2.35,-4.34 -1.51,-1.2 -3.76,-1.79 -6.73,-1.79 -2.98,0 -5.23,0.61 -6.77,1.83 -1.54,1.22 -2.31,2.76 -2.31,4.62 0,1.59 0.54,2.87 1.63,3.83 1.09,0.96 2.88,1.57 5.38,1.83l4.62 0.48c4.57,0.48 8.24,1.74 11,3.79 2.76,2.05 4.14,4.93 4.14,8.65 0,2.66 -0.76,5.01 -2.27,7.05 -1.51,2.05 -3.6,3.64 -6.26,4.78 -2.66,1.14 -5.71,1.71 -9.17,1.71zm42.72 0c-5.58,0 -9.9,-1.2 -12.95,-3.59 -3.05,-2.39 -4.64,-5.66 -4.74,-9.8l7.17 0c0.11,1.65 0.94,3.2 2.51,4.66 1.57,1.46 4.24,2.19 8.01,2.19 3.4,0 6,-0.68 7.81,-2.03 1.81,-1.35 2.71,-3.02 2.71,-4.98 0,-1.75 -0.66,-3.12 -1.99,-4.1 -1.33,-0.98 -3.48,-1.63 -6.46,-1.95l-4.62 -0.48c-4.04,-0.43 -7.33,-1.63 -9.88,-3.63 -2.55,-1.99 -3.83,-4.8 -3.83,-8.41 0,-2.71 0.69,-5.03 2.07,-6.97 1.38,-1.94 3.29,-3.43 5.74,-4.46 2.44,-1.04 5.26,-1.55 8.45,-1.55 4.78,0 8.66,1.06 11.64,3.19 2.98,2.12 4.52,5.29 4.62,9.48l-7.17 0c-0.05,-1.7 -0.84,-3.15 -2.35,-4.34 -1.51,-1.2 -3.76,-1.79 -6.73,-1.79 -2.98,0 -5.23,0.61 -6.77,1.83 -1.54,1.22 -2.31,2.76 -2.31,4.62 0,1.59 0.54,2.87 1.63,3.83 1.09,0.96 2.88,1.57 5.38,1.83l4.62 0.48c4.57,0.48 8.24,1.74 11,3.79 2.76,2.05 4.14,4.93 4.14,8.65 0,2.66 -0.76,5.01 -2.27,7.05 -1.51,2.05 -3.6,3.64 -6.26,4.78 -2.66,1.14 -5.71,1.71 -9.17,1.71zm73.32 0.16c-5.31,0 -9.84,-0.93 -13.59,-2.79 -3.75,-1.86 -6.76,-4.28 -9.05,-7.25 -2.28,-2.98 -3.96,-6.2 -5.02,-9.68 -1.06,-3.48 -1.59,-6.84 -1.59,-10.08l0 -1.75c0,-3.51 0.54,-7.01 1.63,-10.52 1.09,-3.51 2.78,-6.69 5.06,-9.56 2.28,-2.87 5.26,-5.18 8.93,-6.93 3.67,-1.75 8.05,-2.63 13.15,-2.63 5.21,0 9.67,0.9 13.39,2.71 3.72,1.81 6.67,4.33 8.85,7.57 2.18,3.24 3.51,7.07 3.98,11.48l-7.97 0c-0.43,-3.29 -1.49,-6.02 -3.19,-8.17 -1.7,-2.15 -3.84,-3.76 -6.42,-4.82 -2.58,-1.06 -5.46,-1.59 -8.65,-1.59 -3.45,0 -6.48,0.6 -9.08,1.79 -2.6,1.2 -4.77,2.87 -6.5,5.02 -1.73,2.15 -3.03,4.64 -3.91,7.45 -0.88,2.82 -1.32,5.87 -1.32,9.17 0,3.14 0.44,6.11 1.32,8.93 0.88,2.82 2.21,5.31 3.98,7.49 1.78,2.18 4,3.89 6.66,5.14 2.66,1.25 5.76,1.87 9.32,1.87 4.99,0 9.19,-1.25 12.59,-3.75 3.4,-2.5 5.47,-6.11 6.22,-10.84l7.97 0c-0.53,3.98 -1.87,7.62 -4.02,10.92 -2.15,3.29 -5.13,5.92 -8.93,7.89 -3.8,1.97 -8.41,2.95 -13.83,2.95zm56.59 0c-3.72,0 -6.99,-0.64 -9.8,-1.91 -2.82,-1.27 -5.19,-2.96 -7.13,-5.06 -1.94,-2.1 -3.4,-4.45 -4.38,-7.05 -0.98,-2.6 -1.47,-5.26 -1.47,-7.97l0 -1.43c0,-2.71 0.5,-5.38 1.51,-8.01 1.01,-2.63 2.5,-4.99 4.46,-7.09 1.97,-2.1 4.36,-3.77 7.17,-5.02 2.82,-1.25 6.03,-1.87 9.64,-1.87 3.61,0 6.83,0.62 9.64,1.87 2.82,1.25 5.21,2.92 7.17,5.02 1.97,2.1 3.45,4.46 4.46,7.09 1.01,2.63 1.51,5.3 1.51,8.01l0 1.43c0,2.71 -0.49,5.37 -1.48,7.97 -0.98,2.6 -2.44,4.96 -4.38,7.05 -1.94,2.1 -4.32,3.79 -7.13,5.06 -2.82,1.27 -6.08,1.91 -9.8,1.91zm0 -6.85c3.19,0 5.91,-0.7 8.17,-2.11 2.26,-1.41 3.98,-3.31 5.18,-5.7 1.2,-2.39 1.79,-5.07 1.79,-8.05 0,-3.03 -0.61,-5.74 -1.83,-8.13 -1.22,-2.39 -2.96,-4.28 -5.22,-5.66 -2.26,-1.38 -4.95,-2.07 -8.09,-2.07 -3.08,0 -5.76,0.69 -8.05,2.07 -2.28,1.38 -4.04,3.27 -5.26,5.66 -1.22,2.39 -1.83,5.1 -1.83,8.13 0,2.98 0.6,5.66 1.79,8.05 1.2,2.39 2.92,4.29 5.18,5.7 2.26,1.41 4.98,2.11 8.17,2.11zm34.27 5.42l0 -42.56 6.06 0 0 18.25 -0.96 0c0,-4.14 0.54,-7.66 1.63,-10.56 1.09,-2.9 2.72,-5.11 4.9,-6.66 2.18,-1.54 4.94,-2.31 8.29,-2.31l0.32 0c3.35,0 6.12,0.77 8.33,2.31 2.2,1.54 3.84,3.76 4.9,6.66 1.06,2.89 1.59,6.42 1.59,10.56l-2.23 0c0,-4.14 0.56,-7.66 1.67,-10.56 1.12,-2.9 2.78,-5.11 4.98,-6.66 2.21,-1.54 4.98,-2.31 8.33,-2.31l0.32 0c3.35,0 6.14,0.77 8.37,2.31 2.23,1.54 3.89,3.76 4.98,6.66 1.09,2.89 1.63,6.42 1.63,10.56l0 24.31 -7.65 0 0 -25.98c0,-3.45 -0.85,-6.12 -2.55,-8.01 -1.7,-1.89 -4.06,-2.83 -7.09,-2.83 -3.14,0 -5.66,1 -7.57,2.99 -1.91,1.99 -2.87,4.77 -2.87,8.33l0 25.5 -7.65 0 0 -25.98c0,-3.45 -0.85,-6.12 -2.55,-8.01 -1.7,-1.89 -4.06,-2.83 -7.09,-2.83 -3.14,0 -5.66,1 -7.57,2.99 -1.91,1.99 -2.87,4.77 -2.87,8.33l0 25.5 -7.65 0zm77.15 0l0 -42.56 6.06 0 0 18.25 -0.96 0c0,-4.14 0.54,-7.66 1.63,-10.56 1.09,-2.9 2.72,-5.11 4.9,-6.66 2.18,-1.54 4.94,-2.31 8.29,-2.31l0.32 0c3.35,0 6.12,0.77 8.33,2.31 2.2,1.54 3.84,3.76 4.9,6.66 1.06,2.89 1.59,6.42 1.59,10.56l-2.23 0c0,-4.14 0.56,-7.66 1.67,-10.56 1.12,-2.9 2.78,-5.11 4.98,-6.66 2.21,-1.54 4.98,-2.31 8.33,-2.31l0.32 0c3.35,0 6.14,0.77 8.37,2.31 2.23,1.54 3.89,3.76 4.98,6.66 1.09,2.89 1.63,6.42 1.63,10.56l0 24.31 -7.65 0 0 -25.98c0,-3.45 -0.85,-6.12 -2.55,-8.01 -1.7,-1.89 -4.06,-2.83 -7.09,-2.83 -3.14,0 -5.66,1 -7.57,2.99 -1.91,1.99 -2.87,4.77 -2.87,8.33l0 25.5 -7.65 0 0 -25.98c0,-3.45 -0.85,-6.12 -2.55,-8.01 -1.7,-1.89 -4.06,-2.83 -7.09,-2.83 -3.14,0 -5.66,1 -7.57,2.99 -1.91,1.99 -2.87,4.77 -2.87,8.33l0 25.5 -7.65 0zm91.89 1.27c-5.05,0 -8.93,-1.65 -11.64,-4.94 -2.71,-3.29 -4.06,-8.05 -4.06,-14.27l0 -24.71 7.65 0 0 26.22c0,3.35 0.9,5.96 2.71,7.85 1.81,1.89 4.25,2.83 7.33,2.83 3.19,0 5.79,-1.02 7.81,-3.07 2.02,-2.05 3.03,-4.85 3.03,-8.41l0 -25.42 7.65 0 0 42.64 -6.06 0 0 -18.25 0.96 0c0,4.2 -0.56,7.74 -1.67,10.64 -1.12,2.89 -2.78,5.1 -4.98,6.61 -2.21,1.52 -5.01,2.27 -8.41,2.27l-0.32 0zm35.31 -1.27l0 -42.56 6.06 0 0 18.25 -0.96 0c0,-4.2 0.57,-7.74 1.71,-10.64 1.14,-2.89 2.88,-5.1 5.22,-6.61 2.34,-1.52 5.29,-2.27 8.85,-2.27l0.32 0c5.37,0 9.34,1.67 11.92,5.02 2.58,3.35 3.87,8.18 3.87,14.51l0 24.31 -7.65 0 0 -25.9c0,-3.29 -0.93,-5.94 -2.79,-7.93 -1.86,-1.99 -4.41,-2.99 -7.65,-2.99 -3.35,0 -6.06,1.04 -8.13,3.11 -2.07,2.07 -3.11,4.83 -3.11,8.29l0 25.42 -7.65 0zm53.08 0l0 -42.56 7.65 0 0 42.56 -7.65 0zm-6.53 -36.5l0 -6.06 14.19 0 0 6.06 -14.19 0zm8.69 -12.91c-1.7,0 -2.96,-0.45 -3.79,-1.35 -0.82,-0.9 -1.24,-2.05 -1.24,-3.43 0,-1.38 0.41,-2.52 1.24,-3.43 0.82,-0.9 2.09,-1.35 3.79,-1.35 1.7,0 2.96,0.45 3.78,1.35 0.82,0.9 1.24,2.05 1.24,3.43 0,1.38 -0.41,2.52 -1.24,3.43 -0.82,0.9 -2.08,1.35 -3.78,1.35zm36.9 49.89c-3.19,0 -5.94,-0.45 -8.25,-1.36 -2.31,-0.9 -4.09,-2.46 -5.34,-4.66 -1.25,-2.21 -1.87,-5.19 -1.87,-8.97l0 -40.96 7.33 0 0 41.92c0,2.28 0.62,4.05 1.87,5.3 1.25,1.25 3.02,1.87 5.3,1.87l7.49 0 0 6.85 -6.53 0zm-22.79 -37.3l0 -5.74 29.33 0 0 5.74 -29.33 0zm37.3 53.4l0 -6.85 6.14 0c1.81,0 3.33,-0.23 4.58,-0.68 1.25,-0.45 2.28,-1.21 3.11,-2.27 0.82,-1.06 1.5,-2.47 2.03,-4.22l13.39 -45.11 7.49 0 -14.19 47.1c-0.85,2.82 -2.05,5.11 -3.59,6.89 -1.54,1.78 -3.41,3.08 -5.62,3.9 -2.2,0.82 -4.77,1.24 -7.69,1.24l-5.66 0zm12.99 -17.53l0 -6.38 9.24 0 0 6.38 -9.24 0zm-0.8 0l-15.22 -41.6 7.81 0 14.58 41.6 -7.17 0zm54.51 0.96l0 -42.56 7.65 0 0 42.56 -7.65 0zm-6.53 -36.5l0 -6.06 14.19 0 0 6.06 -14.19 0zm8.69 -12.91c-1.7,0 -2.96,-0.45 -3.79,-1.35 -0.82,-0.9 -1.24,-2.05 -1.24,-3.43 0,-1.38 0.41,-2.52 1.24,-3.43 0.82,-0.9 2.09,-1.35 3.79,-1.35 1.7,0 2.96,0.45 3.78,1.35 0.82,0.9 1.24,2.05 1.24,3.43 0,1.38 -0.41,2.52 -1.24,3.43 -0.82,0.9 -2.08,1.35 -3.78,1.35zm20.32 49.41l0 -42.56 6.06 0 0 18.25 -0.96 0c0,-4.2 0.57,-7.74 1.71,-10.64 1.14,-2.89 2.88,-5.1 5.22,-6.61 2.34,-1.52 5.29,-2.27 8.85,-2.27l0.32 0c5.37,0 9.34,1.67 11.92,5.02 2.58,3.35 3.87,8.18 3.87,14.51l0 24.31 -7.65 0 0 -25.9c0,-3.29 -0.93,-5.94 -2.79,-7.93 -1.86,-1.99 -4.41,-2.99 -7.65,-2.99 -3.35,0 -6.06,1.04 -8.13,3.11 -2.07,2.07 -3.11,4.83 -3.11,8.29l0 25.42 -7.65 0zm76.51 0.32l0 -6.85 16.26 0c3.14,0 5.57,-0.89 7.29,-2.67 1.73,-1.78 2.59,-4.16 2.59,-7.13 0,-3.03 -0.85,-5.41 -2.55,-7.13 -1.7,-1.73 -4.14,-2.59 -7.33,-2.59l-16.26 0 0 -5.1 15.14 0c3.72,0 7,0.45 9.84,1.36 2.84,0.9 5.07,2.4 6.69,4.5 1.62,2.1 2.43,4.96 2.43,8.57l0 1.12c0,3.4 -0.69,6.28 -2.07,8.65 -1.38,2.36 -3.48,4.17 -6.3,5.42 -2.82,1.25 -6.35,1.87 -10.6,1.87l-15.14 0zm-6.22 0l0 -58.82 7.81 0 0 58.82 -7.81 0zm6.22 -27.81l0 -5.1 14.11 0c3.29,0 5.73,-0.89 7.29,-2.67 1.57,-1.78 2.35,-4.05 2.35,-6.81 0,-2.82 -0.78,-5.11 -2.35,-6.89 -1.57,-1.78 -4,-2.67 -7.29,-2.67l-14.11 0 0 -6.85 12.75 0c6.38,0 11.13,1.34 14.27,4.02 3.14,2.68 4.7,6.55 4.7,11.6l0 1.12c0,3.56 -0.8,6.39 -2.39,8.49 -1.59,2.1 -3.81,3.59 -6.66,4.46 -2.84,0.88 -6.15,1.32 -9.92,1.32l-12.75 0zm61.61 28.77c-5.05,0 -8.93,-1.65 -11.64,-4.94 -2.71,-3.29 -4.06,-8.05 -4.06,-14.27l0 -24.71 7.65 0 0 26.22c0,3.35 0.9,5.96 2.71,7.85 1.81,1.89 4.25,2.83 7.33,2.83 3.19,0 5.79,-1.02 7.81,-3.07 2.02,-2.05 3.03,-4.85 3.03,-8.41l0 -25.42 7.65 0 0 42.64 -6.06 0 0 -18.25 0.96 0c0,4.2 -0.56,7.74 -1.67,10.64 -1.12,2.89 -2.78,5.1 -4.98,6.61 -2.21,1.52 -5.01,2.27 -8.41,2.27l-0.32 0zm35.78 -1.27l0 -58.18 7.65 0 0 58.18 -7.65 0zm-5.9 -52.12l0 -6.06 13.55 0 0 6.06 -13.55 0zm44.31 68.7c-1.97,0 -3.95,-0.08 -5.94,-0.24 -1.99,-0.16 -3.89,-0.37 -5.7,-0.64l0 -6.46c1.91,0.27 3.92,0.49 6.02,0.68 2.1,0.19 4.08,0.28 5.94,0.28 3.88,0 6.97,-0.52 9.28,-1.55 2.31,-1.04 3.98,-2.66 5.02,-4.86 1.04,-2.21 1.55,-5.03 1.55,-8.49l0 -8.13 2.55 -6.06c-0.16,4.3 -1.06,7.88 -2.71,10.72 -1.65,2.84 -3.78,4.97 -6.42,6.38 -2.63,1.41 -5.54,2.11 -8.73,2.11 -2.98,0 -5.7,-0.57 -8.17,-1.71 -2.47,-1.14 -4.6,-2.72 -6.38,-4.74 -1.78,-2.02 -3.16,-4.34 -4.14,-6.97 -0.98,-2.63 -1.47,-5.41 -1.47,-8.33l0 -1.43c0,-2.98 0.5,-5.75 1.51,-8.33 1.01,-2.58 2.42,-4.82 4.22,-6.73 1.81,-1.91 3.97,-3.4 6.5,-4.46 2.52,-1.06 5.3,-1.59 8.33,-1.59 3.56,0 6.69,0.76 9.4,2.27 2.71,1.51 4.85,3.72 6.42,6.62 1.57,2.89 2.43,6.44 2.59,10.64l-2.23 0.08 0 -18.17 6.06 0 0 37.54c0,5.1 -0.78,9.23 -2.35,12.39 -1.57,3.16 -4.07,5.49 -7.49,6.97 -3.43,1.49 -7.98,2.23 -13.67,2.23zm2.31 -23.27c2.55,0 4.87,-0.56 6.97,-1.67 2.1,-1.12 3.77,-2.72 5.02,-4.82 1.25,-2.1 1.87,-4.61 1.87,-7.53l0 -3.67c0,-2.87 -0.65,-5.29 -1.95,-7.25 -1.3,-1.97 -2.99,-3.45 -5.06,-4.46 -2.07,-1.01 -4.33,-1.51 -6.78,-1.51 -2.76,0 -5.21,0.64 -7.33,1.91 -2.13,1.27 -3.77,3.07 -4.94,5.38 -1.17,2.31 -1.75,5.03 -1.75,8.17 0,3.14 0.6,5.87 1.79,8.21 1.2,2.34 2.84,4.13 4.94,5.38 2.1,1.25 4.5,1.87 7.21,1.87zm61.13 6.69l0 -12.75 -1.28 0 0 -14.74c0,-2.92 -0.76,-5.13 -2.27,-6.62 -1.51,-1.49 -3.73,-2.23 -6.66,-2.23 -1.65,0 -3.35,0.03 -5.1,0.08 -1.75,0.05 -3.43,0.11 -5.02,0.16 -1.59,0.05 -2.98,0.13 -4.14,0.24l0 -6.69c1.17,-0.11 2.4,-0.2 3.71,-0.28 1.3,-0.08 2.64,-0.13 4.02,-0.16 1.38,-0.03 2.71,-0.04 3.98,-0.04 4.36,0 7.92,0.52 10.68,1.55 2.76,1.04 4.81,2.72 6.14,5.06 1.33,2.34 1.99,5.5 1.99,9.48l0 26.94 -6.06 0zm-13.95 1.12c-3.19,0 -5.94,-0.54 -8.25,-1.63 -2.31,-1.09 -4.09,-2.67 -5.34,-4.74 -1.25,-2.07 -1.87,-4.57 -1.87,-7.49 0,-3.03 0.68,-5.55 2.03,-7.57 1.35,-2.02 3.33,-3.55 5.94,-4.58 2.6,-1.04 5.74,-1.55 9.4,-1.55l11.56 0 0 5.74 -11.87 0c-3.08,0 -5.45,0.74 -7.09,2.23 -1.65,1.49 -2.47,3.4 -2.47,5.74 0,2.34 0.82,4.23 2.47,5.66 1.65,1.43 4.01,2.15 7.09,2.15 1.81,0 3.53,-0.33 5.18,-1 1.65,-0.66 3.01,-1.78 4.1,-3.35 1.09,-1.57 1.69,-3.73 1.79,-6.5l2.07 3.03c-0.27,3.03 -1,5.57 -2.19,7.61 -1.19,2.05 -2.84,3.6 -4.94,4.66 -2.1,1.06 -4.64,1.59 -7.61,1.59zm34.03 -1.12l0 -42.56 6.06 0 0 17.53 -0.32 0c0,-6.22 1.37,-10.77 4.1,-13.67 2.74,-2.9 6.84,-4.34 12.31,-4.34l1.43 0 0 6.85 -2.71 0c-4.25,0 -7.52,1.13 -9.8,3.39 -2.28,2.26 -3.43,5.51 -3.43,9.76l0 23.03 -7.65 0zm34.75 0l0 -42.56 7.65 0 0 42.56 -7.65 0zm-6.53 -36.5l0 -6.06 14.19 0 0 6.06 -14.19 0zm8.69 -12.91c-1.7,0 -2.96,-0.45 -3.79,-1.35 -0.82,-0.9 -1.24,-2.05 -1.24,-3.43 0,-1.38 0.41,-2.52 1.24,-3.43 0.82,-0.9 2.09,-1.35 3.79,-1.35 1.7,0 2.96,0.45 3.78,1.35 0.82,0.9 1.24,2.05 1.24,3.43 0,1.38 -0.41,2.52 -1.24,3.43 -0.82,0.9 -2.08,1.35 -3.78,1.35zm46.06 49.41l0 -12.75 -1.28 0 0 -14.74c0,-2.92 -0.76,-5.13 -2.27,-6.62 -1.51,-1.49 -3.73,-2.23 -6.66,-2.23 -1.65,0 -3.35,0.03 -5.1,0.08 -1.75,0.05 -3.43,0.11 -5.02,0.16 -1.59,0.05 -2.98,0.13 -4.14,0.24l0 -6.69c1.17,-0.11 2.4,-0.2 3.71,-0.28 1.3,-0.08 2.64,-0.13 4.02,-0.16 1.38,-0.03 2.71,-0.04 3.98,-0.04 4.36,0 7.92,0.52 10.68,1.55 2.76,1.04 4.81,2.72 6.14,5.06 1.33,2.34 1.99,5.5 1.99,9.48l0 26.94 -6.06 0zm-13.95 1.12c-3.19,0 -5.94,-0.54 -8.25,-1.63 -2.31,-1.09 -4.09,-2.67 -5.34,-4.74 -1.25,-2.07 -1.87,-4.57 -1.87,-7.49 0,-3.03 0.68,-5.55 2.03,-7.57 1.35,-2.02 3.33,-3.55 5.94,-4.58 2.6,-1.04 5.74,-1.55 9.4,-1.55l11.56 0 0 5.74 -11.87 0c-3.08,0 -5.45,0.74 -7.09,2.23 -1.65,1.49 -2.47,3.4 -2.47,5.74 0,2.34 0.82,4.23 2.47,5.66 1.65,1.43 4.01,2.15 7.09,2.15 1.81,0 3.53,-0.33 5.18,-1 1.65,-0.66 3.01,-1.78 4.1,-3.35 1.09,-1.57 1.69,-3.73 1.79,-6.5l2.07 3.03c-0.27,3.03 -1,5.57 -2.19,7.61 -1.19,2.05 -2.84,3.6 -4.94,4.66 -2.1,1.06 -4.64,1.59 -7.61,1.59z"/>
  <g id="_2651453785216">
   <path class="fil1" d="M-0 237.77c0,45.09 14.2,86.86 38.37,121.08l-2.07 179.9 102.96 -103.12c15.14,5.42 31.09,9.15 47.62,10.97 0.04,0.01 0.08,0.01 0.12,0.02 7.59,0.83 15.3,1.25 23.11,1.25 2.8,0 5.58,-0.06 8.35,-0.16 93.9,-4.94 168.52,-82.64 168.52,-177.77 0,-98.32 -79.7,-178.02 -178.02,-178.02 -86.13,0 -157.97,61.16 -174.46,142.42 -1.51,-10 -2.3,-20.25 -2.3,-30.67 0,-49.67 17.79,-95.19 47.35,-130.53 -48.46,38.48 -79.55,97.93 -79.55,164.63zm96.72 32.18c0,-61.99 50.25,-112.23 112.23,-112.23 61.99,0 112.23,50.25 112.23,112.23 0,61.99 -50.25,112.23 -112.23,112.23 -61.99,0 -112.23,-50.25 -112.23,-112.23z"/>
   <path class="fil1" d="M148.51 269.95c0,33.39 27.06,60.45 60.45,60.45 33.39,0 60.45,-27.06 60.45,-60.45 0,-33.39 -27.06,-60.45 -60.45,-60.45 -33.39,0 -60.45,27.06 -60.45,60.45z"/>
  </g>
 </g>
</svg>
