<svg width="28" height="28" viewBox="0 0 28 28" fill="none" xmlns="http://www.w3.org/2000/svg">
<g id="world_light">
<circle id="Ellipse 114" cx="14" cy="14" r="13" transform="rotate(-90 14 14)" stroke="#526172"/>
<path id="Ellipse 115" d="M5.49268 3.9128C6.56306 5.10357 7.4311 6.59906 8.03645 8.29529C8.64179 9.99153 8.96992 11.8478 8.99803 13.7351C9.02613 15.6224 8.75354 17.4955 8.1992 19.2241C7.64486 20.9526 6.82207 22.4953 5.78803 23.7447" stroke="#526172"/>
<path id="Ellipse 116" d="M23 4C21.9268 5.20191 21.5411 6.46496 20.9376 8.22211C20.3341 9.97926 20.0137 11.9109 20.0004 13.8723C19.9871 15.8337 20.2813 17.774 20.8609 19.5479C21.4404 21.3218 21.9433 22.768 23 24" stroke="#526172"/>
<path id="Vector 190" d="M1 14L27 14" stroke="#526172"/>
<path id="Vector 191" d="M14 1L14 27" stroke="#526172"/>
</g>
</svg>
