<svg xmlns="http://www.w3.org/2000/svg" width="42" height="55" viewBox="0 0 42 55" fill="none">
    <path fill-rule="evenodd" clip-rule="evenodd" d="M2.09705 12.7569C3.25244 12.7569 4.18888 13.6947 4.18888 14.8517C4.18888 16.0088 3.25244 16.9466 2.09705 16.9466C0.942017 16.9466 0.00522828 16.0088 0.00522828 14.8517C0.00522828 13.6947 0.942017 12.7569 2.09705 12.7569ZM27.367 0.00139633C28.5224 0.00139633 29.4588 0.939535 29.4588 2.09624C29.4588 3.25294 28.5224 4.19107 27.367 4.19107C26.212 4.19107 25.2752 3.25294 25.2752 2.09624C25.2752 0.939535 26.212 0.00139633 27.367 0.00139633ZM39.9012 0.00698269C41.0566 0.00698269 41.993 0.945122 41.993 2.10182C41.993 3.25852 41.0566 4.19666 39.9012 4.19666C38.7462 4.19666 37.8094 3.25852 37.8094 2.10182C37.8094 0.945122 38.7462 0.00698269 39.9012 0.00698269ZM14.7149 0C15.8703 0 16.8068 0.938139 16.8068 2.09484C16.8068 3.25154 15.8703 4.18968 14.7149 4.18968C13.5599 4.18968 12.6231 3.25154 12.6231 2.09484C12.6231 0.938139 13.5599 0 14.7149 0ZM2.09182 0C3.24721 0 4.18365 0.938139 4.18365 2.09484C4.18365 3.25154 3.24721 4.18968 2.09182 4.18968C0.936789 4.18968 0 3.25154 0 2.09484C0 0.938139 0.936789 0 2.09182 0ZM27.3698 50.8047C28.5252 50.8047 29.4616 51.7429 29.4616 52.8996C29.4616 54.0563 28.5252 54.9944 27.3698 54.9944C26.2147 54.9944 25.278 54.0563 25.278 52.8996C25.278 51.7429 26.2147 50.8047 27.3698 50.8047ZM39.904 50.8103C41.0594 50.8103 41.9958 51.7485 41.9958 52.9052C41.9958 54.0619 41.0594 55 39.904 55C38.749 55 37.8122 54.0619 37.8122 52.9052C37.8122 51.7485 38.749 50.8103 39.904 50.8103ZM14.7177 50.8033C15.8731 50.8033 16.8096 51.7415 16.8096 52.8982C16.8096 54.0549 15.8731 54.993 14.7177 54.993C13.5627 54.993 12.6259 54.0549 12.6259 52.8982C12.6259 51.7415 13.5627 50.8033 14.7177 50.8033ZM2.09461 50.8033C3.25 50.8033 4.18644 51.7415 4.18644 52.8982C4.18644 54.0549 3.25 54.993 2.09461 54.993C0.939576 54.993 0.00278757 54.0549 0.00278757 52.8982C0.00278757 51.7415 0.939576 50.8033 2.09461 50.8033ZM27.3705 38.131C28.5259 38.131 29.4623 39.0691 29.4623 40.2258C29.4623 41.3825 28.5259 42.3206 27.3705 42.3206C26.2154 42.3206 25.2787 41.3825 25.2787 40.2258C25.2787 39.0691 26.2154 38.131 27.3705 38.131ZM39.9047 38.1365C41.0601 38.1365 41.9965 39.0747 41.9965 40.2314C41.9965 41.3881 41.0601 42.3262 39.9047 42.3262C38.7497 42.3262 37.8129 41.3881 37.8129 40.2314C37.8129 39.0747 38.7497 38.1365 39.9047 38.1365ZM14.7184 38.1296C15.8738 38.1296 16.8102 39.0677 16.8102 40.2244C16.8102 41.3811 15.8738 42.3192 14.7184 42.3192C13.5634 42.3192 12.6266 41.3811 12.6266 40.2244C12.6266 39.0677 13.5634 38.1296 14.7184 38.1296ZM2.09531 38.1296C3.25069 38.1296 4.18713 39.0677 4.18713 40.2244C4.18713 41.3811 3.25069 42.3192 2.09531 42.3192C0.940274 42.3192 0.00348552 41.3811 0.00348552 40.2244C0.00348552 39.0677 0.940274 38.1296 2.09531 38.1296ZM27.374 25.5165C28.5293 25.5165 29.4658 26.4547 29.4658 27.6114C29.4658 28.7681 28.5293 29.7062 27.374 29.7062C26.2189 29.7062 25.2821 28.7681 25.2821 27.6114C25.2821 26.4547 26.2189 25.5165 27.374 25.5165ZM39.9082 25.5221C41.0636 25.5221 42 26.4603 42 27.617C42 28.7737 41.0636 29.7118 39.9082 29.7118C38.7531 29.7118 37.8163 28.7737 37.8163 27.617C37.8163 26.4603 38.7531 25.5221 39.9082 25.5221ZM14.7219 25.5151C15.8773 25.5151 16.8137 26.4533 16.8137 27.61C16.8137 28.7667 15.8773 29.7048 14.7219 29.7048C13.5669 29.7048 12.6301 28.7667 12.6301 27.61C12.6301 26.4533 13.5669 25.5151 14.7219 25.5151ZM2.0988 25.5151C3.25418 25.5151 4.19062 26.4533 4.19062 27.61C4.19062 28.7667 3.25418 29.7048 2.0988 29.7048C0.943762 29.7048 0.00697317 28.7667 0.00697317 27.61C0.00697317 26.4533 0.943762 25.5151 2.0988 25.5151ZM27.3722 12.7583C28.5276 12.7583 29.464 13.6964 29.464 14.8531C29.464 16.0098 28.5276 16.9479 27.3722 16.9479C26.2172 16.9479 25.2804 16.0098 25.2804 14.8531C25.2804 13.6964 26.2172 12.7583 27.3722 12.7583ZM39.9064 12.7639C41.0618 12.7639 41.9983 13.702 41.9983 14.8587C41.9983 16.0154 41.0618 16.9535 39.9064 16.9535C38.7514 16.9535 37.8146 16.0154 37.8146 14.8587C37.8146 13.702 38.7514 12.7639 39.9064 12.7639ZM14.7202 12.7569C15.8756 12.7569 16.812 13.695 16.812 14.8517C16.812 16.0084 15.8756 16.9466 14.7202 16.9466C13.5651 16.9466 12.6283 16.0084 12.6283 14.8517C12.6283 13.695 13.5651 12.7569 14.7202 12.7569Z" fill="white"/>
</svg>