<svg xmlns="http://www.w3.org/2000/svg" width="70" height="70" viewBox="0 0 70 70" fill="none">
    <rect x="0.5" y="0.5" width="69" height="69" rx="4.5" fill="white" stroke="#3E7BAF"/>
    <path fill-rule="evenodd" clip-rule="evenodd" d="M35.1997 33.9174L28.9854 29.2622L29.5849 28.4619L34.9994 32.518V18H35.9994V32.518L41.414 28.4619L42.0135 29.2622L35.7992 33.9174L35.4994 34.142L35.1997 33.9174ZM22.0176 31.9655V26.6549C22.0176 25.698 22.0186 25.0306 22.0863 24.527C22.1521 24.0378 22.2724 23.7788 22.4569 23.5943C22.6414 23.4098 22.9005 23.2895 23.3897 23.2237C23.8932 23.156 24.5606 23.1549 25.5176 23.1549H29.2854V22.1549H25.5176L25.481 22.1549C24.5693 22.1549 23.8344 22.1549 23.2564 22.2326C22.6563 22.3133 22.1511 22.4859 21.7498 22.8872C21.3485 23.2884 21.1759 23.7937 21.0953 24.3938C21.0176 24.9717 21.0176 25.7066 21.0176 26.6184V26.6549V31.9655V32.6207V32.6572C21.0176 32.6782 21.0176 32.6991 21.0176 32.7199V43.4825V43.5191C21.0176 44.4308 21.0176 45.1657 21.0953 45.7437C21.1759 46.3438 21.3485 46.849 21.7498 47.2503C22.1511 47.6516 22.6563 47.8242 23.2564 47.9048C23.8344 47.9825 24.5692 47.9825 25.481 47.9825H25.481H25.5176H45.4819H45.5185H45.5185C46.4302 47.9825 47.1651 47.9825 47.743 47.9048C48.3431 47.8242 48.8484 47.6516 49.2496 47.2503C49.6509 46.849 49.8235 46.3438 49.9042 45.7437C49.9819 45.1657 49.9819 44.4308 49.9819 43.5191V43.5191V43.4825V32.719C49.9819 32.6985 49.9819 32.6779 49.9819 32.6572V32.6572V32.6572V32.6207V31.9655V26.6549V26.6184V26.6184C49.9819 25.7066 49.9819 24.9718 49.9042 24.3938C49.8235 23.7937 49.6509 23.2884 49.2496 22.8872C48.8484 22.4859 48.3431 22.3133 47.743 22.2326C47.1651 22.1549 46.4302 22.1549 45.5184 22.1549L45.4819 22.1549H41.714V23.1549H45.4819C46.4388 23.1549 47.1062 23.156 47.6098 23.2237C48.099 23.2895 48.358 23.4098 48.5425 23.5943C48.727 23.7788 48.8473 24.0378 48.9131 24.527C48.9808 25.0306 48.9819 25.698 48.9819 26.6549V31.9655V32.6207C48.9819 33.5776 48.9808 34.245 48.9131 34.7486C48.8473 35.2378 48.727 35.4968 48.5425 35.6813C48.358 35.8658 48.099 35.9861 47.6098 36.0519C47.1062 36.1196 46.4388 36.1207 45.4819 36.1207H43.155L43.1288 36.1207C42.8035 36.1206 42.5183 36.1206 42.2831 36.1475C42.0289 36.1765 41.7832 36.2411 41.5576 36.4036C41.3321 36.5662 41.193 36.7787 41.085 37.0107C40.9851 37.2253 40.8948 37.4958 40.7919 37.8044L40.7836 37.8292L40.1423 39.7507C40.0286 40.0915 39.9559 40.307 39.8829 40.4637C39.8154 40.6087 39.7685 40.6554 39.7322 40.6815C39.6959 40.7076 39.6368 40.7373 39.4779 40.7555C39.3062 40.7751 39.0787 40.7758 38.7195 40.7758H32.28C31.9207 40.7758 31.6933 40.7751 31.5215 40.7555C31.3626 40.7373 31.3035 40.7076 31.2672 40.6815C31.2309 40.6554 31.1841 40.6087 31.1165 40.4637C31.0436 40.307 30.9709 40.0915 30.8571 39.7507L30.2159 37.8292L30.2076 37.8044C30.1046 37.4958 30.0144 37.2253 29.9145 37.0107C29.8064 36.7787 29.6674 36.5662 29.4418 36.4036C29.2162 36.2411 28.9705 36.1765 28.7163 36.1475C28.4811 36.1206 28.196 36.1206 27.8707 36.1207L27.8445 36.1207H25.5176C24.5606 36.1207 23.8932 36.1196 23.3897 36.0519C22.9005 35.9861 22.6414 35.8658 22.4569 35.6813C22.2724 35.4968 22.1521 35.2378 22.0863 34.7486C22.0186 34.245 22.0176 33.5776 22.0176 32.6207V31.9655ZM22.0176 36.6131V43.4825C22.0176 44.4395 22.0186 45.1069 22.0863 45.6104C22.1521 46.0996 22.2724 46.3587 22.4569 46.5432C22.6414 46.7277 22.9005 46.848 23.3897 46.9138C23.8932 46.9815 24.5606 46.9825 25.5176 46.9825H45.4819C46.4388 46.9825 47.1062 46.9815 47.6098 46.9138C48.099 46.848 48.358 46.7277 48.5425 46.5432C48.727 46.3587 48.8473 46.0996 48.9131 45.6104C48.9808 45.1069 48.9819 44.4395 48.9819 43.4825V36.6131C48.6309 36.8584 48.2165 36.9793 47.743 37.043C47.1651 37.1207 46.4302 37.1207 45.5185 37.1207H45.5185H45.5184H45.4819H43.155C42.7957 37.1207 42.5683 37.1214 42.3965 37.141C42.2376 37.1592 42.1785 37.1888 42.1422 37.215C42.1059 37.2411 42.0591 37.2878 41.9915 37.4328C41.9186 37.5895 41.8459 37.805 41.7321 38.1458L41.0909 40.0672L41.0826 40.0921C40.9796 40.4007 40.8894 40.6712 40.7895 40.8858C40.6814 41.1177 40.5424 41.3303 40.3168 41.4928C40.0912 41.6554 39.8455 41.72 39.5913 41.749C39.3562 41.7759 39.0711 41.7758 38.7458 41.7758H38.7457L38.7195 41.7758H32.28L32.2538 41.7758H32.2536C31.9284 41.7758 31.6433 41.7759 31.4081 41.749C31.1539 41.72 30.9082 41.6554 30.6826 41.4928C30.4571 41.3303 30.318 41.1177 30.21 40.8858C30.1101 40.6712 30.0198 40.4007 29.9169 40.0921L29.9086 40.0672L29.2673 38.1458C29.1536 37.805 29.0809 37.5895 29.0079 37.4328C28.9404 37.2878 28.8935 37.2411 28.8572 37.215C28.8209 37.1888 28.7618 37.1592 28.6029 37.141C28.4312 37.1214 28.2037 37.1207 27.8445 37.1207H25.5176H25.481H25.481H25.4809C24.5692 37.1207 23.8344 37.1207 23.2564 37.043C22.7829 36.9793 22.3685 36.8584 22.0176 36.6131Z" fill="#3E7BAF"/>
</svg>