<svg xmlns="http://www.w3.org/2000/svg" width="33" height="31" viewBox="0 0 33 31" fill="none">
    <path fill-rule="evenodd" clip-rule="evenodd" d="M5 10.362C5 4.94411 9.21952 1 14.4901 1C19.7606 1 23.9801 4.94411 23.9801 10.362C23.9801 11.4103 23.588 12.8873 22.8813 14.6497C22.1848 16.3865 21.2238 18.3027 20.1755 20.1956C18.0969 23.9491 15.7153 27.5395 14.4901 29.3322C13.2648 27.5395 10.8832 23.9491 8.80461 20.1956C7.75638 18.3027 6.79531 16.3865 6.09888 14.6497C5.39213 12.8873 5 11.4103 5 10.362ZM14.4901 0C8.69656 0 4 4.36295 4 10.362C4 15.3486 11.248 26.3642 13.6945 29.9404C14.0825 30.5076 14.8976 30.5076 15.2856 29.9404C17.7322 26.3642 24.9801 15.3486 24.9801 10.362C24.9801 4.36295 20.2836 0 14.4901 0ZM14.4908 13.512C16.422 13.512 17.9875 11.9996 17.9875 10.134C17.9875 8.26838 16.422 6.75601 14.4908 6.75601C12.5597 6.75601 10.9941 8.26838 10.9941 10.134C10.9941 11.9996 12.5597 13.512 14.4908 13.512Z" fill="#526172"/>
</svg>