<svg width="501" height="502" xmlns="http://www.w3.org/2000/svg"><defs><linearGradient x1="2.129%" y1="2.139%" x2="98.002%" y2="98.012%" id="a"><stop stop-color="#F44633" offset="0%"/><stop stop-color="#C31713" offset="100%"/></linearGradient><linearGradient x1="37.02%" y1="107.802%" x2="107.76%" y2="37.062%" id="b"><stop stop-color="#AD100D" offset="0%"/><stop stop-color="#F42320" offset="100%"/></linearGradient><linearGradient x1="-3.565%" y1="49.868%" x2="104.402%" y2="50.134%" id="c"><stop stop-color="#F43A27" offset="0%"/><stop stop-color="#F68676" offset="100%"/></linearGradient><linearGradient x1="-8.963%" y1="70.725%" x2="97.309%" y2="9.395%" id="d"><stop stop-color="#B1170E" offset="0%"/><stop stop-color="#EC3824" offset="39.22%"/><stop stop-color="#F78886" offset="100%"/></linearGradient><linearGradient x1="11.065%" y1="86.168%" x2="113.494%" y2="26.975%" id="e"><stop stop-color="#A3160D" offset="0%"/><stop stop-color="#E9201C" offset="46.67%"/><stop stop-color="#F56C60" offset="100%"/></linearGradient><linearGradient x1="50%" y1="106.09%" x2="50%" y2="1.04%" id="f"><stop stop-color="#E8EBEB" offset="0%"/><stop stop-color="#FFF" offset="100%"/></linearGradient></defs><g fill="none"><path d="M500 43.6c0-12-4.3-22.2-12.7-30.7C478.8 4.4 468.6.2 456.6.2H43.4c-12 0-22.2 4.2-30.7 12.7S0 31.6 0 43.6v413.3c0 12 4.2 22.2 12.7 30.7s18.7 12.7 30.7 12.7h413.3c12 0 22.2-4.2 30.7-12.7s12.7-18.7 12.7-30.7L500 43.6z" transform="translate(0 .75)" fill="url(#a)"/><path d="M487.4 487.4c8.5-8.5 12.7-18.7 12.7-30.7v-201L255.8 500h201c12 0 22.1-4.3 30.6-12.6z" fill="url(#b)" transform="translate(0 .8)"/><path d="M12.8 12.9C4.3 21.4.1 31.6.1 43.6v206.6l250-250H43.3c-12 .1-22 4.2-30.5 12.7z" fill="url(#c)" transform="translate(0 .8)"/><path d="M487.5 13.1l-.2-.2C478.8 4.4 468.6.2 456.6.2H250.1l-250 250v206.6c0 12 4.2 22.2 12.7 30.7l19.8-19.8.2.2L467.5 33v-.2.2l20-19.9z" fill="url(#d)" transform="translate(0 .8)"/><path d="M500 43.6c0-11.8-4.2-22-12.5-30.5l-19.8 19.8v-.2.2l-435 434.8-.2-.2-19.8 20c8.5 8.5 18.7 12.7 30.7 12.7h212.3L500 255.7V43.6z" fill="url(#e)" transform="translate(0 .8)"/><path d="M28.3 209.5C19.8 201 10.5 195 .1 191.2v8.5c8.3 3.3 15.8 8.3 22.7 15.2 13.3 13.5 20 29.8 20 49 0 19-6.7 35.2-20 48.7C16 319.4 8.5 324.4.1 327.8v8.5c10.3-3.7 19.7-9.8 28.2-18.2 15-15 22.5-33 22.5-54.2 0-21.4-7.5-39.5-22.5-54.4zM.1 148.7v8c21.2 4.3 40 14 56.3 29.3 22.5 21.7 33.8 47.5 33.8 77.7 0 30.3-11.3 56-33.8 77.2-16.3 15.3-35 25.3-56.3 29.7v8.2c23.3-4.5 43.8-15.2 61.7-32 24.2-22.7 36.3-50.3 36.3-83 0-32.3-12-60.2-36.3-83.3-18-16.9-38.5-27.4-61.7-31.8zm299.8 127c.5-.7.7-1.3.7-2.2 0-.9-.2-1.7-.7-2.3-37.7-56.3-83-100.5-136-132.5C113.2 107.7 58.7 90 .1 85.5v8c57 4.5 110.3 21.8 159.7 51.8 51.3 31.2 95.3 73.8 132 128-38.2 50.7-84.2 89.3-138 116.1-46.5 23-97.7 36.7-153.7 41v8c57.2-4.3 109.7-18.3 157.2-41.8 55.5-27.7 103-68.1 142.6-120.9z" fill="#A01713" fill-opacity=".2"/><path d="M25.3 123.4c-7.7-7.7-16-13.2-25.3-16.7v136.5c9.3-3.5 17.7-9 25.3-16.7 14.2-14.2 21.3-31.3 21.3-51.3.2-20.3-7-37.6-21.3-51.8zM.1.6v63.3c22.3 4.3 41.8 14.5 58.8 30.3 23.5 22.5 35.2 49.3 35.2 80.5 0 31.5-11.7 58.2-35.2 80-17 16.2-36.7 26.5-58.8 30.8v59.8c56.7-4.3 108.3-18.2 155.3-41.3 55.2-27.3 102.3-67.3 141.3-119.6-37.3-55.8-82.2-99.5-134.7-131.3C111.8 22.6 57.8 5.1.1.6z" transform="translate(0 88.8)" fill="url(#f)"/><path d="M284.9 58.1c-.8 0-1.5.3-2 1-.7.7-1 1.3-1 2v96.5c0 .8.3 1.5 1 2 .7.7 1.3 1 2 1h16.8c.8 0 1.5-.3 2.2-1 .7-.7 1-1.3 1-2v-33.2h5.2c4.5 0 8.3-.5 11.8-1.7 3.7-1.2 6.8-3 9.3-5.5v.2c2.3-2.3 4.2-5.2 5.5-8.7 1.2-3.2 1.7-7 1.7-11.2V85c0-4.2-.5-7.8-1.7-11.2-1.3-3.7-3.2-6.5-5.5-8.7-2.5-2.3-5.5-4-9.2-5.3h-.3c-3.5-1.2-7.3-1.7-11.8-1.7h-25m19.9 19.8h5.2c1.8 0 3 .3 3.8.8 1 1.2 1.5 2.8 1.5 5v14.5c0 2.3-.3 4-1.2 5-.2 0-.3 0-.3.3-.8.7-2 .8-3.8.8h-5.2V77.9m37.6-18.8c-.7.7-1 1.3-1 2v96.5c0 .8.3 1.5 1 2s1.3 1 2.2 1H371c4.7 0 8.8-.7 12.3-1.8 3.3-1.2 6.3-2.8 9-5 0 0 .2 0 .2-.2 2.2-2.3 3.8-5.2 5.2-8.5 1.2-3.3 1.7-7 1.7-11.3V85c0-4.2-.5-7.8-1.7-11.2-1.2-3.5-3-6.3-5.3-8.7-2.5-2.3-5.5-4-9-5.3h-.2c-3.5-1.2-7.5-1.7-12-1.7h-26.5c-.9 0-1.8.3-2.3 1m22 18.8h6.3c1.8 0 3.3.3 4.3 1.2l.2.2c.8 1 1.2 2.7 1.2 5v50c0 2.2-.3 3.8-1.2 5.2h-.2c-1 .7-2.5 1.2-4.3 1.2h-6.3V77.9m43.8-19.8c-.8 0-1.7.3-2.2 1-.7.7-1 1.3-1 2v96.5c0 .8.3 1.5 1 2s1.3 1 2.2 1H425c.8 0 1.5-.3 2.2-1 .7-.7.8-1.3.8-2v-36.7h18.8c.8 0 1.5-.3 2.2-1 .7-.7 1-1.3 1-2.2V104c0-.8-.3-1.5-1-2.2-.7-.7-1.3-.8-2.2-.8H428V77.8h24.8c.8 0 1.7-.3 2.3-.8.7-.7.8-1.3.8-2V61.2c0-.8-.3-1.5-.8-2-.7-.7-1.3-1-2.3-1l-44.6-.1" fill="#A01713" fill-opacity=".2"/><path d="M424.9 75.1h27.8V61.3H408v96.3h16.8v-39.7h22v-13.8h-22v-29h.1zm-30.1-.2c-1-3.2-2.5-5.7-4.5-7.7-2.3-1.8-5-3.3-8-4.7-3.2-1-6.8-1.5-11.2-1.5h-26.5v96.5H371c4.3 0 8-.5 11.2-1.7 3-1 5.7-2.5 8-4.5 2-2.2 3.5-4.7 4.5-7.5s1.5-6.3 1.5-10.2V84.9c0-3.7-.4-7-1.4-10zm-24 .2c2.8 0 5 .7 6.5 2 1.5 1.7 2.3 4.2 2.3 7.3v50.2c0 3.2-.8 5.7-2.3 7.3-1.3 1.3-3.5 1.8-6.5 1.8h-9.3V75h9.3v.1zm-60.9-13.9h-25v96.3h16.8v-36.3h8.2c4.2 0 7.8-.5 11-1.3 3.2-1 5.8-2.7 8-4.7s3.7-4.5 4.8-7.5c1-3 1.5-6.3 1.5-10.2V85c0-3.8-.5-7.2-1.5-10-1-3.2-2.7-5.7-4.8-7.7-2.2-1.8-4.8-3.3-8-4.7-3.1-.9-6.9-1.4-11-1.4zm0 13.9c2.8 0 4.8.7 6 1.8 1.5 1.5 2.3 3.8 2.3 7.2v14.3c0 3.3-.7 5.7-2.3 7.2-1.2 1.3-3.2 2-6 2h-8.2V75.1h8.2z" fill="#FFF"/></g></svg>