<svg xmlns="http://www.w3.org/2000/svg" width="60" height="60" viewBox="0 0 60 60" fill="none">
    <mask id="mask0_77_791" style="mask-type:alpha" maskUnits="userSpaceOnUse" x="0" y="0" width="60" height="60">
        <circle cx="30" cy="30" r="30" fill="white"/>
    </mask>
    <g mask="url(#mask0_77_791)">
        <circle cx="30" cy="30" r="30" fill="#BDC9C9"/>
        <path fill-rule="evenodd" clip-rule="evenodd" d="M5 63L56 62.9881C56 59.8938 55.0224 51.3587 53.124 48.6274C52.506 47.7382 51.4491 46.858 49.4408 45.8598C44.3039 43.3064 36.4931 42.3955 36.402 35.345C36.3719 33.0135 37.4981 32.6975 38.3415 31.3529C38.9813 30.3329 39.3142 27.7962 39.9331 27.125C40.2689 26.7608 40.7232 26.4458 41.192 25.894C41.5791 25.4382 42.0122 24.8872 42.0807 23.4254C42.1134 22.5871 42.234 22.0209 42.1267 21.7217C41.9673 21.2768 41.5305 21.306 41.3852 20.9756C41.2463 20.6596 41.2022 20.1015 41.4223 18.7386C41.8342 16.1434 41.3494 14.3017 40.8405 12.6221C40.2267 10.5962 39.0866 8.48367 37.2559 7.46594C33.9105 5.6062 27.8477 5.56551 24.4064 7.06299C21.501 8.30442 20.3005 10.282 19.7225 12.8112C19.3243 14.5537 19.0491 16.5706 19.4136 18.7386C19.6182 20.0274 19.5875 20.6042 19.4651 20.9354C19.3348 21.2875 18.9246 21.3382 18.7585 21.6957C18.6248 21.9834 18.7109 22.4785 18.7553 23.4254C18.8342 25.1122 19.3808 25.7432 19.8463 26.1718C20.2726 26.5644 20.6098 26.8071 20.9029 27.125C21.5214 27.7959 21.855 30.333 22.4945 31.3529C23.3455 32.7102 24.4645 32.9925 24.4337 35.3452C24.3403 42.4735 16.5691 43.2881 11.3952 45.8598C9.92443 46.5908 8.99194 47.4749 8.3105 48.5929C6.9756 50.7834 5 60.7491 5 63Z" fill="white"/>
    </g>
</svg>