<?xml version="1.0" encoding="UTF-8"?>
<!DOCTYPE svg PUBLIC "-//W3C//DTD SVG 1.1//EN" "http://www.w3.org/Graphics/SVG/1.1/DTD/svg11.dtd">
<!-- Creator: CorelDRAW 2019 (64-Bit) -->
<svg xmlns="http://www.w3.org/2000/svg" xml:space="preserve" width="165mm" height="137mm" version="1.1" style="shape-rendering:geometricPrecision; text-rendering:geometricPrecision; image-rendering:optimizeQuality; fill-rule:evenodd; clip-rule:evenodd"
viewBox="0 0 16500 13700"
 xmlns:xlink="http://www.w3.org/1999/xlink">
 <defs>
  <style type="text/css">
   <![CDATA[
    .fil2 {fill:#303943}
    .fil1 {fill:#3D4A58}
    .fil0 {fill:#526171}
   ]]>
  </style>
 </defs>
 <g id="Слой_x0020_1">
  <metadata id="CorelCorpID_0Corel-Layer"/>
  <g id="_2371621995440">
   <path class="fil0" d="M-0.11 32.55l16490.22 0 0 13693.25 -16490.22 0 0 -13693.25zm3429.7 8896.98c-466.97,-226.64 -941.82,-458.53 -1315.8,-797.72 -698.69,-633.89 -954.04,-1585.52 -814.37,-2448.75 139.73,-863.12 634.05,-1644.53 1250.27,-2308.42 551.36,-594.17 1219.86,-1118.02 2020.75,-1415.11 800.76,-297.08 1745.8,-348.45 2556.91,-27.73 550.52,217.69 1020.07,594.05 1589.62,764.52 919.21,275.01 1908.49,-33.74 2865.49,67.25 996.42,105.14 1929.87,688.31 2392.09,1494.15 503.77,878.79 438.15,1940.35 42.34,2837.69 -395.82,897.44 -1089.56,1656.42 -1821.92,2358.34 -872.86,836.45 -1939.13,1661.47 -3237.31,1678.2 -939.7,12.14 -1826,-405.72 -2663.43,-812.09 -954.86,-463.47 -1909.79,-926.94 -2864.64,-1390.33z"/>
   <path class="fil1" d="M2735.28 10568.04c-588.86,-324.7 -1187.71,-656.88 -1659.39,-1142.81 -881.13,-908.08 -1203.14,-2271.4 -1027.01,-3508.04 176.21,-1236.47 799.62,-2355.93 1576.74,-3307 695.36,-851.19 1538.42,-1601.65 2548.44,-2027.26 1009.86,-425.61 2201.73,-499.19 3224.61,-39.71 694.29,311.83 1286.46,851.03 2004.72,1095.24 1159.22,393.96 2406.94,-48.37 3613.78,96.33 1256.64,150.63 2433.99,986.05 3016.68,2140.48 635.34,1258.97 552.53,2779.71 53.39,4065.22 -499.11,1285.69 -1374.14,2372.99 -2297.72,3378.52 -1100.53,1198.29 -2445.41,2380.24 -4082.57,2404.19 -1185.1,17.41 -2302.86,-581.24 -3358.94,-1163.4 -1204.23,-663.95 -2408.5,-1327.89 -3612.73,-1991.76zm694.31 -1638.51c-466.97,-226.64 -941.82,-458.53 -1315.8,-797.72 -698.69,-633.89 -954.04,-1585.52 -814.37,-2448.75 139.73,-863.12 634.05,-1644.53 1250.27,-2308.42 551.36,-594.17 1219.86,-1118.02 2020.75,-1415.11 800.76,-297.08 1745.8,-348.45 2556.91,-27.73 550.52,217.69 1020.07,594.05 1589.62,764.52 919.21,275.01 1908.49,-33.74 2865.49,67.25 996.42,105.14 1929.87,688.31 2392.09,1494.15 503.77,878.79 438.15,1940.35 42.34,2837.69 -395.82,897.44 -1089.56,1656.42 -1821.92,2358.34 -872.86,836.45 -1939.13,1661.47 -3237.31,1678.2 -939.7,12.14 -1826,-405.72 -2663.43,-812.09 -954.86,-463.47 -1909.79,-926.94 -2864.64,-1390.33z"/>
   <path class="fil2" d="M7386.03 2046.95c287.3,-440.14 606.31,-864.36 1035.2,-1205.25 788.99,-626.95 1930.13,-915.98 3007.52,-761.84 1077.11,154.2 2067.45,748.32 2609.32,1565.7 627.32,945.7 640.55,2076.27 811.21,3146.64 155.31,974.75 454.55,1946.14 395.29,2924.65 -59.27,978.48 -569.92,2007.08 -1601.79,2416.7 -718.53,285.26 -1550.27,225.1 -2348.3,94.89 320.88,-239.56 620.64,-506.52 900.49,-774.69 732.36,-701.92 1426.1,-1460.9 1821.92,-2358.34 395.81,-897.34 461.43,-1958.9 -42.34,-2837.69 -462.22,-805.84 -1395.67,-1389.01 -2392.09,-1494.15 -957,-100.99 -1946.28,207.76 -2865.49,-67.25 -478.45,-143.2 -886.34,-431.69 -1330.94,-649.37zm-538.54 8535.08c-101.92,51.69 -204.21,102.65 -307.71,151.15 -542.93,254.55 -1178.72,447.44 -1784.62,305.62 -498.21,-116.95 -907.78,-455.14 -1126.33,-856.7 -210.97,-388.13 -256.09,-828.85 -192.23,-1249.17 952.51,462.26 1905.11,924.59 2857.63,1386.93 182.09,88.36 366.5,177.26 553.26,262.17z"/>
  </g>
 </g>
</svg>
