<svg width="60" height="60" viewBox="0 0 60 60" xmlns="http://www.w3.org/2000/svg">
    <path fill-rule="evenodd" clip-rule="evenodd" d="M35.4288 23.0335C35.7137 23.1931 35.016 23.7547 34.6947 24.077C30.4588 27.9491 26.2615 31.7835 21.9834 35.609C21.464 36.1231 21.7441 36.0959 21.5551 37.3858C21.3043 39.0978 21.3761 40.8538 21.1277 42.4741C21.0863 42.7443 21.0627 42.8166 21.1409 42.9689C21.2238 43.13 21.2824 43.2913 21.4601 43.2796C21.9472 43.248 21.9546 43.0126 22.3371 42.7068C22.5234 42.5576 22.5663 42.5255 22.7387 42.3527L25.2255 40.1168C26.311 39.1588 26.0102 39.1254 27.5419 40.2852L32.171 43.6526C32.6054 43.9813 33.6489 44.7564 34.0573 44.9143C36.1772 45.7342 36.3578 43.0479 36.6879 41.4511L38.8946 30.9307C39.6045 27.9484 40.2484 24.8092 40.8772 21.7921C41.1647 20.4137 41.329 18.9816 40.7875 18.4471C40.1605 17.8282 39.2379 18.0948 38.5894 18.3355C34.5589 19.8324 30.396 21.5467 26.3468 23.0892L12.0097 28.6442C11.3087 28.9267 10.6648 29.1496 9.96789 29.435C9.32705 29.6975 8.59332 30.4199 9.27183 31.0439C9.7752 31.5071 10.5033 31.6716 11.2332 31.9153C12.945 32.4869 14.8282 33.1669 16.5578 33.6407C17.3584 33.86 17.1849 34.0537 18.0423 33.4892L34.6255 23.1252C34.8258 22.993 35.2118 22.9125 35.4288 23.0335Z"/>
</svg>