<svg width="60" height="60" viewBox="0 0 60 60" fill="none" xmlns="http://www.w3.org/2000/svg">
    <path d="M9.9473 44.2516C7.8038 43.1212 5.624 41.9647 3.9071 40.273C0.6998 37.1116 -0.4723 32.3653 0.1688 28.06C0.8102 23.7553 3.0794 19.858 5.9081 16.5469C8.4392 13.5835 11.5079 10.9708 15.1844 9.48912C18.8603 8.00742 23.1986 7.75122 26.9219 9.35082C29.4491 10.4365 31.6046 12.3136 34.2191 13.1638C38.4386 14.5354 42.9803 12.9955 47.3732 13.4992C51.9473 14.0236 56.2328 16.9321 58.3538 20.9512C60.6665 25.3342 60.365 30.6286 58.5482 35.104C56.7314 39.58 53.5463 43.3654 50.1845 46.8661C46.1786 51.0379 41.2832 55.1527 35.324 55.2361C31.0103 55.2967 26.9417 53.2126 23.0975 51.1858C18.7142 48.8743 14.3306 46.5628 9.9473 44.2516Z" fill="url(#paint0_linear_95_743)"/>
    <path d="M53.9853 48.4944C54.1362 45.6105 53.1704 42.7812 52.2144 40.0173C49.819 33.0918 47.4233 26.1665 45.0279 19.241C44.0878 16.5232 43.1176 13.7504 41.2244 11.4408C38.6093 8.25047 34.2622 6.19086 29.7692 6.01269C25.2756 5.83453 20.7323 7.54184 17.796 10.5119C14.3984 13.9485 13.3123 18.6143 11.6451 22.9119C10.1268 26.8258 8.03035 30.6166 7.37614 34.7086C6.72222 38.8006 7.84648 43.4415 11.6411 45.9169C14.6938 47.9082 18.7772 48.1078 22.5903 48.0995C26.4031 48.0912 30.4125 47.9911 33.7832 49.5447C36.0656 50.5968 37.8308 52.3124 39.7922 53.7758C41.7537 55.2394 44.1465 56.5196 46.724 56.3911C48.843 56.2855 50.8074 55.1969 52.0565 53.701C53.3062 52.2056 53.8888 50.3425 53.9853 48.4944Z" fill="#4CA3C6"/>
    <path fill-rule="evenodd" clip-rule="evenodd" d="M35.4288 23.0335C35.7137 23.1931 35.016 23.7547 34.6947 24.077C30.4588 27.9491 26.2615 31.7835 21.9834 35.609C21.464 36.1231 21.7441 36.0959 21.5551 37.3858C21.3043 39.0978 21.3761 40.8538 21.1277 42.4741C21.0863 42.7443 21.0627 42.8166 21.1409 42.9689C21.2238 43.13 21.2824 43.2913 21.4601 43.2796C21.9472 43.248 21.9546 43.0126 22.3371 42.7068C22.5234 42.5576 22.5663 42.5255 22.7387 42.3527L25.2255 40.1168C26.311 39.1588 26.0102 39.1254 27.5419 40.2852L32.171 43.6526C32.6054 43.9813 33.6489 44.7564 34.0573 44.9143C36.1772 45.7342 36.3578 43.0479 36.6879 41.4511L38.8946 30.9307C39.6045 27.9484 40.2484 24.8092 40.8772 21.7921C41.1647 20.4137 41.329 18.9816 40.7875 18.4471C40.1605 17.8282 39.2379 18.0948 38.5894 18.3355C34.5589 19.8324 30.396 21.5467 26.3468 23.0892L12.0097 28.6442C11.3087 28.9267 10.6648 29.1496 9.96789 29.435C9.32705 29.6975 8.59332 30.4199 9.27183 31.0439C9.7752 31.5071 10.5033 31.6716 11.2332 31.9153C12.945 32.4869 14.8282 33.1669 16.5578 33.6407C17.3584 33.86 17.1849 34.0537 18.0423 33.4892L34.6255 23.1252C34.8258 22.993 35.2118 22.9125 35.4288 23.0335Z" fill="white"/>
    <defs>
        <linearGradient id="paint0_linear_95_743" x1="43.2266" y1="63.5215" x2="16.1282" y2="-1.57338" gradientUnits="userSpaceOnUse">
            <stop stop-color="#66BFE1"/>
            <stop offset="0.529412" stop-color="#60BDE1"/>
            <stop offset="1" stop-color="#A1D3E8"/>
        </linearGradient>
    </defs>
</svg>