<svg xmlns="http://www.w3.org/2000/svg" width="120" height="120" viewBox="0 0 120 120" fill="none">
    <path d="M19.8946 87.513C15.6076 85.2522 11.248 82.9392 7.8142 79.5558C1.3996 73.233 -0.9446 63.7404 0.3376 55.1298C1.6204 46.5204 6.1588 38.7258 11.8162 32.1036C16.8784 26.1768 23.0158 20.9514 30.3688 17.988C37.7206 15.0246 46.3972 14.5122 53.8438 17.7114C58.8982 19.8828 63.2092 23.637 68.4382 25.3374C76.8772 28.0806 85.9606 25.0008 94.7464 26.0082C103.895 27.057 112.466 32.874 116.708 40.9122C121.333 49.6782 120.73 60.267 117.096 69.2178C113.463 78.1698 107.093 85.7406 100.369 92.742C92.3572 101.086 82.5664 109.315 70.648 109.482C62.0206 109.603 53.8834 105.435 46.195 101.381C37.4284 96.7584 28.6612 92.1354 19.8946 87.513Z" fill="url(#paint0_linear_95_95)"/>
    <path d="M105.673 101.176C105.986 94.31 103.981 87.5738 101.997 80.993C97.0254 64.5038 92.0532 48.0152 87.0816 31.526C85.1304 25.055 83.1168 18.4532 79.1874 12.9542C73.7598 5.35822 64.7376 0.454421 55.4124 0.0302213C46.086 -0.393979 36.6564 3.67102 30.5622 10.7426C23.5104 18.9248 21.2562 30.0338 17.796 40.2662C14.6448 49.5848 10.2936 58.6106 8.93578 68.3534C7.57859 78.0962 9.91198 89.1458 17.7876 95.0396C24.1236 99.7808 32.5986 100.256 40.5126 100.236C48.426 100.216 56.7474 99.9782 63.7434 103.677C68.4804 106.182 72.144 110.267 76.215 113.751C80.286 117.236 85.2522 120.284 90.6018 119.978C94.9998 119.727 99.0768 117.135 101.669 113.573C104.263 110.013 105.472 105.577 105.673 101.176Z" fill="#4CA3C6"/>
    <g class="hover-path">
        <path d="M19.8946 87.513C15.6076 85.2522 11.248 82.9392 7.8142 79.5558C1.3996 73.233 -0.9446 63.7404 0.3376 55.1298C1.6204 46.5204 6.1588 38.7258 11.8162 32.1036C16.8784 26.1768 23.0158 20.9514 30.3688 17.988C37.7206 15.0246 46.3972 14.5122 53.8438 17.7114C58.8982 19.8828 63.2092 23.637 68.4382 25.3374C76.8772 28.0806 85.9606 25.0008 94.7464 26.0082C103.895 27.057 112.466 32.874 116.708 40.9122C121.333 49.6782 120.73 60.267 117.096 69.2178C113.463 78.1698 107.093 85.7406 100.369 92.742C92.3572 101.086 82.5664 109.315 70.648 109.482C62.0206 109.603 53.8834 105.435 46.195 101.381C37.4284 96.7584 28.6612 92.1354 19.8946 87.513Z" fill="url(#paint0_linear_95_95)"/>
    </g>
    <path fill-rule="evenodd" clip-rule="evenodd" d="M70.8556 45.0767C71.4254 45.3959 70.0301 46.5191 69.3875 47.1637C60.9157 54.9079 52.5211 62.5767 43.9649 70.2277C42.926 71.2561 43.4862 71.2016 43.1082 73.7813C42.6066 77.2054 42.7502 80.7174 42.2534 83.958C42.1707 84.4984 42.1234 84.6429 42.2798 84.9476C42.4456 85.2698 42.5628 85.5923 42.9183 85.5691C43.8925 85.5058 43.9073 85.035 44.6723 84.4233C45.0448 84.125 45.1307 84.0608 45.4755 83.7152L50.449 79.2434C52.6199 77.3273 52.0185 77.2605 55.0819 79.5801L64.3399 86.3149C65.2089 86.9725 67.2958 88.5226 68.1126 88.8383C72.3523 90.4781 72.7136 85.1057 73.3739 81.9119L77.7872 60.8711C79.207 54.9066 80.4948 48.6281 81.7524 42.5939C82.3274 39.8371 82.6561 36.9729 81.573 35.9039C80.319 34.6662 78.4739 35.1993 77.1768 35.6807C69.1158 38.6746 60.7901 42.1031 52.6917 45.1882L24.0175 56.2981C22.6154 56.8631 21.3276 57.3091 19.9338 57.8798C18.6521 58.4048 17.1847 59.8495 18.5417 61.0975C19.5485 62.024 21.0046 62.3529 22.4644 62.8405C25.888 63.9836 29.6545 65.3435 33.1136 66.2912C34.7149 66.7298 34.3679 67.1171 36.0826 65.9881L69.2491 45.2602C69.6496 44.9957 70.4216 44.8348 70.8556 45.0767Z" fill="white"/>
    <defs>
        <linearGradient id="paint0_linear_95_95" x1="86.4532" y1="126.053" x2="32.2564" y2="-4.137" gradientUnits="userSpaceOnUse">
            <stop stop-color="#66BFE1"/>
            <stop offset="0.529412" stop-color="#60BDE1"/>
            <stop offset="1" stop-color="#A1D3E8"/>
        </linearGradient>
    </defs>
</svg>