<svg width="120" height="120" viewBox="0 0 120 120" fill="none" xmlns="http://www.w3.org/2000/svg">
    <path d="M19.8946 87.513C15.6076 85.2522 11.248 82.9392 7.8142 79.5558C1.3996 73.233 -0.9446 63.7404 0.3376 55.1298C1.6204 46.5204 6.1588 38.7258 11.8162 32.1036C16.8784 26.1768 23.0158 20.9514 30.3688 17.988C37.7206 15.0246 46.3972 14.5122 53.8438 17.7114C58.8982 19.8828 63.2092 23.637 68.4382 25.3374C76.8772 28.0806 85.9606 25.0008 94.7464 26.0082C103.895 27.057 112.466 32.874 116.708 40.9122C121.333 49.6782 120.73 60.267 117.096 69.2178C113.463 78.1698 107.093 85.7406 100.369 92.742C92.3572 101.086 82.5664 109.315 70.648 109.482C62.0206 109.603 53.8834 105.435 46.195 101.381C37.4284 96.7584 28.6612 92.1354 19.8946 87.513Z" fill="url(#paint0_linear_95_103)"/>
    <path d="M4.21901 90.6038C4.82254 84.6436 7.74966 79.0604 10.6346 73.6083C17.8647 59.9493 25.0941 46.2904 32.3235 32.6309C35.1608 27.2701 38.0787 21.8045 42.7846 17.5091C49.2846 11.575 59.0553 8.37474 68.5338 9.07453C78.0122 9.77485 86.9954 14.36 92.2064 21.1585C98.2355 29.0243 99.0261 38.8673 101.152 48.092C103.089 56.4927 106.277 64.7779 106.345 73.3394C106.412 81.9008 102.576 91.1684 93.8304 95.354C86.7948 98.7209 78.1694 98.1621 70.1762 97.2403C62.1842 96.3186 53.8089 95.1624 46.2462 97.5542C41.1245 99.1736 36.8772 102.28 32.2979 104.821C27.7185 107.363 22.2942 109.425 16.9297 108.549C12.5204 107.83 8.7482 105.127 6.60437 101.758C4.46177 98.3893 3.83318 94.424 4.21901 90.6038Z" fill="#5F5697"/>
    <g class="hover-path">
        <path d="M19.8946 87.513C15.6076 85.2522 11.248 82.9392 7.8142 79.5558C1.3996 73.233 -0.9446 63.7404 0.3376 55.1298C1.6204 46.5204 6.1588 38.7258 11.8162 32.1036C16.8784 26.1768 23.0158 20.9514 30.3688 17.988C37.7206 15.0246 46.3972 14.5122 53.8438 17.7114C58.8982 19.8828 63.2092 23.637 68.4382 25.3374C76.8772 28.0806 85.9606 25.0008 94.7464 26.0082C103.895 27.057 112.466 32.874 116.708 40.9122C121.333 49.6782 120.73 60.267 117.096 69.2178C113.463 78.1698 107.093 85.7406 100.369 92.742C92.3572 101.086 82.5664 109.315 70.648 109.482C62.0206 109.603 53.8834 105.435 46.195 101.381C37.4284 96.7584 28.6612 92.1354 19.8946 87.513Z" fill="url(#paint0_linear_95_103)"/>
    </g>
    <path fill-rule="evenodd" clip-rule="evenodd" d="M45.9594 88.3489C45.9594 85.7365 44.0182 83.3049 41.734 82.0371C37.9045 79.9119 35.5984 75.6465 34.7479 71.4936C33.6034 65.9082 33.6962 55.5968 35.2691 50.2231C37.0301 44.2069 41.2911 40.9605 47.8 39.436C53.9677 37.9915 62.9897 37.8594 69.3554 38.8677C75.8669 39.8988 80.9304 42.019 83.847 47.8918C86.2534 52.7373 86.3065 62.8321 85.6495 68.7033C84.8061 76.2379 81.9465 80.2471 76.4326 82.7906C72.0628 84.8063 66.5069 85.2824 61.0906 85.3053C57.7454 85.3195 54.5743 86.8606 52.3854 89.3902C51.1907 90.7708 49.9578 92.1357 48.8637 93.3861C48.5237 93.7747 48.0333 94.3553 47.6988 94.7966C45.2409 98.0401 45.9594 90.8729 45.9594 89.7029C45.9594 89.2516 45.9594 88.8003 45.9594 88.3489ZM61.766 53.7453C61.3218 53.98 61.1659 54.3313 61.392 54.7938C61.6347 55.2898 62.0756 55.211 62.5605 55.2599C64.2866 55.4328 65.7342 56.5459 66.1622 58.2543C66.3281 58.9171 66.168 60.7165 67.4591 60.1013C68.5922 59.5613 67.6709 55.4479 64.527 54.1034C63.8742 53.8241 62.4812 53.3676 61.766 53.7453ZM60.6364 49.417C59.7824 49.8679 60.0777 50.7866 61.1235 50.9113C63.7859 51.2285 65.4512 51.5181 67.616 53.5959C72.03 57.831 69.3896 62.6229 71.6534 61.5441C72.7138 61.0389 71.743 57.4707 71.4606 56.6706C70.5037 53.961 68.2946 51.4558 65.611 50.3025C64.6974 49.91 61.6334 48.8908 60.6364 49.417ZM59.1845 45.2487C58.6162 45.5495 58.533 46.2053 59.0325 46.5614C59.805 47.1123 65.1267 45.9086 70.3391 51.0511C77.0191 57.6407 73.2172 64.5627 75.8478 63.3075C77.198 62.6634 75.6996 56.9075 75.3305 55.8696C74.4775 53.4715 73.2392 51.8396 71.8802 50.3234C70.7331 49.0431 68.7025 47.4466 66.6235 46.5694C65.3971 46.0519 60.5603 44.5203 59.1845 45.2487ZM47.6891 46.9847C45.9445 47.5958 43.7706 49.5369 43.1813 51.1948C42.0992 54.239 46.004 61.3307 47.7551 63.7141C51.4968 68.8071 56.135 73.248 61.7437 76.2678C63.7383 77.3417 65.6734 78.1713 68.0365 78.8219C71.2471 79.7058 72.5682 78.0839 73.9249 76.4504C74.4264 75.8464 75.2742 74.5771 75.2752 73.5141C75.2765 72.1793 74.2633 71.7968 73.3663 71.1291C72.3871 70.3998 69.1991 67.8191 68.1649 67.4742C64.0854 66.1142 65.489 74.5745 56.4902 67.2177C54.8275 65.858 51.2539 61.6094 51.9064 58.8898C52.2017 57.6584 53.4931 57.3013 54.1142 56.6006C55.8225 54.673 53.7739 52.8305 52.4188 50.9042C50.8081 48.614 49.7642 46.2576 47.6891 46.9847ZM84.767 41.2051C83.1858 39.6761 81.9691 38.4392 79.5863 37.2098C75.2111 34.952 70.5911 33.9698 64.9989 33.5975C47.4539 32.5834 33.6535 35.8813 30.2365 51.3092C28.2186 60.4204 28.4434 76.3816 35.6734 83.2515C36.1559 83.71 36.9794 84.3766 37.9676 85.0642C41.1816 87.3008 44.002 90.9298 44.1957 94.8406C44.3073 97.0913 45.7827 98.4242 47.9844 97.3208C48.7058 96.9591 52.2169 92.8866 53.0881 91.8137C54.1821 90.606 55.6523 89.9148 57.2769 90.0426C58.1452 90.111 59.0151 90.1839 59.5132 90.185C69.3259 90.2075 80.3148 88.8646 86.1347 80.7254C91.3474 73.4351 91.8249 59.7869 89.598 50.6683C88.8533 47.6192 86.9845 43.35 84.767 41.2051Z" fill="white"/>
    <defs>
        <linearGradient id="paint0_linear_95_103" x1="86.4532" y1="126.053" x2="32.2564" y2="-4.137" gradientUnits="userSpaceOnUse">
            <stop stop-color="#5F5699"/>
            <stop offset="0.529412" stop-color="#7269AA"/>
            <stop offset="1" stop-color="#8B76C1"/>
        </linearGradient>
    </defs>
</svg>
