<svg xmlns="http://www.w3.org/2000/svg" width="120" height="120" viewBox="0 0 60 60" fill="none">
    <path d="M8.99178 19.0467C10.0946 16.2177 10.0634 13.0953 10.4999 10.0901C10.9367 7.08502 12.0395 3.90139 14.6108 2.28588C17.1779 0.673065 20.5419 1.06127 23.3835 2.11848C26.2248 3.17569 28.8315 4.8314 31.7386 5.69301C34.9462 6.64312 38.3536 6.57951 41.6989 6.53421C45.044 6.48831 48.4598 6.47931 51.6365 7.52842C54.8136 8.57753 57.7638 10.8846 58.704 14.0952C59.7816 17.7738 58.0377 21.7038 55.7499 24.7798C53.462 27.8554 50.5766 30.5251 48.8384 33.9418C47.063 37.4315 46.6241 41.4212 45.6728 45.2192C44.7215 49.0176 43.0211 52.9404 39.6607 54.9504C37.5331 56.2224 34.9543 56.5743 32.4832 56.3775C30.0121 56.1807 27.6141 55.4703 25.2447 54.741C21.1665 53.4852 17.0801 52.1484 13.3454 50.0847C9.61038 48.021 6.21105 45.17 4.10924 41.4566C2.00712 37.7429 1.33271 33.0988 2.91793 29.1367C4.38014 25.4821 7.56226 22.7145 8.99178 19.0467Z" fill="url(#paint0_linear_95_768)"/>
    <path d="M9.9473 42.3395C7.8038 41.2091 5.624 40.0526 3.9071 38.3609C0.6998 35.1995 -0.4723 30.4532 0.1688 26.1479C0.8102 21.8432 3.0794 17.9459 5.9081 14.6348C8.4392 11.6714 11.5079 9.05871 15.1844 7.57701C18.8603 6.09531 23.1986 5.83911 26.9219 7.43871C29.4491 8.52441 31.6046 10.4015 34.2191 11.2517C38.4386 12.6233 42.9803 11.0834 47.3732 11.5871C51.9473 12.1115 56.2328 15.02 58.3538 19.0391C60.6665 23.4221 60.365 28.7165 58.5482 33.1919C56.7314 37.6679 53.5463 41.4533 50.1845 44.954C46.1786 49.1258 41.2832 53.2406 35.324 53.324C31.0103 53.3846 26.9417 51.3005 23.0975 49.2737C18.7142 46.9622 14.3306 44.6507 9.9473 42.3395Z" fill="url(#paint1_linear_95_768)"/>
    <path d="M28.2824 38.0121C26.1356 37.9608 23.6662 37.938 21.2005 37.8303C19.5784 37.7592 17.9494 37.6479 16.3462 37.4055C14.2549 37.089 13.0632 35.8623 12.7257 33.7731C12.5049 32.4087 12.3528 31.0263 12.282 29.6463C12.1962 27.977 12.186 26.3012 12.2208 24.6296C12.2616 22.6721 12.3702 20.7143 12.8118 18.7952C13.2175 17.0318 14.5318 15.7942 16.3378 15.5776C17.9041 15.3901 19.4806 15.2335 21.0562 15.1858C24.3178 15.0865 27.5816 15.0286 30.8447 15.0313C33.0989 15.0331 35.3546 15.1366 37.6071 15.2488C38.7573 15.3061 39.9126 15.4204 41.0466 15.619C42.8844 15.9412 44.0346 17.0801 44.4039 18.8987C44.6436 20.0795 44.7672 21.2891 44.8647 22.4921C44.9694 23.7806 45.0243 25.0766 45.0264 26.3696C45.03 28.5324 44.9448 30.6948 44.6388 32.8395C44.5416 33.5211 44.4267 34.2204 44.1777 34.8561C43.5573 36.4416 42.3042 37.2426 40.647 37.4646C38.3346 37.7736 36.0074 37.8513 33.6791 37.908C31.9877 37.9497 30.296 37.974 28.2824 38.0121ZM25.3262 21.5816C25.3262 24.8804 25.3262 28.1255 25.3262 31.4139C28.1759 29.7684 30.9842 28.1469 33.8405 26.4974C30.9767 24.8441 28.166 23.2211 25.3262 21.5816Z" fill="white"/>
    <defs>
        <linearGradient id="paint0_linear_95_768" x1="-3.81953" y1="8.46833" x2="66.5692" y2="50.1513" gradientUnits="userSpaceOnUse">
            <stop stop-color="#E4A23E"/>
            <stop offset="0.529412" stop-color="#DD322E"/>
            <stop offset="1" stop-color="#EF9958"/>
        </linearGradient>
        <linearGradient id="paint1_linear_95_768" x1="43.2266" y1="61.6094" x2="16.1282" y2="-3.48549" gradientUnits="userSpaceOnUse">
            <stop stop-color="#DF3D32"/>
            <stop offset="0.529412" stop-color="#DD322F"/>
            <stop offset="1" stop-color="#E55F40"/>
        </linearGradient>
    </defs>
</svg>