<svg width="901" height="516" viewBox="0 0 901 516" fill="none" xmlns="http://www.w3.org/2000/svg">
<path fill-rule="evenodd" clip-rule="evenodd" d="M0 70.8278C0 93.2376 10.4471 92.063 15.4386 107.477C23.9125 133.645 15.3801 131.623 49.0189 147.255C69.4175 156.732 60.1643 160.786 72.7918 172.95C76.9229 176.928 88.0637 178.752 88.0637 183.395C88.0637 189.105 83.1217 196.893 80.162 200.361L66.0343 213.024C64.4936 214.294 63.9575 214.716 62.4979 215.883C58.8939 218.761 61.7771 215.492 59.1822 218.937C56.8351 222.05 56.9387 224.913 54.7628 228.206L51.7174 231.539C45.2302 236.345 34.3371 228.84 18.6327 236.99C3.25711 244.974 14.907 249.864 14.907 258.843C14.907 265.15 8.86133 276.307 9.58664 283.885C10.4065 292.501 24.3901 299.446 24.3901 301.954C24.3901 304.096 20.0112 321.378 19.1958 322.512L0 331.89C0.211735 340.339 11.6634 349.087 17.137 356.263C18.8399 358.484 17.7767 357.505 19.9887 359.735L33.0667 370.924C39.3332 374.914 48.8072 378.509 55.9926 380.604C80.8873 387.843 64.9981 393.242 80.8062 419.741L86.2392 425.722C95.7312 433.622 87.7844 437.333 84.8201 446.384C83.3425 450.899 82.2388 456.816 82.6082 462.403C83.0091 468.411 84.8201 471.43 83.811 479.011C82.1081 491.865 77.5761 499.323 94.9789 501.823C99.4434 502.468 108.161 503.894 111.463 504.041C124.563 504.61 121.612 491.168 134.136 491.168C141.326 491.168 138.799 494.54 145.34 492.78C151.94 491.008 147.962 490.371 158.274 489.706C169.127 489.006 175.195 495.958 186.746 490.981C196.089 486.955 206.996 486.246 215.717 481.786C228.561 475.22 234.089 487.743 243.072 471.286C248.014 462.24 250.158 466.018 265.556 466.018C268.813 466.018 269.543 464.079 272.332 462.427C282.229 468.284 282.581 471.808 295.767 467.567C316.003 461.065 308.354 462.853 316.774 477.032C322.855 487.277 333.037 483.248 341.038 491.514C343.524 494.086 343.867 497.152 348.205 497.152C359.22 497.152 348.128 481.842 374.839 493.971C382.763 497.571 393.399 499.052 400.476 503.647C411.536 510.826 412.744 520.247 430.836 513.908C434.07 512.773 433.503 512.502 437.715 511.603C441.513 510.782 442.648 510.858 446.585 509.862C451.284 508.676 459.582 504.34 462.015 504.34C469.462 504.34 473.34 506.056 480.233 504.957C487.31 503.826 491.811 500.748 497.244 500.748C502.411 500.748 503.718 504.34 509.439 504.34C513.219 504.34 541.884 497.547 545.884 492.247C552.926 482.921 549.93 465.521 545.875 456.565C542.33 448.725 535.645 446.575 533.825 439.67C550.241 422.983 558.661 436.079 569.054 436.079C577.365 436.079 569.13 426.972 576.852 421.418C582.735 417.189 588.303 419.395 597.246 417.882C613.716 415.102 598.651 394.241 617.802 392.943C659.302 390.136 650.581 392.577 672.376 376.427C681.048 370 687.107 382.4 697.897 373.922L705.897 370.215C712.772 374.281 718.056 381.559 723.845 386.68C729.594 391.761 739.329 401.353 747.898 401.353C751.988 401.353 753.466 397.582 756.011 395.348C768.427 384.45 769.995 395.364 785.834 395.364C788.862 383.889 799.773 391.769 810.224 391.769C811.86 391.769 816.995 387.508 816.995 385.78C816.995 376.889 808.841 369.196 802.304 364.043C802.012 363.808 801.151 363.155 800.863 362.92C799.516 361.793 800.75 363 798.845 361.113L784.077 345.4C776.378 338.563 780.87 338.054 783.127 329.497C766.319 319.55 775.59 324.766 772.459 316.046C771.432 313.207 757.745 305.251 754.673 305.546L738.446 306.975C738.37 287.723 754.443 294.273 760.872 289.471C763.737 287.329 762.575 283.96 763.778 280.062C765.368 274.925 765.476 277.553 770.229 274.989C775.63 272.07 773.955 266.456 780.843 265.329C785.136 264.628 790.609 266.357 798.029 264.831C802.061 257.397 799.543 259.01 799.304 250.469C799.124 244.026 800.737 241.287 800.737 233.693C800.737 220.533 798.241 211.025 802.525 198.151C805.062 190.538 807.318 186.266 803.449 179.803C807.233 178.198 810.445 178.135 813.945 175.909C823.919 169.57 822.572 154.602 830.736 147.638C835.47 143.6 835.714 145.695 843.282 144.353C874.56 138.806 862.464 145.89 879.322 149.864C884.841 146.598 901 130.225 901 119.924C901 113.621 897.058 110.22 896.882 103.208C896.671 94.914 897.432 91.0237 895.581 83.9997C874.281 79.6118 859.869 85.7199 833.015 74.6344C825.55 71.5525 814.603 68.0166 811.13 61.6417C807.233 54.4863 806.485 39.6897 796.673 39.6897C791.123 39.6897 780.374 45.4793 772.977 46.1443C771.387 46.2877 770.049 46.5186 767.639 45.0851C767.08 44.7546 765.607 43.3929 765.535 43.3172C759.525 36.8308 762.584 33.705 750.605 33.705C727.229 33.705 736.383 40.5458 711.511 23.9455C708.605 22.0063 706.889 20.6007 703.622 18.9483C690.234 12.1831 680.624 8.55565 663.897 8.55565C653.193 8.55565 646.567 12.8441 637.507 16.368C632.741 18.2236 628.975 18.2594 623.74 19.7685C601.494 26.1833 572.626 23.8061 551.304 34.7801L495.077 80.8859C489.739 85.3456 470.412 91.187 470.146 91.187C463.835 91.187 434.809 80.8501 424.65 77.5054C419.361 75.7613 417.451 72.5878 412.748 70.0673C403.788 65.2691 407.887 54.2195 393.728 50.9504C382.447 48.3502 366.099 50.4686 354.98 50.4686C336.005 50.4686 329.734 45.8019 316.724 57.3731C313.138 60.5586 311.052 61.0802 307.845 63.8914C297.929 72.5599 307.007 79.2096 257.429 79.2096C244.252 79.2096 231.057 74.4632 220.335 71.2777C209.928 68.1799 197.923 65.4563 186.755 65.301C180.119 65.2094 188.138 66.0376 181.551 66.0376C179.722 66.0376 165.775 59.9096 161.279 58.8106C137.038 52.8736 113.422 66.0376 84.0002 66.0376C67.1741 66.0376 75.0984 43.7751 84.8291 39.2239C94.3888 34.7483 100.259 38.3359 100.259 25.3192C100.259 19.4699 86.7167 18.3191 76.4273 12.8521C52.7851 0.281369 54.7132 -5.5799 42.9507 6.99876C40.4909 9.62678 36.5941 11.7372 35.2967 14.4767C31.5485 22.4005 38.8061 22.3647 25.5704 28.7596L11.5373 35.5207C5.8565 37.6351 5.23481 39.5902 4.38336 44.7626C2.90122 53.7696 0 62.3425 0 70.8278Z" fill="#3D4A59"/>
</svg>
