<svg xmlns="http://www.w3.org/2000/svg" width="30" height="30" viewBox="0 0 30 30" fill="none">
    <path d="M15.5269 29.2795V29.2794L15.5174 29.2796C12.8804 29.3293 10.2696 28.7576 7.90187 27.6121L7.75225 27.5397L7.58906 27.5713L1.04334 28.8389L2.30875 22.4796L2.34414 22.3017L2.25728 22.1425C-0.0632312 17.8897 -0.0669397 12.4684 2.13581 8.1143C4.32711 3.78283 8.70538 0.5 15.2042 0.5C20.0012 0.5 23.555 2.30441 25.9182 4.98378C28.2898 7.67279 29.4878 11.2733 29.4999 14.8914C29.512 18.5097 28.3379 22.1106 26.0114 24.7993C23.6935 27.4779 20.2086 29.2795 15.5269 29.2795ZM23.5824 23.5269L23.7946 23.9796L24.0592 23.8556L24.081 23.5642L24.4586 18.5242L24.4898 18.1073L24.085 18.0027L18.2502 16.4955L18.0672 16.4482L17.8988 16.5338L15.9594 17.5183L12.5362 14.2485L13.5589 12.3907L13.6545 12.217L13.6051 12.0249L12.0949 6.15844L11.995 5.77059L11.5947 5.78334L6.91653 5.93238L6.57401 5.94329L6.46062 6.26668L6.93245 6.43212C6.46062 6.26668 6.4605 6.26703 6.46037 6.2674L6.46007 6.26825L6.45934 6.27035L6.45735 6.27619L6.45134 6.29433C6.44647 6.30926 6.43995 6.32987 6.43211 6.35601C6.41642 6.40827 6.39545 6.48265 6.37194 6.57792C6.32492 6.76843 6.26766 7.04272 6.22215 7.39092C6.13112 8.08739 6.08702 9.0802 6.26624 10.2893C6.62587 12.7154 7.87946 15.9763 11.3863 19.4388C14.8856 22.8937 17.9449 24.0633 20.172 24.3426C21.2816 24.4818 22.1724 24.3983 22.7935 24.2762C23.1037 24.2152 23.3464 24.1446 23.5152 24.0876C23.5996 24.059 23.6655 24.0339 23.7124 24.0149C23.7358 24.0055 23.7544 23.9975 23.7681 23.9915L23.785 23.984L23.7907 23.9814L23.7929 23.9804L23.7938 23.98C23.7942 23.9798 23.7946 23.9796 23.5824 23.5269Z" stroke="#526172"/>
</svg>