<svg xmlns="http://www.w3.org/2000/svg" width="26" height="30" viewBox="0 0 26 30" fill="none">
    <path d="M24.3153 28.3995C24.3645 28.3815 24.4028 28.3696 24.4336 28.36C24.5403 28.3268 24.5589 28.321 24.6375 28.1835C24.9405 27.6552 25.1406 25.2204 25.1406 24.4761C25.1406 22.0527 24.4782 19.5066 22.3695 18.0456M24.3153 28.3995L24.1543 27.9261L24.1491 27.9279M24.3153 28.3995L24.1432 27.9301C24.1452 27.9293 24.1471 27.9286 24.1491 27.9279M24.3153 28.3995L23.1012 28.8126C20.4651 29.5296 17.2188 29.9157 13.932 30L14.8376 16.4477M24.1491 27.9279C24.1746 27.9186 24.198 27.9106 24.2187 27.9037M24.1491 27.9279L22.955 28.3342C20.3735 29.0345 17.178 29.4162 13.9256 29.5H11.1622C8.55333 29.4328 6.02922 29.1768 3.88632 28.7489L3.88612 28.7488C3.64897 28.7016 2.89813 28.528 2.18015 28.3285C1.82101 28.2287 1.48053 28.1253 1.22089 28.0307C1.0901 27.9831 0.990585 27.9415 0.923268 27.9079C0.92297 27.9077 0.922664 27.9076 0.922369 27.9074C0.913146 27.8776 0.90269 27.8408 0.89121 27.7967C0.856552 27.6636 0.819591 27.4924 0.784095 27.3102C0.715483 26.9581 0.657795 26.5936 0.637505 26.4441L0.500012 24.459C0.503848 21.6932 1.43719 19.4767 3.03646 18.4669C3.54354 18.1469 4.01863 17.955 4.53779 17.7717C4.65349 17.7309 4.77288 17.69 4.89587 17.6479C5.31762 17.5035 5.78169 17.3447 6.28425 17.1227L6.28427 17.1226C6.62069 16.974 7.27691 16.6584 7.89912 16.3169C8.21022 16.1461 8.52016 15.9648 8.78027 15.7915C8.87578 15.7278 8.973 15.6598 9.06491 15.589C9.07153 15.5945 9.07819 15.6001 9.0849 15.6057C9.09833 15.6169 9.1121 15.6285 9.12624 15.6404C9.22631 15.7245 9.34434 15.8237 9.48128 15.9212L9.48146 15.9213C10.2939 16.4993 11.1216 16.9116 12.0176 17.0322C12.9234 17.1541 13.8477 16.971 14.8376 16.4477M24.2187 27.9037C24.2131 27.9168 24.2081 27.9271 24.2038 27.9347L24.2035 27.9353C24.1926 27.9543 24.1859 27.9654 24.1817 27.9719C24.1775 27.9785 24.1789 27.9758 24.1848 27.9684C24.19 27.962 24.1988 27.9517 24.2114 27.9398C24.2115 27.9396 24.2117 27.9395 24.2118 27.9394C24.2154 27.936 24.2192 27.9326 24.2233 27.929C24.2433 27.9119 24.2641 27.8981 24.2836 27.8876C24.3014 27.878 24.3141 27.8734 24.3152 27.873L24.3154 27.8729C24.3154 27.8729 24.3142 27.8733 24.3112 27.8743L24.2949 27.8795C24.2919 27.8804 24.2886 27.8814 24.2851 27.8825C24.2681 27.8878 24.2456 27.8948 24.2187 27.9037ZM24.2187 27.9037C24.2503 27.8289 24.3 27.6628 24.3532 27.3902C24.4111 27.0938 24.4628 26.7309 24.5059 26.3539C24.5927 25.5964 24.6406 24.8222 24.6406 24.4761C24.6406 22.1189 23.9945 19.7797 22.0848 18.4566M22.0848 18.4566C22.0848 18.4566 22.0848 18.4566 22.0848 18.4566L22.3695 18.0456M22.0848 18.4566L22.3695 18.0456M22.0848 18.4566C21.7004 18.1904 21.2972 18.0398 20.7601 17.8391C20.7046 17.8184 20.6475 17.7971 20.5889 17.775M22.3695 18.0456C21.931 17.7419 21.4682 17.5694 20.9416 17.3731C20.8835 17.3514 20.8246 17.3294 20.7648 17.307M20.7648 17.307L20.5889 17.775M20.7648 17.307C20.6099 17.2488 20.4565 17.1918 20.3044 17.1354C19.0717 16.6777 17.9245 16.2518 16.7454 15.4389L16.4449 15.2447C16.3585 15.3571 16.2265 15.475 16.1072 15.5741C16.1032 15.5773 16.0993 15.5806 16.0953 15.5839M20.7648 17.307L20.5889 17.775C20.5889 17.775 20.5889 17.775 20.5889 17.775M20.5889 17.775C20.4356 17.7174 20.2827 17.6607 20.1302 17.6041C18.9012 17.1483 17.695 16.7009 16.4616 15.8505L16.4616 15.8505C16.3477 15.772 16.24 15.6917 16.1428 15.6193C16.1266 15.6073 16.1108 15.5955 16.0953 15.5839M16.0953 15.5839C15.9687 15.6883 15.8216 15.7998 15.6737 15.9065C15.3742 16.1225 15.0403 16.3406 14.8376 16.4477M16.0953 15.5839L14.8376 16.4477M7.47588 6.50753L7.44788 6.60149C7.39487 6.77934 7.26262 6.88268 7.23519 6.9041C7.23388 6.90513 7.2328 6.90597 7.23199 6.90662C7.21222 6.92244 7.19102 6.93812 7.17758 6.94805L7.17381 6.95084C7.15794 6.9626 7.14662 6.97106 7.13576 6.97969C7.09916 7.00875 7.07845 7.03132 7.06196 7.06753C7.02618 7.14608 6.94053 7.45843 7.28532 8.32883L7.47588 6.50753ZM7.47588 6.50753L7.46632 6.40995M7.47588 6.50753L7.46632 6.40995M7.46632 6.40995C7.26151 4.31864 7.85675 2.85112 8.78695 1.90806C9.72686 0.955153 11.0582 0.487522 12.4063 0.500252L12.4063 0.500252M7.46632 6.40995L12.4063 0.500252M16.8799 9.3141L16.8799 9.3139C16.9303 9.14042 17.0253 8.96681 17.1029 8.82814C17.1211 8.79565 17.1392 8.76357 17.1573 8.73156C17.2256 8.61072 17.2932 8.49109 17.3601 8.35558C17.5235 8.02421 17.6608 7.63704 17.6608 7.15408C17.6608 7.12981 17.6586 7.11704 17.6576 7.11236L16.8799 9.3141ZM16.8799 9.3141C16.6118 10.2392 16.0807 11.3028 15.3133 12.1361C14.5496 12.9655 13.5777 13.5418 12.4097 13.5777C11.36 13.6099 10.3586 13.0709 9.52472 12.2363C8.69235 11.4032 8.08264 10.328 7.81697 9.42082L16.8799 9.3141ZM12.4063 0.500252C15.1144 0.525731 17.3959 2.65091 17.3044 5.83454L12.4063 0.500252ZM7.4844 8.6803C7.60558 8.84095 7.69894 9.01761 7.81695 9.42076L7.4844 8.6803ZM7.4844 8.6803C7.468 8.65855 7.45557 8.64248 7.4454 8.62935M7.4844 8.6803L7.4454 8.62935M7.4454 8.62935C7.42315 8.60059 7.41178 8.5859 7.39342 8.55639M7.4454 8.62935L7.39342 8.55639M7.39342 8.55639C7.37035 8.5193 7.33521 8.45467 7.28536 8.32893L7.39342 8.55639ZM0.866785 27.8765C0.863145 27.874 0.863776 27.8741 0.867449 27.8769L0.866785 27.8765Z" stroke="#526172"/>
</svg>