<svg xmlns="http://www.w3.org/2000/svg" width="16" height="16" viewBox="0 0 16 16">
    <path fill-rule="evenodd" clip-rule="evenodd" d="M4.64408 12.2662C5.20904 12.2662 5.21512 11.6542 6.00008 10.8732C7.19032 9.68912 9.02088 9.78224 9.97688 10.8398C10.4472 11.3602 10.9395 12.2662 11.3718 12.2662C11.7926 12.2662 12.2542 11.8523 11.6797 11.1625C11.2174 10.6074 10.917 10.15 10.3428 9.67816C9.18744 8.72864 7.30192 8.6964 6.13896 9.34832C5.39408 9.76576 3.9408 11.275 4.10784 11.8569C4.18184 12.1147 4.3404 12.2662 4.64408 12.2662ZM8 0C10.209 0 12.2091 0.89552 13.6568 2.3432C15.1046 3.79088 16 5.79096 16 8C16 10.209 15.1046 12.2091 13.6568 13.6568C12.2091 15.1046 10.209 16 8 16C5.79096 16 3.79088 15.1046 2.3432 13.6568C0.89552 12.2091 0 10.209 0 8C0 5.79096 0.89552 3.79088 2.3432 2.3432C3.79088 0.89552 5.79096 0 8 0ZM12.975 3.02504C11.7018 1.75192 9.94288 0.9644 8 0.9644C6.05712 0.9644 4.29816 1.75192 3.02504 3.02504C1.75192 4.29816 0.9644 6.05712 0.9644 8C0.9644 9.94288 1.75192 11.7018 3.02504 12.975C4.29816 14.2481 6.05712 15.0356 8 15.0356C9.94288 15.0356 11.7018 14.2481 12.975 12.975C14.2481 11.7018 15.0356 9.94288 15.0356 8C15.0356 6.05712 14.2481 4.29816 12.975 3.02504ZM4.05096 7.16464C4.05096 8.41808 5.58152 8.32984 5.58152 7.26672C5.58152 6.7968 5.29392 6.52984 4.85088 6.50776C4.53552 6.49192 4.05096 6.77656 4.05096 7.16464ZM10.1544 7.18408C10.1544 8.8764 12.4154 7.9012 11.5634 6.79912C11.0836 6.17872 10.1544 6.70992 10.1544 7.18408ZM6.88664 6.6236C7.27392 6.6236 7.46536 6.36096 7.46536 6.11728C7.46536 5.71368 6.59368 4.9924 6.18136 4.58C5.76376 4.16248 5.0496 3.296 4.64408 3.296C4.12168 3.296 3.94832 3.85392 4.2272 4.21712L5.89192 5.88216C6.12888 6.11904 6.48704 6.6236 6.88664 6.6236ZM9.1292 6.6236C9.5508 6.6236 9.60552 6.40048 9.9792 6.0268C10.3884 5.61752 11.9505 4.18392 11.9505 3.87472C11.9505 3.46624 11.6872 3.296 11.2994 3.296C10.9874 3.296 9.81608 4.59848 9.54512 4.86936C9.2872 5.12728 8.93144 5.424 8.73336 5.72336C8.46304 6.13184 8.55928 6.6236 9.1292 6.6236Z"/>
</svg>