<svg xmlns="http://www.w3.org/2000/svg" width="9" height="12" viewBox="0 0 9 12" fill="none">
    <path fill-rule="evenodd" clip-rule="evenodd" d="M2.24811 4.38276C2.24811 2.41584 4.62381 1.44576 6.07764 2.79144L6.20777 2.92356C6.2598 2.97552 6.29084 3.01872 6.33666 3.08016C6.79784 3.69732 6.89594 4.53888 6.55719 5.24232C6.43016 5.5062 6.30984 5.67276 6.11042 5.86524C5.30056 6.6468 4.0952 6.73344 3.19407 6.11712C3.0689 6.03156 3.00657 5.97108 2.89692 5.86524C2.6975 5.67276 2.57717 5.5062 2.45014 5.24232C2.34335 5.02056 2.24811 4.69728 2.24811 4.38276ZM4.25228 0H4.7671C5.11752 0.01992 5.46918 0.08064 5.8165 0.18444C6.36684 0.34896 7.11908 0.73092 7.51743 1.11876L7.84463 1.43532C8.15283 1.72848 8.4357 2.22888 8.62705 2.60112L8.8107 3.07992C9.09332 4.04652 9.04974 4.9338 8.74489 5.80956C8.6201 6.168 8.44638 6.633 8.27117 6.96888L8.04952 7.41108C8.00506 7.48452 7.98296 7.53132 7.93962 7.60944C7.8938 7.69188 7.86375 7.73052 7.81818 7.82028C7.64471 8.16168 6.90786 9.27444 6.66585 9.58956C6.17151 10.2331 5.62589 10.9792 5.07953 11.5721C4.82634 11.8469 4.79467 12 4.45518 12C4.22695 12 3.90124 11.5516 3.76216 11.3807C3.65687 11.2512 3.56224 11.147 3.45521 11.021C3.05164 10.5466 2.20428 9.43296 1.92265 8.98644C1.66847 8.58348 1.4005 8.22168 1.16519 7.77312C1.12136 7.68948 1.09491 7.662 1.05132 7.57848C1.00824 7.49568 0.968625 7.43988 0.931869 7.36584L0.615102 6.711C0.470936 6.42108 0.366381 6.10956 0.256239 5.79216C0.153051 5.49528 0.0584303 5.08692 0.0204331 4.731C-0.0916959 3.68052 0.266422 2.55744 0.879592 1.7712C1.08349 1.50972 1.07976 1.53276 1.27062 1.32876L1.70063 0.9474C2.45188 0.38052 3.33761 0.05208 4.25228 0Z" fill="black" fill-opacity="0.5"/>
</svg>