<?xml version="1.0" encoding="UTF-8"?>
<!DOCTYPE svg PUBLIC "-//W3C//DTD SVG 1.1//EN" "http://www.w3.org/Graphics/SVG/1.1/DTD/svg11.dtd">
<!-- Creator: CorelDRAW 2019 (64-Bit) -->
<svg xmlns="http://www.w3.org/2000/svg" xml:space="preserve" width="37.1mm" height="37.1mm" version="1.1" style="shape-rendering:geometricPrecision; text-rendering:geometricPrecision; image-rendering:optimizeQuality; fill-rule:evenodd; clip-rule:evenodd"
viewBox="0 0 3710 3710"
 xmlns:xlink="http://www.w3.org/1999/xlink">
 <defs>
  <style type="text/css">
   <![CDATA[
    .fil0 {fill:#BDC9C9}
   ]]>
  </style>
 </defs>
 <g id="Слой_x0020_1">
  <metadata id="CorelCorpID_0Corel-Layer"/>
  <path id="Морда.svg" class="fil0" d="M3691.06 1874.15c0,-1022.89 -829.2,-1852.09 -1852.1,-1852.09 -1022.89,0 -1852.09,829.2 -1852.09,1852.09 0,475.66 179.36,909.36 474.06,1237.34 43.74,-124.3 108.18,-197.96 229.44,-258.21 319.41,-158.77 799.17,-209.05 804.94,-649.12 1.91,-145.25 -67.16,-162.68 -119.7,-246.48 -39.48,-62.97 -60.09,-219.61 -98.26,-261.03 -18.11,-19.62 -38.92,-34.6 -65.24,-58.84 -55.84,-51.4 -92.9,-220.99 -67.16,-276.34 10.25,-22.07 35.59,-25.2 43.61,-46.93 7.56,-20.46 9.46,-56.07 -3.17,-135.63 -22.49,-133.84 -5.51,-258.35 19.07,-365.94 72.67,-317.85 329.67,-412.01 625.36,-420.04 330.96,-8.98 575.9,70.05 678.39,408.37 31.43,103.7 61.35,217.4 35.94,377.61 -13.61,84.14 -10.88,118.6 -2.31,138.11 8.98,20.39 35.93,18.6 45.78,46.06 19.52,54.49 -14.42,206.61 -57.71,257.58 -28.93,34.06 -56.98,53.52 -77.72,75.99 -38.2,41.44 -58.76,198.06 -98.26,261.03 -52.05,83 -121.59,102.51 -119.72,246.45 5.62,435.27 487.84,491.51 804.94,649.15 86.65,43.06 187.17,101.89 238.15,187.59 258.69,-318.48 413.76,-724.46 413.76,-1166.72z"/>
 </g>
</svg>
