<?xml version="1.0" encoding="UTF-8"?>
<!DOCTYPE svg PUBLIC "-//W3C//DTD SVG 1.1//EN" "http://www.w3.org/Graphics/SVG/1.1/DTD/svg11.dtd">
<!-- Creator: CorelDRAW 2019 (64-Bit) -->
<svg xmlns="http://www.w3.org/2000/svg" xml:space="preserve" width="7.3mm" height="7.3mm" version="1.1" style="shape-rendering:geometricPrecision; text-rendering:geometricPrecision; image-rendering:optimizeQuality; fill-rule:evenodd; clip-rule:evenodd"
viewBox="0 0 730 730"
 xmlns:xlink="http://www.w3.org/1999/xlink">
 <defs>
  <style type="text/css">
   <![CDATA[
    .str0 {stroke:#526172;stroke-width:26.46;stroke-miterlimit:22.9256}
    .fil0 {fill:none}
   ]]>
  </style>
 </defs>
 <g id="Слой_x0020_1">
  <metadata id="CorelCorpID_0Corel-Layer"/>
  <path id="FB.svg" class="fil0 str0" d="M531.09 320.5l62.76 0 0 -139.66c-37.62,-4.98 -73.36,-7.97 -111.44,-7.5 -63.15,0.02 -107.45,20.08 -134.96,62.37 -26.51,40.74 -35.84,99.95 -35.92,174.65l-60.6 4.16 -1.08 120.99 61.42 -1.19c-0.06,64.16 -0.5,128.33 -0.87,192.49 -47.05,-1 -93.03,-1.92 -130.76,-1.92 -74.82,0 -119.67,-22.08 -146.33,-55.62 -27.16,-34.17 -37.55,-82.8 -37.55,-140.12 0,-96.92 2.29,-193.83 2.29,-290.68 0,-64.05 14.17,-111.22 43.39,-142.42 29.07,-31.04 75.34,-48.73 145.14,-48.73 107.08,0 214.15,-0.51 321.23,-0.51 63.96,0 107.92,13.31 136.28,42.86 28.51,29.72 44.03,78.71 44.03,156.79 0,117.63 -1.32,236.34 -5.14,354 -0.99,30.6 -18.28,69.83 -43.01,89.03 -38.93,30.23 -95.9,38.01 -130.25,38.87l-37.7 0.95 -4.21 -197.98 96.5 -1.91 22.62 -132.95 -120.29 6.61 4.53 -34.52c5.16,-39.17 22.36,-48.06 59.92,-48.06z"/>
 </g>
</svg>
