<?xml version="1.0" encoding="UTF-8"?>
<!DOCTYPE svg PUBLIC "-//W3C//DTD SVG 1.1//EN" "http://www.w3.org/Graphics/SVG/1.1/DTD/svg11.dtd">
<!-- Creator: CorelDRAW 2019 (64-Bit) -->
<svg xmlns="http://www.w3.org/2000/svg" xml:space="preserve" width="5.5mm" height="5.5mm" version="1.1" style="shape-rendering:geometricPrecision; text-rendering:geometricPrecision; image-rendering:optimizeQuality; fill-rule:evenodd; clip-rule:evenodd"
viewBox="0 0 550 550"
 xmlns:xlink="http://www.w3.org/1999/xlink">
 <defs>
  <style type="text/css">
   <![CDATA[
    .str0 {stroke:#526171;stroke-width:26.46;stroke-miterlimit:22.9256}
    .fil0 {fill:none}
   ]]>
  </style>
 </defs>
 <g id="Слой_x0020_1">
  <metadata id="CorelCorpID_0Corel-Layer"/>
  <path id="icon.svg" class="fil0 str0" d="M267.86 533.32c68.98,-0.54 136.82,-4.32 203.88,-27.13 2.12,-8.5 3.17,-15.7 4.15,-24.37 5.47,-47.72 2.55,-105.12 -40.83,-135.17 -13.86,-9.6 -101.17,-52.26 -104.06,-49.89 -44.65,36.7 -79.91,38.31 -126.44,0.01 -2.89,-2.37 -90.2,40.29 -104.06,49.89 -43.38,30.05 -46.3,87.45 -40.83,135.17 0.98,8.67 2.03,15.87 4.15,24.37 39.45,13.42 79.19,20.25 119.25,23.71 24.43,2.11 60.83,4.91 84.79,3.41zm-81.15 -413.35c1.35,7.7 1.58,12.29 -0.59,17.74 -7.55,18.91 3.38,24.27 7.92,42.83 9.22,31.79 34.29,68.93 72.12,71.88 0.85,0.06 1.52,0.06 2.36,0.06 38.33,-2.43 63.71,-39.92 73,-71.95 4.54,-18.56 15.47,-23.92 7.92,-42.83 -2.17,-5.45 -1.94,-10.04 -0.59,-17.74 1.32,-51.42 -33.19,-87.42 -80.93,-89.26 -50.04,1.43 -82.47,40.35 -81.21,89.27z"/>
 </g>
</svg>
