<svg xmlns="http://www.w3.org/2000/svg" width="11" height="15" viewBox="0 0 11 15" fill="none">
    <path fill-rule="evenodd" clip-rule="evenodd" d="M1 5.181C1 2.76263 2.87124 1 5.24503 1C7.61883 1 9.49007 2.76263 9.49007 5.181C9.49007 5.5622 9.3559 6.1463 9.06557 6.91085C8.78314 7.65458 8.3849 8.48805 7.93089 9.33957C7.03969 11.0111 5.96998 12.6848 5.24503 13.7723C4.52009 12.6848 3.45038 11.0111 2.55917 9.33957C2.10516 8.48805 1.70692 7.65458 1.4245 6.91085C1.13417 6.1463 1 5.5622 1 5.181ZM5.24503 0C2.34828 0 0 2.18147 0 5.181C0 7.44461 2.9871 12.193 4.45281 14.3867C4.8346 14.9581 5.65547 14.9581 6.03725 14.3867C7.50297 12.193 10.4901 7.44462 10.4901 5.181C10.4901 2.18147 8.14179 0 5.24503 0ZM5.24528 6.756C6.21086 6.756 6.99362 5.99982 6.99362 5.06701C6.99362 4.13421 6.21086 3.37803 5.24528 3.37803C4.27969 3.37803 3.49693 4.13421 3.49693 5.06701C3.49693 5.99982 4.27969 6.756 5.24528 6.756Z" fill="#526172"/>
</svg>