<svg width="16" height="16" viewBox="0 0 16 16" fill="none" xmlns="http://www.w3.org/2000/svg">
<path d="M6.22704 2.7542C6.89956 1.0143 7.23581 0.144348 7.78212 0.0237774C7.92577 -0.0079258 8.07423 -0.0079258 8.21788 0.0237774C8.76418 0.144348 9.10044 1.0143 9.77296 2.7542C10.1554 3.74364 10.3466 4.23837 10.7044 4.57486C10.8048 4.66924 10.9137 4.7533 11.0297 4.82585C11.4433 5.08452 11.9596 5.13251 12.9921 5.22847C14.74 5.39092 15.6139 5.47214 15.8808 5.98926C15.936 6.09636 15.9736 6.21232 15.9919 6.33231C16.0804 6.9117 15.438 7.51829 14.153 8.73148L13.7962 9.06838C13.1954 9.63557 12.8951 9.91916 12.7213 10.2731C12.6171 10.4854 12.5472 10.714 12.5145 10.9499C12.4599 11.343 12.5479 11.7544 12.7238 12.5772L12.7866 12.8712C13.1021 14.3468 13.2599 15.0846 13.0629 15.4473C12.8861 15.773 12.5603 15.9816 12.2004 15.9994C11.7997 16.0193 11.2352 15.5419 10.1061 14.5871C9.36224 13.958 8.99029 13.6435 8.5774 13.5206C8.20007 13.4084 7.79993 13.4084 7.4226 13.5206C7.00971 13.6435 6.63777 13.958 5.89389 14.5871C4.7648 15.5419 4.20026 16.0193 3.79961 15.9994C3.43972 15.9816 3.11393 15.773 2.93705 15.4473C2.74015 15.0846 2.89789 14.3468 3.21336 12.8712L3.27621 12.5772C3.45213 11.7544 3.54009 11.343 3.4855 10.9499C3.45276 10.714 3.38288 10.4854 3.27866 10.2731C3.10493 9.91916 2.80456 9.63557 2.20382 9.06838L1.847 8.73149C0.562049 7.5183 -0.0804262 6.9117 0.00805212 6.33231C0.0263768 6.21232 0.0639569 6.09636 0.11923 5.98926C0.386109 5.47214 1.26005 5.39092 3.00792 5.22847C4.04044 5.13251 4.5567 5.08452 4.97026 4.82585C5.08626 4.7533 5.19521 4.66924 5.29557 4.57486C5.65337 4.23837 5.8446 3.74364 6.22704 2.7542Z" fill="#FB7437"/>
</svg>
