<svg width="1170" height="753" viewBox="0 0 1170 753" fill="none" xmlns="http://www.w3.org/2000/svg">
<path fill-rule="evenodd" clip-rule="evenodd" d="M0 103.359C0 136.062 13.5662 134.348 20.048 156.841C31.0518 195.029 19.9719 192.077 63.6539 214.89C90.1427 228.72 78.1268 234.635 94.5243 252.387C99.8888 258.192 114.356 260.853 114.356 267.628C114.356 275.961 107.938 287.327 104.095 292.388L85.7493 310.866C83.7486 312.719 83.0524 313.335 81.157 315.038C76.477 319.239 80.221 314.468 76.8514 319.495C73.8036 324.039 73.9381 328.217 71.1126 333.022L67.158 337.886C58.734 344.899 44.5887 333.946 24.1956 345.841C4.22955 357.491 19.3577 364.627 19.3577 377.73C19.3577 386.934 11.5069 403.216 12.4488 414.273C13.5135 426.848 31.6719 436.982 31.6719 440.642C31.6719 443.769 25.9857 468.987 24.9268 470.643L0 484.328C0.27495 496.658 15.1457 509.424 22.2534 519.895C24.4647 523.137 23.0841 521.708 25.9564 524.962L42.939 541.29C51.0764 547.112 63.3789 552.359 72.7096 555.416C105.037 565.98 84.4038 573.859 104.931 612.529L111.987 621.257C124.312 632.786 113.993 638.201 110.144 651.409C108.225 657.998 106.792 666.633 107.271 674.786C107.792 683.554 110.144 687.958 108.833 699.022C106.622 717.779 100.737 728.662 123.336 732.312C129.133 733.253 140.453 735.333 144.741 735.548C161.753 736.379 157.921 716.762 174.184 716.762C183.52 716.762 180.238 721.684 188.733 719.115C197.303 716.53 192.137 715.6 205.528 714.63C219.621 713.607 227.501 723.752 242.5 716.489C254.633 710.614 268.796 709.58 280.121 703.072C296.8 693.49 303.978 711.765 315.643 687.749C322.06 674.547 324.845 680.062 344.84 680.062C349.069 680.062 350.017 677.232 353.638 674.82C366.491 683.368 366.947 688.51 384.07 682.322C410.348 672.833 400.415 675.442 411.349 696.134C419.246 711.085 432.467 705.205 442.857 717.268C446.086 721.021 446.53 725.496 452.164 725.496C466.467 725.496 452.065 703.153 486.749 720.853C497.039 726.106 510.851 728.267 520.042 734.973C534.403 745.45 535.971 759.198 559.465 749.947C563.665 748.291 562.928 747.896 568.398 746.583C573.329 745.386 574.803 745.496 579.916 744.043C586.018 742.312 596.794 735.984 599.953 735.984C609.623 735.984 614.66 738.488 623.61 736.885C632.8 735.234 638.645 730.743 645.7 730.743C652.41 730.743 654.106 735.984 661.536 735.984C666.444 735.984 703.667 726.071 708.862 718.337C718.006 704.728 714.115 679.335 708.85 666.267C704.246 654.826 695.565 651.688 693.202 641.612C714.519 617.259 725.453 636.371 738.949 636.371C749.742 636.371 739.048 623.082 749.075 614.976C756.715 608.805 763.946 612.024 775.558 609.816C796.946 605.76 777.383 575.318 802.252 573.423C856.142 569.327 844.816 572.889 873.118 549.32C884.38 539.942 892.248 558.036 906.259 545.665L916.648 540.256C925.575 546.188 932.437 556.81 939.955 564.283C947.419 571.698 960.061 585.695 971.188 585.695C976.5 585.695 978.418 580.193 981.724 576.933C997.846 561.029 999.882 576.956 1020.45 576.956C1024.38 560.21 1038.55 571.709 1052.12 571.709C1054.25 571.709 1060.92 565.492 1060.92 562.97C1060.92 549.994 1050.33 538.768 1041.84 531.249C1041.46 530.906 1040.34 529.953 1039.97 529.61C1038.22 527.966 1039.82 529.727 1037.35 526.972L1018.17 504.043C1008.17 494.066 1014 493.322 1016.93 480.835C995.108 466.32 1007.15 473.932 1003.08 461.207C1001.75 457.064 983.976 445.454 979.986 445.884L958.914 447.97C958.815 419.875 979.688 429.434 988.036 422.426C991.756 419.3 990.247 414.384 991.809 408.695C993.874 401.199 994.014 405.034 1000.19 401.292C1007.2 397.033 1005.02 388.84 1013.97 387.195C1019.54 386.173 1026.65 388.695 1036.29 386.469C1041.52 375.621 1038.25 377.974 1037.94 365.51C1037.71 356.108 1039.8 352.11 1039.8 341.029C1039.8 321.825 1036.56 307.949 1042.12 289.163C1045.42 278.053 1048.35 271.818 1043.32 262.387C1048.24 260.045 1052.41 259.952 1056.95 256.704C1069.91 247.453 1068.16 225.611 1078.76 215.448C1084.91 209.556 1085.22 212.612 1095.05 210.654C1135.67 202.56 1119.96 212.897 1141.85 218.696C1149.02 213.931 1170 190.038 1170 175.005C1170 165.807 1164.88 160.845 1164.65 150.612C1164.38 138.508 1165.37 132.831 1162.96 122.581C1135.3 116.178 1116.59 125.091 1081.72 108.914C1072.02 104.417 1057.81 99.2568 1053.3 89.9538C1048.24 79.5119 1047.27 57.9193 1034.53 57.9193C1027.32 57.9193 1013.36 66.3681 1003.75 67.3385C1001.69 67.5477 999.952 67.8847 996.823 65.7928C996.097 65.3106 994.184 63.3233 994.091 63.2129C986.287 53.7472 990.259 49.1858 974.704 49.1858C944.348 49.1858 956.235 59.1686 923.937 34.9437C920.164 32.1139 917.935 30.0627 913.694 27.6513C896.308 17.7788 883.83 12.4853 862.109 12.4853C848.209 12.4853 839.604 18.7434 827.839 23.8859C821.65 26.5937 816.759 26.646 809.962 28.8483C781.074 38.2093 743.588 34.7403 715.9 50.7547L642.886 118.037C635.954 124.545 610.857 133.069 610.512 133.069C602.316 133.069 564.624 117.985 551.433 113.104C544.565 110.559 542.084 105.928 535.977 102.249C524.341 95.2474 529.665 79.1226 511.278 74.352C496.63 70.5576 475.4 73.6489 460.962 73.6489C436.322 73.6489 428.179 66.8388 411.284 83.7247C406.628 88.3733 403.919 89.1345 399.754 93.2369C386.878 105.887 398.666 115.591 334.287 115.591C317.175 115.591 300.041 108.664 286.118 104.016C272.604 99.495 257.014 95.5205 242.512 95.2939C233.895 95.1602 244.308 96.3688 235.755 96.3688C233.38 96.3688 215.268 87.4262 209.43 85.8224C177.951 77.1586 147.285 96.3688 109.079 96.3688C87.2293 96.3688 97.5195 63.8811 110.156 57.2395C122.569 50.7082 130.192 55.9437 130.192 36.9484C130.192 28.4125 112.607 26.7332 99.2452 18.755C68.5444 0.410601 71.0482 -8.14277 55.7739 10.2133C52.5798 14.0484 47.5196 17.1281 45.8347 21.1258C40.9675 32.6892 50.3919 32.6369 33.2046 41.9689L14.9818 51.8355C7.605 54.921 6.7977 57.7741 5.69205 65.3222C3.7674 78.466 0 90.9765 0 103.359Z" fill="#526172" fill-opacity="0.1"/>
</svg>
