<svg width="30" height="30" viewBox="0 0 30 30" fill="none" xmlns="http://www.w3.org/2000/svg">
<path fill-rule="evenodd" clip-rule="evenodd" d="M9.88099 1.87877C12.5621 0.869667 15.492 0.725732 18.2591 1.46718C18.5258 1.53865 18.8 1.38036 18.8714 1.11362C18.9429 0.846891 18.7846 0.572722 18.5179 0.501251C15.549 -0.294272 12.4054 -0.13984 9.52874 0.94286C6.65208 2.02556 4.18681 3.98214 2.47917 6.5378C0.771535 9.09346 -0.0926882 12.1198 0.00787948 15.1918C0.108447 18.2639 1.16875 21.2272 3.03988 23.6657C4.91101 26.1042 7.49897 27.8954 10.4403 28.7876C13.3816 29.6799 16.5285 29.6284 19.4391 28.6404C22.3496 27.6524 24.8776 25.7775 26.6679 23.2791C28.4583 20.7807 29.4211 17.7842 29.4211 14.7105C29.4211 14.4344 29.1972 14.2105 28.9211 14.2105C28.6449 14.2105 28.4211 14.4344 28.4211 14.7105C28.4211 17.5753 27.5237 20.368 25.8551 22.6966C24.1864 25.0252 21.8303 26.7726 19.1176 27.6934C16.4049 28.6143 13.4719 28.6623 10.7306 27.8307C7.9892 26.9991 5.57717 25.3297 3.83324 23.057C2.0893 20.7842 1.10108 18.0223 1.00734 15.1591C0.913613 12.2959 1.71909 9.4753 3.31064 7.09337C4.9022 4.71144 7.19988 2.88787 9.88099 1.87877ZM27.2181 4.4855C27.3999 4.27768 27.3789 3.9618 27.171 3.77996C26.9632 3.59812 26.6474 3.61918 26.4655 3.827L16.0236 15.7607C15.8513 15.9575 15.5565 15.9883 15.3473 15.8314L9.77338 11.651C9.55247 11.4853 9.23906 11.5301 9.07338 11.751C8.90769 11.9719 8.95247 12.2853 9.17338 12.451L14.7473 16.6314C15.375 17.1022 16.2594 17.0097 16.7761 16.4192L27.2181 4.4855Z" fill="#409313"/>
</svg>
