<svg xmlns="http://www.w3.org/2000/svg" width="28" height="27" viewBox="0 0 28 27" fill="none">
    <path d="M18.3334 13.8574L22.2393 13.5762L22.8751 13.5305L22.7681 14.1588L22.0577 18.3325L21.9883 18.7403L21.5747 18.7485L18.3412 18.8125C18.381 21.2978 18.4453 24.1434 18.5001 26.2951H18.5728C21.6446 26.2951 23.6151 25.7985 24.8215 24.812C26.0005 23.8478 26.5544 22.3246 26.5592 19.9791L18.3334 13.8574ZM18.3334 13.8574C18.3609 13.2762 18.4098 12.8042 18.4845 12.4199C18.5816 11.9198 18.7162 11.6024 18.8744 11.3931C19.1621 11.0126 19.6431 10.8443 20.7328 10.8443H20.7368H20.7409H20.745H20.749H20.7531H20.7571H20.7612H20.7652H20.7693H20.7733H20.7774H20.7814H20.7855H20.7895H20.7936H20.7976H20.8017H20.8058H20.8098H20.8139H20.8179H20.822H20.826H20.8301H20.8342H20.8382H20.8423H20.8463H20.8504H20.8544H20.8585H20.8626H20.8666H20.8707H20.8747H20.8788H20.8829H20.8869H20.891H20.895H20.8991H20.9031H20.9072H20.9113H20.9153H20.9194H20.9234H20.9275H20.9315H20.9356H20.9397H20.9437H20.9478H20.9518H20.9559H20.9599H20.964H20.9681H20.9721H20.9762H20.9802H20.9843H20.9883H20.9924H20.9964H21.0005H21.0046H21.0086H21.0127H21.0167H21.0208H21.0248H21.0289H21.0329H21.037H21.041H21.0451H21.0491H21.0532H21.0572H21.0613H21.0653H21.0694H21.0734H21.0775H21.0815H21.0855H21.0896H21.0936H21.0977H21.1017H21.1058H21.1098H21.1138H21.1179H21.1219H21.126H21.13H21.134H21.1381H21.1421H21.1461H21.1502H21.1542H21.1582H21.1623H21.1663H21.1703H21.1744H21.1784H21.1824H21.1864H21.1905H21.1945H21.1985H21.2025H21.2066H21.2106H21.2146H21.2186H21.2226H21.2267H21.2307H21.2347H21.2387H21.2427H21.2467H21.2507H21.2548H21.2588H21.2628H21.2668H21.2708H21.2748H21.2788H21.2828H21.2868H21.2908H21.2948H21.2988H21.3028H21.3068H21.3108H21.3148H21.3188H21.3228H21.3268H21.3308H21.3347H21.3387H21.3427H21.3467H21.3507H21.3547H21.3586H21.3626H21.3666H21.3706H21.3745H21.3785H21.3825H21.3865H21.3904H21.3944H21.3984H21.4023H21.4063H21.4102H21.4142H21.4182H21.4221H21.4261H21.43H21.434H21.4379H21.4419H21.4458H21.4498H21.4537H21.4577H21.4616H21.4655H21.4695H21.4734H21.4773H21.4813H21.4852H21.4891H21.4931H21.497H21.5009H21.5048H21.5088H21.5127H21.5166H21.5205H21.5244H21.5283H21.5322H21.5361H21.54H21.5439H21.5478H21.5517H21.5556H21.5595H21.5634H21.5673H21.5712H21.5751H21.579H21.5829H21.5868H21.5906H21.5945H21.5984H21.6023H21.6061H21.61H21.6139H21.6177H21.6216H21.6255H21.6293H21.6332H21.637H21.6409H21.6447H21.6486H21.6524H21.6563H21.6601H21.6639H21.6678H21.6716H21.6755H21.6793H21.6831H21.6869H21.6908H21.6946H21.6984H21.7022H21.706H21.7098H21.7136H21.7175H21.7213H21.7251H21.7289H21.7327H21.7364H21.7402H21.744H21.7478H21.7516H21.7554H21.7592H21.7629H21.7667H21.7705H21.7743H21.778H21.7818H21.7855H21.7893H21.7931H21.7968H21.8006H21.8043H21.8081H21.8118H21.8155H21.8193H21.823H21.8267H21.8305H21.8342H21.8379H21.8416H21.8454H21.8491H21.8528H21.8565H21.8602H21.8639H21.8676H21.8713H21.875H21.8787H21.8824H21.8861H21.8897H21.8934H21.8971H21.9008H21.9044H21.9081H21.9118H21.9154H21.9191H21.9227H21.9264H21.93H21.9337H21.9373H21.941H21.9446H21.9483H21.9519H21.9555H21.9591H21.9628H21.9664H21.97H21.9736H21.9772H21.9808H21.9844H21.988H21.9916H21.9952H21.9988H22.0024H22.006H22.0095H22.0131H22.0167H22.0203H22.0238H22.0274H22.0309H22.0345H22.0381H22.0416H22.0451H22.0487H22.0522H22.0558H22.0593H22.0628H22.0663H22.0699H22.0734H22.0769H22.0804H22.0839H22.0874H22.0909H22.0944H22.0979H22.1014H22.1049H22.1084H22.1118H22.1153H22.1188H22.1223H22.1257H22.1292H22.1326H22.1361H22.1395H22.143H22.1464H22.1499H22.1533H22.1567H22.1601H22.1636H22.167H22.1704H22.1738H22.1772H22.1806H22.184H22.1874H22.1908H22.1942H22.1976H22.2009H22.2043H22.2077H22.2111H22.2144H22.2178H22.2211H22.2245H22.2278H22.2312H22.2345H22.2378H22.2412H22.2445H22.2478H22.2511H22.2544H22.2578H22.2611H22.2644H22.2677H22.2709H22.2742H22.2775H22.2808H22.2841H22.2873H22.2906H22.2939H22.2971H22.3004H22.3036H22.3069H22.3101H22.3134H22.3166H22.3198H22.323H22.3263H22.3295H22.3327H22.3359H22.3391H22.3423H22.3455H22.3487H22.3519H22.355H22.3582H22.3614H22.3645H22.3677H22.3709H22.374H22.3772H22.3803H22.3834H22.3866H22.3897H22.3928H22.396H22.3991H22.4022H22.4053H22.4084H22.4115H22.4146H22.4177H22.4207H22.4238H22.4269H22.43H22.433H22.4361H22.4391H22.4422H22.4452H22.4483H22.4513H22.4543H22.4573H22.4604H22.4634H22.4664H22.4694H22.4724H22.4754H22.4784H22.4814H22.4843H22.4873H22.4903H22.4932H22.4962H22.4992H22.5021H22.505H22.508H22.5109H22.5138H22.5168H22.5197H22.5226H22.5255H22.5284H22.5313H22.5342H22.5371H22.54H22.5429H22.5457H22.5486H22.5515H22.5543H22.5572H22.56H22.5628H22.5657H22.5685H22.5713H22.5742H22.577H22.5798H22.5826H22.5854H22.5882H22.591H22.5937H22.5965H22.5993H22.602H22.6048H23.1048V10.3443V6.00369V5.5656L22.6705 5.50802C21.4183 5.342 20.1558 5.26652 18.8929 5.28216C16.5062 5.28282 14.8318 6.04111 13.7921 7.63928C12.7901 9.17942 12.4374 11.4172 12.4344 14.2405L10.6058 14.3659L10.1441 14.3976L10.14 14.8603L10.108 18.4561L10.1034 18.9704L10.6177 18.9604L12.4246 18.9254C12.4228 20.841 12.4114 22.7987 12.4015 24.5077C12.398 25.1068 12.3947 25.6754 12.392 26.2009C10.6136 26.163 8.8757 26.1281 7.4496 26.1281C4.62199 26.1281 2.92669 25.2938 1.91904 24.0259C0.89277 22.7346 0.5 20.8967 0.5 18.7302C0.5 16.5226 0.521574 14.1972 0.54317 12.2131C0.54829 11.7426 0.553416 11.2911 0.558256 10.8647C0.573801 9.49533 0.586399 8.38554 0.586399 7.74379C0.586399 5.32283 1.12197 3.54017 2.22653 2.36081C3.32507 1.1879 5.07404 0.519264 7.712 0.519264C8.65531 0.519264 10.8198 0.515023 13.1169 0.510522L13.5722 0.509631C16.0348 0.504814 18.567 0.5 19.8528 0.5C22.2704 0.5 23.9318 1.00305 25.0036 2.12001C26.0813 3.24302 26.668 5.09463 26.668 8.04558C26.668 8.49302 26.658 9.05741 26.644 9.84675C26.635 10.3547 26.6244 10.9558 26.6137 11.6789C26.5864 13.5193 26.5592 16.135 26.5592 19.9786C26.5592 19.9784 26.5592 19.9783 26.5592 19.9781L18.3334 13.8574Z" stroke="#526172"/>
</svg>