<svg width="17" height="20" viewBox="0 0 17 20" fill="none" xmlns="http://www.w3.org/2000/svg">
<path d="M2.62332 19.0024L2.62352 19.0025C4.04032 19.2854 5.71254 19.4553 7.44364 19.5H9.28156C11.4384 19.4443 13.5517 19.1913 15.2546 18.73L16.0147 18.4714C16.0155 18.4685 16.0164 18.4655 16.0173 18.4625C16.0347 18.4026 16.0532 18.3241 16.0719 18.2282C16.1093 18.0365 16.1432 17.7993 16.1717 17.5503C16.2291 17.0488 16.2604 16.5395 16.2604 16.3174C16.2604 14.7681 15.8351 13.2776 14.6283 12.4414C14.3901 12.2764 14.141 12.1833 13.7783 12.0476L2.62332 19.0024ZM2.62332 19.0024C2.46997 18.9719 1.97348 18.8572 1.49805 18.7251C1.26019 18.659 1.03803 18.5914 0.870968 18.5306C0.824825 18.5137 0.786083 18.4986 0.754439 18.4853C0.732865 18.4019 0.709352 18.2931 0.68632 18.1749C0.641897 17.9469 0.604529 17.7115 0.590888 17.6123M2.62332 19.0024L0.590888 17.6123M0.590888 17.6123L0.500018 16.3004C0.503833 14.4874 1.11681 13.0814 2.11326 12.4522L0.590888 17.6123ZM13.3622 11.8924C13.464 11.9301 13.5657 11.9678 13.6673 12.006L9.73601 10.6704L9.96958 11.1125C9.96962 11.1125 9.96966 11.1124 9.96971 11.1124C10.1151 11.0356 10.3449 10.8849 10.5466 10.7395C10.6099 10.6939 10.6735 10.6466 10.7338 10.5997C10.7797 10.6335 10.8289 10.6691 10.8798 10.7042L10.8798 10.7042C11.7202 11.2837 12.5441 11.5891 13.3622 11.8924ZM5.94594 10.6663C5.97541 10.6467 6.00582 10.626 6.03657 10.6044L2.11333 12.4522C2.43602 12.2485 2.73935 12.1255 3.08068 12.005C3.15527 11.9786 3.23317 11.952 3.31406 11.9243C3.59606 11.8278 3.91453 11.7188 4.25684 11.5676L4.25687 11.5675C4.48543 11.4666 4.92721 11.2541 5.34628 11.024C5.55581 10.909 5.76701 10.7856 5.94594 10.6663ZM5.12497 4.4486L5.15298 4.35463L5.14342 4.25705C5.01096 2.90449 5.39625 1.97748 5.97663 1.38908C6.56671 0.790836 7.40834 0.492031 8.26929 0.500161L8.2693 0.500161C9.97809 0.516238 11.4227 1.85069 11.37 3.87368C11.3662 3.89577 11.3614 3.91899 11.3552 3.94957L11.3528 3.96122L11.3525 3.96281C11.3442 4.0038 11.3305 4.07071 11.3247 4.14123C11.3103 4.3158 11.3423 4.53765 11.5271 4.73196L11.5273 4.73213C11.5477 4.75363 11.5669 4.77245 11.5826 4.78749L11.604 4.80805L11.6067 4.81057C11.5993 5.07974 11.521 5.29974 11.4239 5.49668C11.3816 5.58244 11.3394 5.65721 11.2942 5.73716C11.2819 5.75896 11.2693 5.78115 11.2565 5.80404C11.2059 5.89442 11.1329 6.0261 11.0932 6.1628L11.0932 6.16301C10.9204 6.75911 10.5777 7.4442 10.0863 7.97784C9.5985 8.50753 8.99019 8.86304 8.26805 8.88523C7.63049 8.90479 7.00473 8.57721 6.46771 8.03972C5.93218 7.50371 5.54039 6.81119 5.37127 6.23372C5.28904 5.95283 5.2194 5.81477 5.12266 5.6865C5.10734 5.66619 5.09795 5.65409 5.09148 5.64577C5.08102 5.6323 5.07824 5.62872 5.07047 5.61624C5.06157 5.60192 5.04238 5.56822 5.01186 5.49124C4.81687 4.99904 4.84929 4.81814 4.85813 4.78581C4.8589 4.78518 4.85978 4.78447 4.86081 4.78365C4.86564 4.77982 4.87118 4.77565 4.88173 4.76784L4.88413 4.76606C4.89281 4.75964 4.90957 4.74725 4.92544 4.73456C4.92585 4.73424 4.9265 4.73373 4.92738 4.73306C4.94656 4.71833 5.07369 4.62068 5.12497 4.4486ZM0.783223 18.5828C0.784797 18.5863 0.785545 18.5883 0.785529 18.5885C0.785513 18.5886 0.784723 18.5868 0.783223 18.5828Z" stroke="white"/>
</svg>
