<svg xmlns="http://www.w3.org/2000/svg" width="1210" height="693" viewBox="0 0 1210 693" fill="none">
    <path fill-rule="evenodd" clip-rule="evenodd" d="M0 95.1234C0 125.22 14.03 123.643 20.7333 144.344C32.1134 179.489 20.6547 176.772 65.83 197.767C93.2244 210.495 80.7977 215.939 97.7559 232.276C103.304 237.619 118.265 240.068 118.265 246.303C118.265 253.972 111.629 264.432 107.654 269.09L88.6809 286.096C86.6118 287.802 85.8918 288.368 83.9316 289.935C79.0916 293.802 82.9636 289.411 79.4788 294.037C76.3268 298.219 76.4659 302.064 73.5438 306.486L69.454 310.962C60.742 317.417 46.1131 307.337 25.0228 318.284C4.37415 329.006 20.0194 335.573 20.0194 347.632C20.0194 356.103 11.9003 371.087 12.8744 381.264C13.9755 392.836 32.7547 402.162 32.7547 405.531C32.7547 408.409 26.8741 431.618 25.779 433.142L0 445.736C0.28435 457.083 15.6634 468.832 23.0142 478.469C25.3011 481.453 23.8733 480.137 26.8438 483.132L44.407 498.159C52.8226 503.518 65.5457 508.347 75.1954 511.16C108.628 520.882 87.2894 528.133 108.519 563.722L115.815 571.755C128.562 582.364 117.89 587.349 113.909 599.504C111.925 605.568 110.443 613.515 110.939 621.018C111.477 629.087 113.909 633.141 112.554 643.323C110.267 660.585 104.181 670.602 127.552 673.96C133.548 674.826 145.254 676.741 149.689 676.939C167.282 677.703 163.32 659.65 180.139 659.65C189.795 659.65 186.4 664.179 195.185 661.815C204.048 659.436 198.706 658.58 212.555 657.687C227.129 656.746 235.278 666.083 250.791 659.398C263.338 653.992 277.985 653.04 289.698 647.05C306.947 638.232 314.37 655.051 326.434 632.948C333.071 620.798 335.95 625.873 356.629 625.873C361.003 625.873 361.984 623.269 365.729 621.05C379.02 628.916 379.492 633.649 397.201 627.954C424.377 619.221 414.104 621.622 425.412 640.665C433.579 654.425 447.252 649.013 457.997 660.115C461.337 663.569 461.796 667.687 467.623 667.687C482.415 667.687 467.52 647.125 503.39 663.414C514.032 668.249 528.316 670.238 537.821 676.409C552.674 686.051 554.295 698.704 578.592 690.19C582.936 688.666 582.173 688.303 587.83 687.094C592.93 685.992 594.455 686.094 599.742 684.757C606.053 683.163 617.197 677.34 620.464 677.34C630.464 677.34 635.673 679.645 644.93 678.169C654.435 676.65 660.478 672.516 667.775 672.516C674.714 672.516 676.469 677.34 684.152 677.34C689.228 677.34 727.724 668.217 733.097 661.099C742.553 648.574 738.53 625.205 733.085 613.178C728.323 602.648 719.345 599.76 716.901 590.488C738.947 568.075 750.254 585.664 764.212 585.664C775.374 585.664 764.315 573.434 774.684 565.974C782.586 560.294 790.063 563.257 802.073 561.225C824.192 557.492 803.96 529.476 829.679 527.732C885.411 523.962 873.699 527.24 902.969 505.55C914.615 496.919 922.752 513.571 937.242 502.186L947.987 497.207C957.219 502.667 964.315 512.443 972.09 519.32C979.81 526.144 992.884 539.026 1004.39 539.026C1009.88 539.026 1011.87 533.962 1015.29 530.962C1031.96 516.325 1034.07 530.984 1055.34 530.984C1059.4 515.571 1074.06 526.155 1088.09 526.155C1090.29 526.155 1097.19 520.432 1097.19 518.112C1097.19 506.17 1086.24 495.838 1077.46 488.918C1077.06 488.603 1075.91 487.726 1075.52 487.41C1073.71 485.897 1075.37 487.517 1072.81 484.983L1052.98 463.88C1042.64 454.698 1048.67 454.014 1051.7 442.522C1029.13 429.163 1041.58 436.169 1037.38 424.457C1036 420.644 1017.62 409.959 1013.49 410.355L991.698 412.275C991.595 386.419 1013.18 395.216 1021.81 388.766C1025.66 385.889 1024.1 381.365 1025.72 376.13C1027.85 369.231 1028 372.761 1034.38 369.317C1041.63 365.397 1039.38 357.857 1048.63 356.343C1054.4 355.402 1061.75 357.723 1071.72 355.675C1077.13 345.691 1073.75 347.856 1073.43 336.386C1073.19 327.733 1075.35 324.054 1075.35 313.856C1075.35 296.181 1072 283.411 1077.75 266.122C1081.16 255.897 1084.19 250.159 1078.99 241.48C1084.08 239.325 1088.39 239.239 1093.09 236.25C1106.48 227.736 1104.68 207.634 1115.64 198.281C1122 192.858 1122.32 195.671 1132.49 193.869C1174.49 186.42 1158.25 195.933 1180.89 201.27C1188.3 196.885 1210 174.895 1210 161.061C1210 152.595 1204.71 148.028 1204.47 138.611C1204.19 127.472 1205.21 122.247 1202.72 112.814C1174.12 106.92 1154.76 115.124 1118.7 100.236C1108.67 96.0966 1093.97 91.3479 1089.31 82.7862C1084.08 73.1763 1083.07 53.3042 1069.89 53.3042C1062.44 53.3042 1048.01 61.0798 1038.07 61.9729C1035.94 62.1654 1034.14 62.4756 1030.9 60.5504C1030.15 60.1065 1028.17 58.2776 1028.08 58.176C1020.01 49.4646 1024.11 45.2666 1008.03 45.2666C976.633 45.2666 988.927 54.454 955.525 32.1594C951.623 29.555 949.318 27.6673 944.931 25.448C926.951 16.3622 914.046 11.4904 891.582 11.4904C877.208 11.4904 868.308 17.2499 856.142 21.9827C849.741 24.4747 844.683 24.5228 837.653 26.5496C807.778 35.1648 769.009 31.9722 740.375 46.7105L664.865 108.632C657.695 114.621 631.741 122.466 631.384 122.466C622.908 122.466 583.928 108.584 570.285 104.091C563.182 101.749 560.617 97.4871 554.301 94.102C542.268 87.658 547.773 72.818 528.758 68.4276C513.609 64.9355 491.653 67.7805 476.722 67.7805C451.239 67.7805 442.818 61.513 425.345 77.0534C420.529 81.3316 417.728 82.0322 413.421 85.8077C400.105 97.4496 412.295 106.38 345.715 106.38C328.019 106.38 310.298 100.006 295.899 95.7277C281.924 91.5671 265.801 87.9093 250.803 87.7007C241.891 87.5777 252.66 88.69 243.815 88.69C241.359 88.69 222.628 80.4599 216.59 78.984C184.035 71.0105 152.321 88.69 112.808 88.69C90.2115 88.69 100.853 58.791 113.921 52.6785C126.76 46.6677 134.643 51.486 134.643 34.0043C134.643 26.1485 116.456 24.603 102.638 17.2606C70.8878 0.377884 73.4772 -7.49394 57.6807 9.39949C54.3774 12.929 49.1441 15.7633 47.4017 19.4425C42.3681 30.0845 52.1147 30.0363 34.3398 38.6248L15.494 47.7052C7.865 50.5448 7.0301 53.1705 5.88665 60.1172C3.8962 72.2138 0 83.7274 0 95.1234Z" fill="#526172" fill-opacity="0.1"/>
</svg>