<svg width="297" height="192" viewBox="0 0 297 192" fill="none" xmlns="http://www.w3.org/2000/svg">
<path fill-rule="evenodd" clip-rule="evenodd" d="M0 26.3545C0 34.6931 3.44371 34.256 5.0891 39.9913C7.88238 49.7285 5.06979 48.9759 16.1583 54.7927C22.8824 58.319 19.8322 59.8272 23.9946 64.3536C25.3564 65.8337 29.0288 66.5123 29.0288 68.2399C29.0288 70.3645 27.3997 73.2626 26.4241 74.553L21.7671 79.2646C21.2593 79.7372 21.0825 79.8943 20.6014 80.3284C19.4134 81.3996 20.3638 80.1832 19.5084 81.4648C18.7348 82.6234 18.7689 83.6887 18.0517 84.914L17.0478 86.1541C14.9094 87.9424 11.3187 85.1496 6.14196 88.1824C1.07365 91.1531 4.91387 92.9725 4.91387 96.3136C4.91387 98.6605 2.92099 102.812 3.16008 105.631C3.43035 108.838 8.03979 111.422 8.03979 112.355C8.03979 113.152 6.59637 119.582 6.32758 120.005L0 123.494C0.069795 126.638 3.84467 129.893 5.64894 132.563C6.21027 133.39 5.85981 133.025 6.58894 133.855L10.8999 138.018C12.9655 139.503 16.0885 140.841 18.4571 141.62C26.6632 144.314 21.4256 146.323 26.6364 156.183L28.4274 158.408C31.5562 161.348 28.9367 162.729 27.9596 166.096C27.4725 167.776 27.1087 169.978 27.2304 172.057C27.3626 174.293 27.9596 175.416 27.6269 178.237C27.0656 183.019 25.5717 185.794 31.3083 186.725C32.7799 186.965 35.6534 187.495 36.7419 187.55C41.0602 187.762 40.0876 182.76 44.2159 182.76C46.5859 182.76 45.7528 184.015 47.9091 183.36C50.0846 182.701 48.7733 182.464 52.1725 182.216C55.7499 181.956 57.7502 184.542 61.5577 182.69C64.6376 181.193 68.2328 180.929 71.1077 179.269C75.3415 176.826 77.1636 181.486 80.1247 175.362C81.7537 171.996 82.4606 173.402 87.5363 173.402C88.6099 173.402 88.8505 172.681 89.7697 172.066C93.0323 174.245 93.1481 175.556 97.4947 173.979C104.165 171.559 101.644 172.224 104.419 177.5C106.424 181.313 109.78 179.813 112.417 182.889C113.237 183.846 113.35 184.987 114.78 184.987C118.411 184.987 114.755 179.29 123.559 183.803C126.172 185.143 129.678 185.694 132.011 187.403C135.656 190.075 136.054 193.58 142.018 191.222C143.084 190.799 142.897 190.699 144.286 190.364C145.537 190.059 145.912 190.087 147.21 189.716C148.758 189.275 151.494 187.661 152.296 187.661C154.75 187.661 156.029 188.3 158.301 187.891C160.634 187.47 162.117 186.325 163.908 186.325C165.612 186.325 166.042 187.661 167.928 187.661C169.174 187.661 178.623 185.134 179.942 183.162C182.263 179.692 181.275 173.217 179.939 169.885C178.77 166.967 176.567 166.167 175.967 163.598C181.378 157.389 184.153 162.262 187.579 162.262C190.319 162.262 187.605 158.873 190.15 156.807C192.089 155.233 193.925 156.054 196.872 155.491C202.302 154.457 197.336 146.695 203.648 146.212C217.328 145.167 214.453 146.075 221.638 140.066C224.496 137.674 226.494 142.288 230.05 139.134L232.688 137.754C234.954 139.267 236.696 141.976 238.604 143.881C240.499 145.771 243.708 149.341 246.532 149.341C247.881 149.341 248.368 147.938 249.207 147.106C253.299 143.051 253.816 147.112 259.037 147.112C260.035 142.842 263.632 145.774 267.077 145.774C267.616 145.774 269.309 144.189 269.309 143.546C269.309 140.238 266.621 137.375 264.467 135.458C264.37 135.371 264.086 135.128 263.991 135.04C263.547 134.621 263.954 135.07 263.326 134.367L258.458 128.521C255.92 125.977 257.401 125.787 258.145 122.603C252.604 118.902 255.661 120.843 254.628 117.598C254.29 116.542 249.778 113.582 248.766 113.691L243.417 114.223C243.391 107.06 248.69 109.497 250.809 107.71C251.754 106.913 251.37 105.66 251.767 104.209C252.291 102.298 252.327 103.276 253.893 102.322C255.674 101.236 255.122 99.1464 257.392 98.7271C258.807 98.4664 260.612 99.1094 263.057 98.5419C264.386 95.7757 263.556 96.3758 263.478 93.1977C263.418 90.8005 263.95 89.7811 263.95 86.9557C263.95 82.0589 263.127 78.5208 264.539 73.7308C265.375 70.8979 266.119 69.3081 264.844 66.9035C266.091 66.3064 267.15 66.2827 268.304 65.4544C271.592 63.0957 271.148 57.5263 273.838 54.9349C275.399 53.4326 275.479 54.2119 277.974 53.7126C288.285 51.6487 284.297 54.2845 289.854 55.7632C291.673 54.5482 297 48.4558 297 44.6229C297 42.2775 295.701 41.0122 295.643 38.403C295.573 35.3168 295.824 33.8693 295.214 31.2557C288.192 29.623 283.442 31.8958 274.59 27.771C272.129 26.6242 268.521 25.3085 267.376 22.9364C266.091 20.274 265.845 14.7683 262.61 14.7683C260.781 14.7683 257.238 16.9225 254.799 17.17C254.275 17.2233 253.834 17.3092 253.04 16.7759C252.855 16.6529 252.37 16.1462 252.346 16.118C250.365 13.7045 251.373 12.5414 247.425 12.5414C239.719 12.5414 242.737 15.0868 234.538 8.90995C233.58 8.18841 233.014 7.66539 231.938 7.05052C227.524 4.53325 224.357 3.1835 218.843 3.1835C215.315 3.1835 213.13 4.7792 210.144 6.09044C208.573 6.78087 207.331 6.7942 205.606 7.35573C198.273 9.74262 188.757 8.8581 181.728 12.9414L163.194 30.0971C161.434 31.7565 155.064 33.93 154.976 33.93C152.896 33.93 143.328 30.0838 139.979 28.8392C138.236 28.1903 137.606 27.0094 136.056 26.0715C133.102 24.2862 134.453 20.1747 129.786 18.9583C126.068 17.9908 120.679 18.779 117.014 18.779C110.759 18.779 108.692 17.0426 104.403 21.3481C103.221 22.5334 102.533 22.7275 101.476 23.7735C98.2075 26.999 101.2 29.4733 84.8574 29.4733C80.5137 29.4733 76.1642 27.7072 72.6299 26.5219C69.1995 25.3692 65.242 24.3558 61.5607 24.298C59.3733 24.264 62.0166 24.5721 59.8455 24.5721C59.2426 24.5721 54.645 22.2919 53.163 21.883C45.1722 19.6739 37.3878 24.5721 27.6893 24.5721C22.1428 24.5721 24.7549 16.2884 27.9625 14.5949C31.1137 12.9296 33.0487 14.2645 33.0487 9.42111C33.0487 7.24461 28.5848 6.81643 25.193 4.78216C17.3997 0.104695 18.0353 -2.07624 14.158 2.60419C13.3472 3.58206 12.0627 4.36731 11.635 5.38667C10.3995 8.33509 12.7918 8.32175 8.42886 10.7012L3.80308 13.217C1.9305 14.0038 1.72557 14.7312 1.4449 16.6559C0.95634 20.0073 0 23.1972 0 26.3545Z" fill="#526172"/>
</svg>
