<svg width="258" height="164" viewBox="0 0 258 164" fill="none" xmlns="http://www.w3.org/2000/svg">
<path fill-rule="evenodd" clip-rule="evenodd" d="M0 36.3149C0 42.7426 2.99151 42.4057 4.42083 46.8267C6.84732 54.3324 4.40406 53.7522 14.0365 58.236C19.8776 60.9542 17.2279 62.1168 20.8438 65.6059C22.0267 66.7468 25.2169 67.2699 25.2169 68.6016C25.2169 70.2393 23.8018 72.4732 22.9543 73.468L18.9088 77.0998C18.4676 77.4641 18.3141 77.5852 17.8962 77.9198C16.8642 78.7455 17.6898 77.8079 16.9467 78.7958C16.2746 79.6889 16.3043 80.51 15.6812 81.4545L14.8092 82.4105C12.9516 83.789 9.83238 81.6361 5.33544 83.974C0.93267 86.2638 4.26861 87.6663 4.26861 90.2417C4.26861 92.0508 2.53743 95.2509 2.74512 97.4242C2.9799 99.8957 6.98406 101.888 6.98406 102.607C6.98406 103.221 5.73018 108.178 5.49669 108.504L0 111.193C0.06063 113.617 3.33981 116.126 4.90716 118.184C5.39478 118.821 5.09034 118.54 5.72373 119.18L9.4686 122.389C11.263 123.533 13.9759 124.565 16.0334 125.165C23.1619 127.242 18.6121 128.79 23.1387 136.391L24.6945 138.106C27.4125 140.372 25.1369 141.437 24.2881 144.033C23.865 145.328 23.5489 147.025 23.6547 148.627C23.7695 150.351 24.2881 151.216 23.9992 153.391C23.5115 157.077 22.2138 159.217 27.1971 159.934C28.4755 160.119 30.9716 160.528 31.9172 160.57C35.6685 160.733 34.8235 156.878 38.4097 156.878C40.4686 156.878 39.7449 157.845 41.618 157.34C43.5078 156.832 42.3688 156.649 45.3216 156.458C48.4292 156.257 50.1668 158.251 53.4744 156.824C56.1498 155.669 59.2729 155.466 61.7704 154.187C65.4481 152.303 67.031 155.895 69.6032 151.175C71.0184 148.58 71.6324 149.664 76.0416 149.664C76.9743 149.664 77.1833 149.108 77.9818 148.634C80.8159 150.314 80.9165 151.325 84.6924 150.108C90.487 148.243 88.2966 148.756 90.7076 152.823C92.4491 155.762 95.3645 154.606 97.6556 156.977C98.3677 157.715 98.4657 158.594 99.708 158.594C102.862 158.594 99.686 154.203 107.334 157.682C109.604 158.714 112.649 159.139 114.676 160.457C117.843 162.516 118.188 165.218 123.369 163.4C124.295 163.074 124.133 162.997 125.339 162.739C126.426 162.503 126.752 162.525 127.879 162.24C129.224 161.899 131.601 160.656 132.297 160.656C134.43 160.656 135.54 161.148 137.514 160.833C139.541 160.508 140.829 159.625 142.385 159.625C143.865 159.625 144.239 160.656 145.877 160.656C146.959 160.656 155.168 158.707 156.313 157.187C158.329 154.512 157.472 149.521 156.311 146.953C155.295 144.704 153.381 144.087 152.86 142.107C157.561 137.321 159.972 141.077 162.948 141.077C165.328 141.077 162.97 138.465 165.181 136.872C166.865 135.659 168.46 136.292 171.02 135.858C175.737 135.06 171.423 129.077 176.907 128.705C188.79 127.9 186.293 128.6 192.534 123.967C195.017 122.124 196.752 125.68 199.842 123.249L202.133 122.186C204.101 123.352 205.614 125.439 207.272 126.908C208.918 128.366 211.706 131.117 214.159 131.117C215.331 131.117 215.754 130.035 216.483 129.395C220.038 126.269 220.487 129.399 225.022 129.399C225.889 126.108 229.014 128.368 232.006 128.368C232.475 128.368 233.945 127.146 233.945 126.65C233.945 124.1 231.61 121.893 229.739 120.415C229.655 120.348 229.408 120.161 229.326 120.093C228.94 119.77 229.294 120.116 228.748 119.575L224.519 115.068C222.315 113.107 223.601 112.961 224.247 110.507C219.434 107.654 222.089 109.15 221.192 106.649C220.898 105.835 216.979 103.553 216.1 103.637L211.453 104.047C211.431 98.5252 216.034 100.404 217.875 99.0266C218.695 98.4122 218.362 97.446 218.707 96.3279C219.162 94.8546 219.193 95.6083 220.554 94.8728C222.101 94.0357 221.621 92.4254 223.593 92.1022C224.822 91.9012 226.39 92.3968 228.514 91.9594C229.669 89.8271 228.948 90.2897 228.88 87.8399C228.828 85.992 229.29 85.2063 229.29 83.0283C229.29 79.2538 228.575 76.5265 229.802 72.8341C230.528 70.6505 231.174 69.425 230.066 67.5714C231.15 67.1112 232.07 67.0929 233.072 66.4545C235.928 64.6363 235.542 60.3432 237.88 58.3457C239.236 57.1876 239.305 57.7883 241.473 57.4035C250.429 55.8125 246.965 57.8443 251.793 58.9841C253.373 58.0476 258 53.3514 258 50.3968C258 48.5889 256.871 47.6136 256.821 45.6023C256.76 43.2234 256.978 42.1076 256.448 40.093C250.349 38.8344 246.222 40.5863 238.533 37.4068C236.395 36.5228 233.26 35.5086 232.266 33.6802C231.15 31.6278 230.936 27.3839 228.126 27.3839C226.537 27.3839 223.459 29.0445 221.341 29.2352C220.885 29.2763 220.502 29.3425 219.812 28.9314C219.652 28.8366 219.23 28.446 219.21 28.4243C217.489 26.5639 218.365 25.6673 214.935 25.6673C208.241 25.6673 210.862 27.6294 203.74 22.8681C202.908 22.3119 202.416 21.9087 201.481 21.4348C197.647 19.4944 194.896 18.4539 190.106 18.4539C187.041 18.4539 185.143 19.684 182.549 20.6947C181.184 21.2269 180.106 21.2372 178.607 21.67C172.237 23.5099 163.971 22.8281 157.865 25.9757L141.765 39.1998C140.236 40.479 134.702 42.1544 134.626 42.1544C132.818 42.1544 124.507 39.1896 121.598 38.2302C120.084 37.73 119.537 36.8197 118.19 36.0968C115.624 34.7206 116.798 31.5513 112.743 30.6137C109.513 29.8679 104.832 30.4755 101.648 30.4755C96.2146 30.4755 94.419 29.137 90.6934 32.4559C89.6666 33.3695 89.0693 33.5191 88.1509 34.3254C85.3116 36.8118 87.9109 38.719 73.7145 38.719C69.9412 38.719 66.1628 37.3577 63.0926 36.444C60.1127 35.5555 56.6749 34.7743 53.4769 34.7297C51.5768 34.7035 53.873 34.941 51.987 34.941C51.4633 34.941 47.4694 33.1834 46.182 32.8681C39.2405 31.1653 32.4783 34.941 24.0533 34.941C19.2352 34.941 21.5043 28.5557 24.2907 27.2503C27.0281 25.9666 28.7089 26.9956 28.7089 23.2621C28.7089 21.5844 24.8312 21.2543 21.8848 19.6863C15.1149 16.0807 15.667 14.3996 12.2989 18.0074C11.5945 18.7612 10.4787 19.3665 10.1071 20.1522C9.03387 22.425 11.1121 22.4147 7.32204 24.2489L3.30369 26.1881C1.677 26.7946 1.49898 27.3553 1.25517 28.8389C0.83076 31.4223 0 33.8812 0 36.3149Z" fill="#3D4A59"/>
<path fill-rule="evenodd" clip-rule="evenodd" d="M2 21.5503C2 28.3688 4.82918 28.0114 6.18094 32.7012C8.47576 40.6634 6.16508 40.048 15.2748 44.8045C20.799 47.6879 18.2931 48.9212 21.7128 52.6225C22.8315 53.8328 25.8486 54.3877 25.8486 55.8003C25.8486 57.5376 24.5102 59.9074 23.7087 60.9626L19.8828 64.8153C19.4655 65.2018 19.3203 65.3302 18.9251 65.6852C17.9491 66.5611 18.7299 65.5665 18.0271 66.6144C17.3915 67.5619 17.4196 68.4329 16.8303 69.4349L16.0056 70.4489C14.2488 71.9113 11.2988 69.6275 7.04592 72.1075C2.88206 74.5366 6.03698 76.0244 6.03698 78.7564C6.03698 80.6755 4.39974 84.0702 4.59616 86.3757C4.8182 88.9975 8.60508 91.1104 8.60508 91.8736C8.60508 92.5255 7.41924 97.7835 7.19842 98.1288L2 100.982C2.05734 103.553 5.15858 106.215 6.64088 108.398C7.10204 109.074 6.81412 108.776 7.41314 109.454L10.9548 112.859C12.6518 114.073 15.2175 115.167 17.1634 115.804C23.9051 118.006 19.6022 119.649 23.8831 127.712L25.3545 129.532C27.925 131.935 25.7729 133.065 24.9702 135.818C24.57 137.192 24.2711 138.993 24.3711 140.692C24.4797 142.521 24.9702 143.439 24.6969 145.746C24.2357 149.656 23.0084 151.926 27.7213 152.686C28.9303 152.883 31.291 153.316 32.1852 153.361C35.733 153.535 34.9339 149.444 38.3255 149.444C40.2726 149.444 39.5882 150.471 41.3596 149.935C43.1469 149.396 42.0697 149.202 44.8623 149C47.8012 148.787 49.4446 150.902 52.5727 149.387C55.1029 148.163 58.0566 147.947 60.4185 146.59C63.8967 144.592 65.3936 148.402 67.8263 143.395C69.1647 140.643 69.7454 141.792 73.9153 141.792C74.7974 141.792 74.995 141.202 75.7502 140.7C78.4306 142.482 78.5257 143.554 82.0967 142.264C87.5769 140.285 85.5053 140.829 87.7855 145.143C89.4325 148.261 92.1897 147.035 94.3564 149.55C95.0299 150.332 95.1226 151.265 96.2975 151.265C99.2804 151.265 96.2767 146.607 103.51 150.297C105.656 151.393 108.537 151.843 110.453 153.241C113.448 155.426 113.775 158.292 118.675 156.363C119.551 156.018 119.397 155.936 120.538 155.662C121.566 155.412 121.874 155.435 122.94 155.133C124.212 154.772 126.46 153.452 127.118 153.452C129.135 153.452 130.185 153.974 132.052 153.64C133.969 153.296 135.187 152.359 136.659 152.359C138.058 152.359 138.412 153.452 139.961 153.452C140.985 153.452 148.748 151.385 149.831 149.773C151.738 146.935 150.927 141.641 149.829 138.916C148.868 136.531 147.058 135.876 146.565 133.776C151.011 128.698 153.291 132.683 156.106 132.683C158.356 132.683 156.126 129.912 158.217 128.222C159.811 126.935 161.319 127.607 163.74 127.146C168.201 126.301 164.121 119.953 169.307 119.558C180.546 118.704 178.184 119.447 184.086 114.533C186.435 112.578 188.076 116.35 190.998 113.771L193.164 112.643C195.026 113.88 196.457 116.095 198.025 117.653C199.581 119.199 202.218 122.117 204.538 122.117C205.646 122.117 206.046 120.97 206.736 120.29C210.098 116.974 210.522 120.295 214.812 120.295C215.632 116.803 218.587 119.201 221.417 119.201C221.86 119.201 223.251 117.905 223.251 117.379C223.251 114.673 221.042 112.333 219.272 110.765C219.193 110.694 218.96 110.495 218.882 110.423C218.517 110.081 218.851 110.448 218.335 109.873L214.336 105.093C212.251 103.012 213.467 102.857 214.079 100.254C209.527 97.2274 212.038 98.8145 211.19 96.1613C210.912 95.2974 207.205 92.8768 206.373 92.9665L201.979 93.4014C201.958 87.5437 206.311 89.5366 208.052 88.0755C208.828 87.4237 208.513 86.3987 208.839 85.2127C209.269 83.6498 209.299 84.4494 210.586 83.6692C212.049 82.7811 211.595 81.0729 213.46 80.73C214.623 80.5168 216.105 81.0426 218.114 80.5785C219.206 78.3166 218.524 78.8073 218.46 76.2086C218.411 74.2483 218.848 73.4148 218.848 71.1044C218.848 67.1003 218.172 64.2071 219.332 60.2902C220.019 57.9738 220.63 56.6738 219.582 54.7075C220.607 54.2193 221.477 54.1999 222.425 53.5226C225.126 51.5939 224.761 47.0397 226.972 44.9208C228.254 43.6923 228.32 44.3295 230.369 43.9212C238.84 42.2336 235.564 44.3889 240.129 45.598C241.624 44.6045 246 39.6227 246 36.4885C246 34.5706 244.933 33.536 244.885 31.4025C244.828 28.8789 245.034 27.6952 244.532 25.5581C238.764 24.223 234.861 26.0814 227.589 22.7085C225.567 21.7708 222.603 20.695 221.662 18.7553C220.607 16.5782 220.404 12.0761 217.747 12.0761C216.244 12.0761 213.333 13.8377 211.33 14.04C210.899 14.0836 210.537 14.1539 209.884 13.7178C209.733 13.6172 209.334 13.2029 209.315 13.1798C207.687 11.2063 208.516 10.2552 205.272 10.2552C198.941 10.2552 201.42 12.3366 194.684 7.28574C193.897 6.69573 193.433 6.26805 192.548 5.76527C188.922 3.70688 186.32 2.60317 181.79 2.60317C178.891 2.60317 177.097 3.90799 174.643 4.9802C173.353 5.54477 172.333 5.55567 170.915 6.01484C164.891 7.96662 157.073 7.24334 151.299 10.5823L136.072 24.6106C134.626 25.9676 129.392 27.7449 129.32 27.7449C127.611 27.7449 119.751 24.5997 117 23.5821C115.567 23.0514 115.05 22.0858 113.776 21.3189C111.35 19.859 112.46 16.497 108.626 15.5023C105.571 14.7112 101.143 15.3558 98.1323 15.3558C92.9937 15.3558 91.2955 13.9358 87.7721 17.4566C86.801 18.4258 86.2361 18.5845 85.3675 19.4398C82.6823 22.0773 85.1406 24.1006 71.7145 24.1006C68.146 24.1006 64.5726 22.6564 61.669 21.6872C58.8508 20.7446 55.5995 19.916 52.5751 19.8687C50.778 19.8408 52.9496 20.0928 51.166 20.0928C50.6707 20.0928 46.8936 18.2283 45.676 17.8939C39.1112 16.0875 32.7159 20.0928 24.7481 20.0928C20.1914 20.0928 22.3374 13.3192 24.9726 11.9344C27.5614 10.5726 29.1511 11.6642 29.1511 7.70372C29.1511 5.92398 25.4838 5.57385 22.6973 3.91041C16.2947 0.0856101 16.8169 -1.69776 13.6315 2.12947C12.9654 2.92908 11.9101 3.57119 11.5587 4.40472C10.5437 6.81567 12.5091 6.80477 8.92472 8.75048L5.12442 10.8077C3.586 11.451 3.41764 12.0459 3.18706 13.6196C2.78568 16.3601 2 18.9685 2 21.5503Z" fill="#526172"/>
<path d="M38.4531 97.0938V101.867H42.5625V99.5156C42.5625 98.5156 42.8542 97.7422 43.4375 97.1953C44.0156 96.6484 44.7917 96.375 45.7656 96.375C46.7448 96.375 47.5286 96.651 48.1172 97.2031C48.7057 97.75 49 98.5208 49 99.5156V102.805H37.625V97.0938H38.4531ZM43.3828 101.867H48.1875V99.5156C48.1875 98.7812 47.9583 98.2344 47.5 97.875C47.0417 97.5104 46.4583 97.3281 45.75 97.3281C45.0729 97.3281 44.5104 97.5104 44.0625 97.875C43.6094 98.2344 43.3828 98.7812 43.3828 99.5156V101.867ZM40.5469 95.2266V92.125H43.6094V90.2031C43.6094 89.3906 43.8594 88.7578 44.3594 88.3047C44.8542 87.8464 45.4974 87.6172 46.2891 87.6172C47.0911 87.6172 47.7448 87.8464 48.25 88.3047C48.75 88.7578 49 89.3906 49 90.2031V93.0625H41.3594V95.2266H40.5469ZM44.4297 92.125H48.1875V90.2031C48.1875 89.651 48.0104 89.2396 47.6562 88.9688C47.2969 88.6979 46.849 88.5625 46.3125 88.5625C45.7969 88.5625 45.3542 88.7005 44.9844 88.9766C44.6146 89.2474 44.4297 89.6562 44.4297 90.2031V92.125ZM40.5469 80.4922H49V81.4375H41.3828V84.2109H44.2812C45.9427 84.2109 47.1458 84.3776 47.8906 84.7109C48.6302 85.0443 49 85.6146 49 86.4219V86.7266L48.1406 86.7109L48.1328 86.4609C48.1328 85.9922 47.849 85.6562 47.2812 85.4531C46.7135 85.25 45.7135 85.1484 44.2812 85.1484H40.5469V80.4922ZM41.3828 73.9062V77.3281H49V78.2734H40.5469V73.9062H41.3828ZM49 68.2031C48.7083 68.25 48.4688 68.2865 48.2812 68.3125C48.0938 68.3333 47.9036 68.3438 47.7109 68.3438C48.1328 68.599 48.4818 68.9323 48.7578 69.3438C49.0286 69.75 49.1641 70.2031 49.1641 70.7031C49.1641 71.401 48.9479 71.9401 48.5156 72.3203C48.0781 72.7005 47.4896 72.8906 46.75 72.8906C45.9635 72.8906 45.3385 72.6146 44.875 72.0625C44.4062 71.5104 44.1719 70.763 44.1719 69.8203V68.3438H43.1328C42.5339 68.3438 42.0651 68.4948 41.7266 68.7969C41.388 69.099 41.2188 69.5208 41.2188 70.0625C41.2188 70.5677 41.3802 70.9844 41.7031 71.3125C42.026 71.6354 42.4219 71.7969 42.8906 71.7969L42.8828 72.6719L42.8359 72.6875C42.2005 72.7135 41.6354 72.474 41.1406 71.9688C40.6406 71.4583 40.3906 70.8073 40.3906 70.0156C40.3906 69.2344 40.6302 68.6042 41.1094 68.125C41.5833 67.6458 42.263 67.4062 43.1484 67.4062H47.2969C47.599 67.4062 47.8906 67.3932 48.1719 67.3672C48.4531 67.3411 48.7292 67.2943 49 67.2266V68.2031ZM48.3203 70.5859C48.3203 70.0651 48.1719 69.6042 47.875 69.2031C47.5729 68.7969 47.1901 68.5104 46.7266 68.3438H44.8984V69.8438C44.8984 70.4844 45.0807 70.9974 45.4453 71.3828C45.8047 71.763 46.25 71.9531 46.7812 71.9531C47.2344 71.9531 47.6042 71.8333 47.8906 71.5938C48.1771 71.3542 48.3203 71.0182 48.3203 70.5859ZM45.5156 59.5156C46.625 59.5156 47.5104 59.7552 48.1719 60.2344C48.8333 60.7083 49.1641 61.3646 49.1641 62.2031C49.1641 62.6771 49.0651 63.0911 48.8672 63.4453C48.6693 63.7995 48.3828 64.0938 48.0078 64.3281H52.25V65.2656H40.5469V64.4766L41.7109 64.375C41.2891 64.1406 40.9635 63.8438 40.7344 63.4844C40.5052 63.125 40.3906 62.7057 40.3906 62.2266C40.3906 61.3776 40.7526 60.7135 41.4766 60.2344C42.1953 59.7552 43.1562 59.5156 44.3594 59.5156H45.5156ZM44.3594 60.4688C43.4375 60.4688 42.6875 60.638 42.1094 60.9766C41.526 61.3151 41.2344 61.8125 41.2344 62.4688C41.2344 62.9323 41.3724 63.3177 41.6484 63.625C41.9245 63.9271 42.2839 64.1615 42.7266 64.3281H46.9844C47.4115 64.1562 47.7474 63.9167 47.9922 63.6094C48.2318 63.3021 48.3516 62.9193 48.3516 62.4609C48.3516 61.8047 48.0938 61.3099 47.5781 60.9766C47.0573 60.638 46.3698 60.4688 45.5156 60.4688H44.3594ZM40.5469 53.1406V52.1953H49V53.1406H42.3594L42.3516 53.1875L49 56.7031V57.6406H40.5469V56.7031H47.1953L47.2031 56.6562L40.5469 53.1406ZM40.5469 44.8359H49V45.7734H45.6016V47.7656L49 49.5V50.5234L45.4609 48.7266C45.2995 49.2057 45.0078 49.5755 44.5859 49.8359C44.1641 50.0964 43.6615 50.2266 43.0781 50.2266C42.3385 50.2266 41.7318 50 41.2578 49.5469C40.7839 49.0885 40.5469 48.4583 40.5469 47.6562V44.8359ZM43.0938 49.2891C43.5677 49.2891 43.9688 49.1693 44.2969 48.9297C44.625 48.6849 44.7891 48.3229 44.7891 47.8438V45.7734H41.3672V47.6562C41.3672 48.2031 41.5339 48.612 41.8672 48.8828C42.2005 49.1536 42.6094 49.2891 43.0938 49.2891Z" fill="white"/>
<path fill-rule="evenodd" clip-rule="evenodd" d="M40.8828 123.752C38.9158 123.752 37.9458 121.376 39.2914 119.922L39.4236 119.792C39.4755 119.74 39.5187 119.709 39.5802 119.663C40.1973 119.202 41.0389 119.104 41.7423 119.443C42.0062 119.57 42.1728 119.69 42.3652 119.89C43.1468 120.699 43.2334 121.905 42.6171 122.806C42.5316 122.931 42.4711 122.993 42.3652 123.103C42.1728 123.303 42.0062 123.423 41.7423 123.55C41.5206 123.657 41.1973 123.752 40.8828 123.752ZM36.5 121.748V121.233C36.5199 120.882 36.5806 120.531 36.6844 120.184C36.849 119.633 37.2309 118.881 37.6188 118.483L37.9353 118.155C38.2285 117.847 38.7289 117.564 39.1011 117.373L39.5799 117.189C40.5465 116.907 41.4338 116.95 42.3096 117.255C42.668 117.38 43.133 117.554 43.4689 117.729L43.9111 117.95C43.9845 117.995 44.0313 118.017 44.1094 118.06C44.1919 118.106 44.2305 118.136 44.3203 118.182C44.6617 118.355 45.7744 119.092 46.0896 119.334C46.7331 119.828 47.4792 120.374 48.0721 120.92C48.3469 121.174 48.5 121.205 48.5 121.545C48.5 121.773 48.0516 122.099 47.8807 122.238C47.7512 122.343 47.647 122.438 47.521 122.545C47.0466 122.948 45.933 123.796 45.4864 124.077C45.0835 124.332 44.7217 124.599 44.2731 124.835C44.1895 124.879 44.162 124.905 44.0785 124.949C43.9957 124.992 43.9399 125.031 43.8658 125.068L43.211 125.385C42.9211 125.529 42.6096 125.634 42.2922 125.744C41.9953 125.847 41.5869 125.942 41.231 125.98C40.1805 126.092 39.0574 125.734 38.2712 125.12C38.0097 124.917 38.0328 124.92 37.8288 124.729L37.4474 124.299C36.8805 123.548 36.5521 122.662 36.5 121.748Z" fill="white"/>
</svg>
