<svg xmlns="http://www.w3.org/2000/svg" width="100" height="101" viewBox="0 0 100 101" fill="none">
    <path opacity="1" fill-rule="evenodd" clip-rule="evenodd" d="M36.5235 69.6004C36.0695 69.7317 36.1105 70.172 36.131 67.8189L36.133 29.403L36.5235 29.5293C37.473 29.8104 40.1295 31.3638 41.19 31.9548L55.3295 39.4833C58.2755 41.1032 61.5655 42.8368 64.7395 44.515L74.1465 49.5512L36.5235 69.6004ZM100 48.4575V52.2542C99.742 59.0359 98.107 65.6879 95.2485 71.8472C93.475 75.6674 91.708 78.0904 89.314 81.3265C88.8135 82.0029 88.435 82.4122 87.9195 83.0546C86.689 84.5896 83.124 87.9146 81.6685 89.0976C67.4895 100.626 46.655 103.98 29.556 96.0257C21.421 92.2414 20.522 90.7279 14.8995 86.0896C14.2245 85.5325 14.0455 85.0543 13.4315 84.4354C10.7885 81.7693 8.728 78.8746 6.797 75.6544C6.0505 74.4095 5.277 73.0318 4.69 71.7134C1.2395 63.9668 0 58.8128 0 49.0974C0 41.5459 2.3205 34.3154 4.7515 29.0771C6.525 25.2569 8.292 22.8339 10.686 19.5978C12.552 17.0755 15.9355 13.7744 18.3315 11.8267C32.5105 0.298276 53.345 -3.05617 70.444 4.89865C78.579 8.68288 79.478 10.1964 85.1005 14.8347C85.7755 15.3918 85.9545 15.87 86.5685 16.4889C89.815 19.764 93.4395 24.9744 95.31 29.2398C96.472 31.8889 97.664 34.7352 98.5465 38.2624C99.3925 41.6463 99.8705 45.0596 100 48.4575Z" fill="white" fill-opacity="0.5"/>
</svg>