<?xml version="1.0" encoding="UTF-8"?>
<!DOCTYPE svg PUBLIC "-//W3C//DTD SVG 1.1//EN" "http://www.w3.org/Graphics/SVG/1.1/DTD/svg11.dtd">
<!-- Creator: CorelDRAW 2021 (64-Bit) -->
<svg xmlns="http://www.w3.org/2000/svg" xml:space="preserve" width="208.721mm" height="48.1536mm" version="1.1" style="shape-rendering:geometricPrecision; text-rendering:geometricPrecision; image-rendering:optimizeQuality; fill-rule:evenodd; clip-rule:evenodd"
viewBox="0 0 2399.61 553.61"
 xmlns:xlink="http://www.w3.org/1999/xlink"
 xmlns:xodm="http://www.corel.com/coreldraw/odm/2003">
 <defs>
  <style type="text/css">
   <![CDATA[
    .fil1 {fill:#52A823}
    .fil0 {fill:#FEFEFE;fill-rule:nonzero}
   ]]>
  </style>
 </defs>
 <g id="Слой_x0020_1">
  <metadata id="CorelCorpID_0Corel-Layer"/>
  <path class="fil0" d="M713.97 117.52c23.47,0 44.47,3.69 63.02,11.07 18.55,7.38 34.35,18.07 47.41,32.08 13.06,14 23.09,30.56 30.09,49.68 7,19.11 10.5,40.21 10.5,63.3 0,29.14 -5.96,54.79 -17.88,76.93 -11.92,22.14 -28.39,39.36 -49.39,51.66 -21.01,12.3 -45.33,18.45 -72.96,18.45 -13.63,0 -26.5,-2.08 -38.61,-6.25 -12.11,-4.16 -23.09,-10.03 -32.93,-17.6 -9.84,-7.57 -17.79,-16.46 -23.85,-26.68l-0.57 0 0 168.62 -65.29 0 0 -266.27c0,-32.17 6.34,-59.8 19.02,-82.89 12.68,-23.09 30.37,-40.88 53.08,-53.37 22.71,-12.49 48.83,-18.74 78.35,-18.74zm0 55.64c-16.27,0 -30.85,4.07 -43.72,12.21 -12.87,8.14 -22.9,19.4 -30.09,33.78 -7.19,14.38 -10.79,31.04 -10.79,49.96 0,18.55 3.6,35.11 10.79,49.68 7.19,14.57 17.22,25.93 30.09,34.06 12.87,8.14 27.63,12.21 44.28,12.21 16.65,0 31.32,-4.16 44,-12.49 12.68,-8.33 22.62,-19.68 29.81,-34.06 7.19,-14.38 10.79,-30.85 10.79,-49.39 0,-18.92 -3.6,-35.58 -10.79,-49.96 -7.19,-14.38 -17.22,-25.64 -30.09,-33.78 -12.87,-8.14 -27.63,-12.21 -44.28,-12.21z"/>
  <path id="_1" class="fil0" d="M924.6 413.89l0 -207.23c0,-25.74 7.29,-45.89 21.86,-60.47 14.57,-14.57 34.73,-21.86 60.46,-21.86l69.83 0 0 55.64 -57.91 0c-9.08,0 -16.18,2.65 -21.29,7.95 -5.11,5.3 -7.66,12.49 -7.66,21.57l0 204.39 -65.29 0z"/>
  <path id="_2" class="fil0" d="M1122.18 413.89l0 -289.55 65.29 0 0 289.55 -65.29 0zm32.36 -329.86c-11.36,0 -21.2,-4.16 -29.52,-12.49 -8.33,-8.33 -12.49,-18.17 -12.49,-29.52 0,-11.36 4.16,-21.2 12.49,-29.52 8.33,-8.33 18.17,-12.49 29.52,-12.49 11.73,0 21.67,4.16 29.81,12.49 8.14,8.33 12.21,18.17 12.21,29.52 0,11.35 -4.07,21.2 -12.21,29.52 -8.14,8.33 -18.07,12.49 -29.81,12.49z"/>
  <path id="_3" class="fil0" d="M1368.01 420.7c-18.92,0 -36.15,-3.69 -51.67,-11.07 -15.52,-7.38 -27.82,-18.74 -36.9,-34.06 -9.08,-15.33 -13.63,-34.92 -13.63,-58.76l0 -192.47 65.29 0 0 202.68c0,7.57 1.7,14.29 5.11,20.16 3.41,5.87 7.85,10.31 13.34,13.34 5.49,3.03 11.64,4.54 18.45,4.54 6.43,0 12.49,-1.51 18.17,-4.54 5.68,-3.03 10.22,-7.48 13.63,-13.34 3.41,-5.87 5.11,-12.59 5.11,-20.16l0 -106.74c0,-22.33 4.26,-41.16 12.77,-56.49 8.52,-15.33 20.44,-26.87 35.77,-34.63 15.33,-7.76 32.83,-11.64 52.52,-11.64 20.06,0 37.66,3.88 52.8,11.64 15.14,7.76 27.06,19.3 35.77,34.63 8.71,15.33 13.06,34.16 13.06,56.49l0 106.74c0,7.57 1.7,14.29 5.11,20.16 3.41,5.87 7.95,10.31 13.63,13.34 5.68,3.03 11.92,4.54 18.74,4.54 6.43,0 12.4,-1.51 17.88,-4.54 5.49,-3.03 9.94,-7.48 13.34,-13.34 3.41,-5.87 5.11,-12.59 5.11,-20.16l0 -202.68 65.29 0 0 192.47c0,23.85 -4.54,43.43 -13.63,58.76 -9.08,15.33 -21.39,26.68 -36.9,34.06 -15.52,7.38 -32.55,11.07 -51.1,11.07 -18.55,0 -35.58,-3.69 -51.1,-11.07 -15.52,-7.38 -28.01,-18.74 -37.47,-34.06 -9.46,-15.33 -14.19,-34.92 -14.19,-58.76l0 -105.6c0,-8.33 -1.61,-15.23 -4.83,-20.72 -3.22,-5.49 -7.57,-9.75 -13.06,-12.77 -5.49,-3.03 -11.64,-4.54 -18.45,-4.54 -6.06,0 -11.92,1.51 -17.6,4.54 -5.68,3.03 -10.22,7.29 -13.63,12.77 -3.41,5.49 -5.11,12.4 -5.11,20.72l0 105.6c0,23.85 -4.64,43.43 -13.91,58.76 -9.27,15.33 -21.57,26.68 -36.9,34.06 -15.33,7.38 -32.27,11.07 -50.81,11.07z"/>
  <path id="_4" class="fil0" d="M1963.01 421.27c-29.9,-0.38 -56.4,-7.29 -79.48,-20.72 -23.09,-13.44 -41.35,-31.6 -54.79,-54.5 -13.44,-22.9 -20.15,-48.54 -20.15,-76.93 0,-28.39 6.72,-54.03 20.15,-76.93 13.44,-22.9 31.7,-41.07 54.79,-54.5 23.09,-13.44 49.58,-20.34 79.48,-20.72 29.52,0.38 55.83,7.29 78.92,20.72 23.09,13.44 41.35,31.51 54.79,54.22 13.44,22.71 20.15,48.45 20.15,77.21 0,28.39 -6.72,54.03 -20.15,76.93 -13.44,22.9 -31.7,41.07 -54.79,54.5 -23.09,13.44 -49.39,20.34 -78.92,20.72zm0 -56.21c17.79,0 33.31,-4.26 46.56,-12.77 13.25,-8.52 23.47,-19.97 30.66,-34.35 7.19,-14.38 10.79,-30.66 10.79,-48.83 0,-17.79 -3.6,-33.97 -10.79,-48.54 -7.19,-14.57 -17.41,-26.12 -30.66,-34.63 -13.25,-8.52 -28.77,-12.78 -46.56,-12.78 -18.17,0 -33.78,4.26 -46.84,12.78 -13.06,8.52 -23.28,19.97 -30.66,34.35 -7.38,14.38 -11.07,30.66 -11.07,48.83 0,17.79 3.69,33.97 11.07,48.54 7.38,14.57 17.6,26.12 30.66,34.63 13.06,8.52 28.67,12.77 46.84,12.77z"/>
  <path id="_5" class="fil0" d="M2225.88 413.89c-12.49,0 -23.66,-3.03 -33.5,-9.08 -9.84,-6.06 -17.7,-14.19 -23.56,-24.41 -5.87,-10.22 -8.8,-21.39 -8.8,-33.5 0,-12.11 3.03,-23.09 9.08,-32.93 6.06,-9.84 14.38,-18.36 24.98,-25.55l126.04 -82.32c3.78,-1.89 6.15,-3.97 7.1,-6.25 0.95,-2.27 1.42,-4.54 1.42,-6.81 0,-3.41 -1.23,-6.43 -3.69,-9.08 -2.46,-2.65 -5.77,-3.97 -9.94,-3.97l-140.8 0 0 -55.64 160.1 0c12.49,0 23.56,3.03 33.21,9.08 9.65,6.06 17.41,14.19 23.28,24.41 5.87,10.22 8.8,21.39 8.8,33.5 0,12.11 -3.03,23.09 -9.08,32.93 -6.06,9.84 -14.38,18.36 -24.98,25.55l-125.47 82.32c-3.41,1.89 -5.77,3.97 -7.1,6.25 -1.33,2.27 -1.99,4.54 -1.99,6.81 0,3.41 1.33,6.43 3.97,9.08 2.65,2.65 6.06,3.97 10.22,3.97l148.75 0 0 55.64 -168.05 0z"/>
  <path class="fil0" d="M931.82 534.82l0 -7.92 18.79 0c3.62,0 6.43,-1.03 8.43,-3.09 2,-2.06 2.99,-4.81 2.99,-8.24 0,-3.5 -0.98,-6.25 -2.95,-8.24 -1.97,-2 -4.79,-2.99 -8.48,-2.99l-18.79 0 0 -5.9 17.5 0c4.3,0 8.09,0.52 11.38,1.57 3.28,1.04 5.86,2.78 7.74,5.2 1.87,2.43 2.81,5.73 2.81,9.9l0 1.29c0,3.93 -0.8,7.26 -2.4,9.99 -1.6,2.73 -4.02,4.82 -7.28,6.26 -3.25,1.44 -7.34,2.16 -12.25,2.16l-17.5 0zm-7.18 0l0 -67.98 9.03 0 0 67.98 -9.03 0zm7.18 -32.15l0 -5.9 16.3 0c3.81,0 6.62,-1.03 8.43,-3.09 1.81,-2.06 2.72,-4.68 2.72,-7.88 0,-3.25 -0.91,-5.91 -2.72,-7.97 -1.81,-2.06 -4.62,-3.09 -8.43,-3.09l-16.3 0 0 -7.92 14.74 0c7.37,0 12.86,1.55 16.49,4.65 3.62,3.1 5.43,7.57 5.43,13.4l0 1.29c0,4.11 -0.92,7.38 -2.76,9.81 -1.84,2.43 -4.41,4.15 -7.69,5.16 -3.29,1.01 -7.11,1.52 -11.47,1.52l-14.74 0z"/>
  <path id="_1_0" class="fil0" d="M1003.03 535.92c-5.83,0 -10.32,-1.9 -13.45,-5.71 -3.13,-3.81 -4.7,-9.3 -4.7,-16.49l0 -28.56 8.84 0 0 30.31c0,3.87 1.05,6.89 3.13,9.07 2.09,2.18 4.91,3.27 8.47,3.27 3.68,0 6.69,-1.18 9.03,-3.55 2.33,-2.36 3.5,-5.6 3.5,-9.72l0 -29.38 8.84 0 0 49.28 -7 0 0 -21.09 1.1 0c0,4.85 -0.64,8.95 -1.93,12.3 -1.29,3.35 -3.21,5.9 -5.76,7.65 -2.55,1.75 -5.79,2.63 -9.72,2.63l-0.37 0z"/>
  <path id="_2_1" class="fil0" d="M1059.95 535.92c-6.45,0 -11.44,-1.38 -14.97,-4.15 -3.53,-2.76 -5.36,-6.54 -5.48,-11.33l8.29 0c0.12,1.9 1.09,3.7 2.9,5.39 1.81,1.69 4.9,2.53 9.26,2.53 3.93,0 6.94,-0.78 9.03,-2.35 2.09,-1.57 3.13,-3.48 3.13,-5.76 0,-2.03 -0.77,-3.61 -2.3,-4.74 -1.54,-1.14 -4.02,-1.89 -7.46,-2.26l-5.34 -0.55c-4.67,-0.49 -8.48,-1.89 -11.42,-4.19 -2.95,-2.3 -4.42,-5.54 -4.42,-9.72 0,-3.13 0.8,-5.82 2.39,-8.06 1.6,-2.24 3.81,-3.96 6.63,-5.16 2.82,-1.2 6.08,-1.8 9.76,-1.8 5.53,0 10.01,1.23 13.45,3.68 3.44,2.46 5.22,6.11 5.34,10.96l-8.29 0c-0.06,-1.96 -0.97,-3.64 -2.72,-5.02 -1.75,-1.38 -4.34,-2.07 -7.78,-2.07 -3.44,0 -6.05,0.71 -7.83,2.12 -1.78,1.41 -2.67,3.19 -2.67,5.34 0,1.84 0.63,3.32 1.89,4.42 1.26,1.1 3.33,1.81 6.22,2.12l5.34 0.55c5.28,0.55 9.52,2.01 12.71,4.38 3.19,2.36 4.79,5.7 4.79,9.99 0,3.07 -0.88,5.79 -2.63,8.15 -1.75,2.36 -4.16,4.21 -7.23,5.53 -3.07,1.32 -6.6,1.98 -10.59,1.98z"/>
  <path id="_3_2" class="fil0" d="M1095.6 534.45l0 -49.19 8.84 0 0 49.19 -8.84 0zm-7.55 -42.19l0 -7 16.4 0 0 7 -16.4 0zm10.04 -14.92c-1.97,0 -3.42,-0.52 -4.38,-1.57 -0.95,-1.04 -1.43,-2.36 -1.43,-3.96 0,-1.6 0.48,-2.92 1.43,-3.96 0.95,-1.04 2.41,-1.57 4.38,-1.57 1.96,0 3.42,0.52 4.37,1.57 0.95,1.04 1.43,2.36 1.43,3.96 0,1.6 -0.48,2.92 -1.43,3.96 -0.95,1.04 -2.41,1.57 -4.37,1.57z"/>
  <path id="_4_3" class="fil0" d="M1121.58 534.45l0 -49.19 7 0 0 21.09 -1.1 0c0,-4.85 0.66,-8.95 1.98,-12.3 1.32,-3.35 3.33,-5.9 6.03,-7.65 2.7,-1.75 6.11,-2.62 10.22,-2.62l0.37 0c6.2,0 10.79,1.93 13.77,5.8 2.98,3.87 4.47,9.46 4.47,16.76l0 28.09 -8.84 0 0 -29.94c0,-3.81 -1.07,-6.86 -3.22,-9.17 -2.15,-2.3 -5.1,-3.45 -8.84,-3.45 -3.87,0 -7,1.2 -9.4,3.59 -2.39,2.4 -3.59,5.59 -3.59,9.58l0 29.38 -8.84 0z"/>
  <path id="_5_4" class="fil0" d="M1201.44 536.11c-4.3,0 -8.01,-0.74 -11.15,-2.21 -3.13,-1.47 -5.68,-3.42 -7.65,-5.85 -1.96,-2.43 -3.42,-5.14 -4.38,-8.15 -0.95,-3.01 -1.43,-6.08 -1.43,-9.21l0 -1.66c0,-3.19 0.48,-6.29 1.43,-9.3 0.95,-3.01 2.41,-5.73 4.38,-8.15 1.96,-2.43 4.47,-4.36 7.51,-5.8 3.04,-1.44 6.62,-2.16 10.73,-2.16 5.34,0 9.75,1.15 13.22,3.45 3.47,2.3 6.05,5.27 7.74,8.89 1.69,3.62 2.53,7.49 2.53,11.61l0 3.96 -43.66 0 0 -6.63 37.21 0 -2.03 3.59c0,-3.5 -0.55,-6.53 -1.66,-9.07 -1.11,-2.55 -2.76,-4.53 -4.97,-5.94 -2.21,-1.41 -5,-2.12 -8.38,-2.12 -3.5,0 -6.4,0.8 -8.7,2.39 -2.3,1.6 -4.02,3.78 -5.16,6.54 -1.14,2.76 -1.7,5.96 -1.7,9.58 0,3.5 0.57,6.65 1.7,9.44 1.14,2.79 2.9,5 5.3,6.63 2.39,1.63 5.43,2.44 9.12,2.44 3.87,0 7.02,-0.86 9.44,-2.58 2.43,-1.72 3.88,-3.72 4.38,-5.99l8.29 0c-0.67,3.38 -2.03,6.29 -4.05,8.75 -2.03,2.46 -4.58,4.33 -7.65,5.62 -3.07,1.29 -6.54,1.93 -10.41,1.93z"/>
  <path id="_6" class="fil0" d="M1253.03 535.92c-6.45,0 -11.44,-1.38 -14.97,-4.15 -3.53,-2.76 -5.36,-6.54 -5.48,-11.33l8.29 0c0.12,1.9 1.09,3.7 2.9,5.39 1.81,1.69 4.9,2.53 9.26,2.53 3.93,0 6.94,-0.78 9.03,-2.35 2.09,-1.57 3.13,-3.48 3.13,-5.76 0,-2.03 -0.77,-3.61 -2.3,-4.74 -1.54,-1.14 -4.02,-1.89 -7.46,-2.26l-5.34 -0.55c-4.67,-0.49 -8.48,-1.89 -11.42,-4.19 -2.95,-2.3 -4.42,-5.54 -4.42,-9.72 0,-3.13 0.8,-5.82 2.39,-8.06 1.6,-2.24 3.81,-3.96 6.63,-5.16 2.82,-1.2 6.08,-1.8 9.76,-1.8 5.53,0 10.01,1.23 13.45,3.68 3.44,2.46 5.22,6.11 5.34,10.96l-8.29 0c-0.06,-1.96 -0.97,-3.64 -2.72,-5.02 -1.75,-1.38 -4.34,-2.07 -7.78,-2.07 -3.44,0 -6.05,0.71 -7.83,2.12 -1.78,1.41 -2.67,3.19 -2.67,5.34 0,1.84 0.63,3.32 1.89,4.42 1.26,1.1 3.33,1.81 6.22,2.12l5.34 0.55c5.28,0.55 9.52,2.01 12.71,4.38 3.19,2.36 4.79,5.7 4.79,9.99 0,3.07 -0.88,5.79 -2.63,8.15 -1.75,2.36 -4.16,4.21 -7.23,5.53 -3.07,1.32 -6.6,1.98 -10.59,1.98z"/>
  <path id="_7" class="fil0" d="M1302.4 535.92c-6.45,0 -11.44,-1.38 -14.97,-4.15 -3.53,-2.76 -5.36,-6.54 -5.48,-11.33l8.29 0c0.12,1.9 1.09,3.7 2.9,5.39 1.81,1.69 4.9,2.53 9.26,2.53 3.93,0 6.94,-0.78 9.03,-2.35 2.09,-1.57 3.13,-3.48 3.13,-5.76 0,-2.03 -0.77,-3.61 -2.3,-4.74 -1.54,-1.14 -4.02,-1.89 -7.46,-2.26l-5.34 -0.55c-4.67,-0.49 -8.48,-1.89 -11.42,-4.19 -2.95,-2.3 -4.42,-5.54 -4.42,-9.72 0,-3.13 0.8,-5.82 2.39,-8.06 1.6,-2.24 3.81,-3.96 6.63,-5.16 2.82,-1.2 6.08,-1.8 9.76,-1.8 5.53,0 10.01,1.23 13.45,3.68 3.44,2.46 5.22,6.11 5.34,10.96l-8.29 0c-0.06,-1.96 -0.97,-3.64 -2.72,-5.02 -1.75,-1.38 -4.34,-2.07 -7.78,-2.07 -3.44,0 -6.05,0.71 -7.83,2.12 -1.78,1.41 -2.67,3.19 -2.67,5.34 0,1.84 0.63,3.32 1.89,4.42 1.26,1.1 3.33,1.81 6.22,2.12l5.34 0.55c5.28,0.55 9.52,2.01 12.71,4.38 3.19,2.36 4.79,5.7 4.79,9.99 0,3.07 -0.88,5.79 -2.63,8.15 -1.75,2.36 -4.16,4.21 -7.23,5.53 -3.07,1.32 -6.6,1.98 -10.59,1.98z"/>
  <path id="_8" class="fil0" d="M1387.14 536.11c-6.14,0 -11.38,-1.07 -15.71,-3.22 -4.33,-2.15 -7.81,-4.94 -10.46,-8.38 -2.64,-3.44 -4.57,-7.17 -5.8,-11.19 -1.23,-4.02 -1.84,-7.91 -1.84,-11.65l0 -2.03c0,-4.05 0.63,-8.11 1.89,-12.16 1.26,-4.05 3.21,-7.74 5.85,-11.05 2.64,-3.32 6.08,-5.99 10.32,-8.01 4.24,-2.03 9.3,-3.04 15.2,-3.04 6.02,0 11.18,1.04 15.47,3.13 4.3,2.09 7.71,5 10.23,8.75 2.52,3.75 4.05,8.17 4.61,13.26l-9.21 0c-0.49,-3.81 -1.72,-6.95 -3.68,-9.44 -1.96,-2.49 -4.44,-4.34 -7.42,-5.57 -2.98,-1.23 -6.31,-1.84 -9.99,-1.84 -3.99,0 -7.49,0.69 -10.5,2.07 -3.01,1.38 -5.51,3.32 -7.51,5.8 -2,2.49 -3.5,5.36 -4.51,8.61 -1.01,3.25 -1.52,6.79 -1.52,10.59 0,3.62 0.51,7.06 1.52,10.32 1.01,3.25 2.55,6.14 4.61,8.66 2.06,2.52 4.62,4.5 7.69,5.94 3.07,1.44 6.66,2.16 10.78,2.16 5.77,0 10.62,-1.44 14.55,-4.33 3.93,-2.89 6.33,-7.06 7.18,-12.53l9.21 0c-0.62,4.61 -2.16,8.81 -4.65,12.62 -2.49,3.81 -5.93,6.85 -10.32,9.12 -4.39,2.27 -9.72,3.41 -15.98,3.41z"/>
  <path id="_9" class="fil0" d="M1452.54 536.11c-4.3,0 -8.08,-0.74 -11.33,-2.21 -3.25,-1.47 -6,-3.42 -8.24,-5.85 -2.24,-2.43 -3.93,-5.14 -5.07,-8.15 -1.14,-3.01 -1.7,-6.08 -1.7,-9.21l0 -1.66c0,-3.13 0.58,-6.22 1.75,-9.26 1.17,-3.04 2.89,-5.77 5.16,-8.2 2.27,-2.43 5.04,-4.36 8.29,-5.8 3.25,-1.44 6.97,-2.16 11.15,-2.16 4.18,0 7.89,0.72 11.15,2.16 3.25,1.44 6.02,3.38 8.29,5.8 2.27,2.43 3.99,5.16 5.16,8.2 1.17,3.04 1.75,6.13 1.75,9.26l0 1.66c0,3.13 -0.57,6.2 -1.7,9.21 -1.14,3.01 -2.82,5.73 -5.07,8.15 -2.24,2.42 -4.99,4.37 -8.24,5.85 -3.25,1.47 -7.03,2.21 -11.33,2.21zm0 -7.92c3.68,0 6.83,-0.81 9.44,-2.44 2.61,-1.63 4.61,-3.82 5.99,-6.59 1.38,-2.76 2.07,-5.86 2.07,-9.3 0,-3.5 -0.71,-6.63 -2.12,-9.4 -1.41,-2.76 -3.42,-4.94 -6.03,-6.54 -2.61,-1.6 -5.73,-2.39 -9.35,-2.39 -3.56,0 -6.66,0.8 -9.3,2.39 -2.64,1.6 -4.67,3.78 -6.08,6.54 -1.41,2.76 -2.12,5.9 -2.12,9.4 0,3.44 0.69,6.54 2.07,9.3 1.38,2.76 3.38,4.96 5.99,6.59 2.61,1.63 5.76,2.44 9.44,2.44z"/>
  <path id="_10" class="fil0" d="M1492.15 534.45l0 -49.19 7 0 0 21.09 -1.1 0c0,-4.79 0.63,-8.86 1.89,-12.2 1.26,-3.35 3.15,-5.91 5.66,-7.69 2.52,-1.78 5.71,-2.67 9.58,-2.67l0.37 0c3.87,0 7.08,0.89 9.63,2.67 2.55,1.78 4.44,4.35 5.66,7.69 1.23,3.35 1.84,7.41 1.84,12.2l-2.58 0c0,-4.79 0.64,-8.86 1.93,-12.2 1.29,-3.35 3.21,-5.91 5.76,-7.69 2.55,-1.78 5.76,-2.67 9.63,-2.67l0.37 0c3.87,0 7.09,0.89 9.67,2.67 2.58,1.78 4.5,4.35 5.76,7.69 1.26,3.35 1.89,7.41 1.89,12.2l0 28.09 -8.84 0 0 -30.03c0,-3.99 -0.98,-7.08 -2.95,-9.26 -1.96,-2.18 -4.7,-3.27 -8.2,-3.27 -3.62,0 -6.54,1.15 -8.75,3.45 -2.21,2.3 -3.32,5.51 -3.32,9.63l0 29.48 -8.84 0 0 -30.03c0,-3.99 -0.98,-7.08 -2.95,-9.26 -1.96,-2.18 -4.7,-3.27 -8.2,-3.27 -3.62,0 -6.54,1.15 -8.75,3.45 -2.21,2.3 -3.32,5.51 -3.32,9.63l0 29.48 -8.84 0z"/>
  <path id="_11" class="fil0" d="M1581.32 534.45l0 -49.19 7 0 0 21.09 -1.1 0c0,-4.79 0.63,-8.86 1.89,-12.2 1.26,-3.35 3.15,-5.91 5.66,-7.69 2.52,-1.78 5.71,-2.67 9.58,-2.67l0.37 0c3.87,0 7.08,0.89 9.63,2.67 2.55,1.78 4.44,4.35 5.66,7.69 1.23,3.35 1.84,7.41 1.84,12.2l-2.58 0c0,-4.79 0.64,-8.86 1.93,-12.2 1.29,-3.35 3.21,-5.91 5.76,-7.69 2.55,-1.78 5.76,-2.67 9.63,-2.67l0.37 0c3.87,0 7.09,0.89 9.67,2.67 2.58,1.78 4.5,4.35 5.76,7.69 1.26,3.35 1.89,7.41 1.89,12.2l0 28.09 -8.84 0 0 -30.03c0,-3.99 -0.98,-7.08 -2.95,-9.26 -1.96,-2.18 -4.7,-3.27 -8.2,-3.27 -3.62,0 -6.54,1.15 -8.75,3.45 -2.21,2.3 -3.32,5.51 -3.32,9.63l0 29.48 -8.84 0 0 -30.03c0,-3.99 -0.98,-7.08 -2.95,-9.26 -1.96,-2.18 -4.7,-3.27 -8.2,-3.27 -3.62,0 -6.54,1.15 -8.75,3.45 -2.21,2.3 -3.32,5.51 -3.32,9.63l0 29.48 -8.84 0z"/>
  <path id="_12" class="fil0" d="M1687.52 535.92c-5.83,0 -10.32,-1.9 -13.45,-5.71 -3.13,-3.81 -4.7,-9.3 -4.7,-16.49l0 -28.56 8.84 0 0 30.31c0,3.87 1.05,6.89 3.13,9.07 2.09,2.18 4.91,3.27 8.47,3.27 3.68,0 6.69,-1.18 9.03,-3.55 2.33,-2.36 3.5,-5.6 3.5,-9.72l0 -29.38 8.84 0 0 49.28 -7 0 0 -21.09 1.1 0c0,4.85 -0.64,8.95 -1.93,12.3 -1.29,3.35 -3.21,5.9 -5.76,7.65 -2.55,1.75 -5.79,2.63 -9.72,2.63l-0.37 0z"/>
  <path id="_13" class="fil0" d="M1728.33 534.45l0 -49.19 7 0 0 21.09 -1.1 0c0,-4.85 0.66,-8.95 1.98,-12.3 1.32,-3.35 3.33,-5.9 6.03,-7.65 2.7,-1.75 6.11,-2.62 10.22,-2.62l0.37 0c6.2,0 10.79,1.93 13.77,5.8 2.98,3.87 4.47,9.46 4.47,16.76l0 28.09 -8.84 0 0 -29.94c0,-3.81 -1.07,-6.86 -3.22,-9.17 -2.15,-2.3 -5.1,-3.45 -8.84,-3.45 -3.87,0 -7,1.2 -9.4,3.59 -2.39,2.4 -3.59,5.59 -3.59,9.58l0 29.38 -8.84 0z"/>
  <path id="_14" class="fil0" d="M1789.68 534.45l0 -49.19 8.84 0 0 49.19 -8.84 0zm-7.55 -42.19l0 -7 16.4 0 0 7 -16.4 0zm10.04 -14.92c-1.97,0 -3.42,-0.52 -4.38,-1.57 -0.95,-1.04 -1.43,-2.36 -1.43,-3.96 0,-1.6 0.48,-2.92 1.43,-3.96 0.95,-1.04 2.41,-1.57 4.38,-1.57 1.96,0 3.42,0.52 4.37,1.57 0.95,1.04 1.43,2.36 1.43,3.96 0,1.6 -0.48,2.92 -1.43,3.96 -0.95,1.04 -2.41,1.57 -4.37,1.57z"/>
  <path id="_15" class="fil0" d="M1834.82 535c-3.68,0 -6.86,-0.52 -9.53,-1.57 -2.67,-1.04 -4.73,-2.84 -6.17,-5.39 -1.44,-2.55 -2.16,-6 -2.16,-10.36l0 -47.35 8.47 0 0 48.45c0,2.64 0.72,4.68 2.16,6.13 1.44,1.44 3.48,2.16 6.13,2.16l8.66 0 0 7.92 -7.55 0zm-26.34 -43.11l0 -6.63 33.9 0 0 6.63 -33.9 0z"/>
  <path id="_16" class="fil0" d="M1851.58 553.61l0 -7.92 7.09 0c2.09,0 3.85,-0.26 5.3,-0.78 1.44,-0.52 2.64,-1.4 3.59,-2.63 0.95,-1.23 1.73,-2.85 2.35,-4.88l15.48 -52.14 8.66 0 -16.4 54.44c-0.98,3.25 -2.36,5.91 -4.14,7.97 -1.78,2.06 -3.95,3.56 -6.49,4.51 -2.55,0.95 -5.51,1.43 -8.89,1.43l-6.54 0zm15.01 -20.26l0 -7.37 10.69 0 0 7.37 -10.69 0zm-0.92 0l-17.59 -48.08 9.03 0 16.86 48.08 -8.29 0z"/>
  <path id="_17" class="fil0" d="M1928.68 534.45l0 -49.19 8.84 0 0 49.19 -8.84 0zm-7.55 -42.19l0 -7 16.4 0 0 7 -16.4 0zm10.04 -14.92c-1.97,0 -3.42,-0.52 -4.38,-1.57 -0.95,-1.04 -1.43,-2.36 -1.43,-3.96 0,-1.6 0.48,-2.92 1.43,-3.96 0.95,-1.04 2.41,-1.57 4.38,-1.57 1.96,0 3.42,0.52 4.37,1.57 0.95,1.04 1.43,2.36 1.43,3.96 0,1.6 -0.48,2.92 -1.43,3.96 -0.95,1.04 -2.41,1.57 -4.37,1.57z"/>
  <path id="_18" class="fil0" d="M1954.66 534.45l0 -49.19 7 0 0 21.09 -1.1 0c0,-4.85 0.66,-8.95 1.98,-12.3 1.32,-3.35 3.33,-5.9 6.03,-7.65 2.7,-1.75 6.11,-2.62 10.22,-2.62l0.37 0c6.2,0 10.79,1.93 13.77,5.8 2.98,3.87 4.47,9.46 4.47,16.76l0 28.09 -8.84 0 0 -29.94c0,-3.81 -1.07,-6.86 -3.22,-9.17 -2.15,-2.3 -5.1,-3.45 -8.84,-3.45 -3.87,0 -7,1.2 -9.4,3.59 -2.39,2.4 -3.59,5.59 -3.59,9.58l0 29.38 -8.84 0z"/>
  <path id="_19" class="fil0" d="M2043.08 534.82l0 -7.92 18.79 0c3.62,0 6.43,-1.03 8.43,-3.09 2,-2.06 2.99,-4.81 2.99,-8.24 0,-3.5 -0.98,-6.25 -2.95,-8.24 -1.97,-2 -4.79,-2.99 -8.48,-2.99l-18.79 0 0 -5.9 17.5 0c4.3,0 8.09,0.52 11.38,1.57 3.28,1.04 5.86,2.78 7.74,5.2 1.87,2.43 2.81,5.73 2.81,9.9l0 1.29c0,3.93 -0.8,7.26 -2.4,9.99 -1.6,2.73 -4.02,4.82 -7.28,6.26 -3.25,1.44 -7.34,2.16 -12.25,2.16l-17.5 0zm-7.18 0l0 -67.98 9.03 0 0 67.98 -9.03 0zm7.18 -32.15l0 -5.9 16.3 0c3.81,0 6.62,-1.03 8.43,-3.09 1.81,-2.06 2.72,-4.68 2.72,-7.88 0,-3.25 -0.91,-5.91 -2.72,-7.97 -1.81,-2.06 -4.62,-3.09 -8.43,-3.09l-16.3 0 0 -7.92 14.74 0c7.37,0 12.86,1.55 16.49,4.65 3.62,3.1 5.43,7.57 5.43,13.4l0 1.29c0,4.11 -0.92,7.38 -2.76,9.81 -1.84,2.43 -4.41,4.15 -7.69,5.16 -3.29,1.01 -7.11,1.52 -11.47,1.52l-14.74 0z"/>
  <path id="_20" class="fil0" d="M2114.29 535.92c-5.83,0 -10.32,-1.9 -13.45,-5.71 -3.13,-3.81 -4.7,-9.3 -4.7,-16.49l0 -28.56 8.84 0 0 30.31c0,3.87 1.05,6.89 3.13,9.07 2.09,2.18 4.91,3.27 8.47,3.27 3.68,0 6.69,-1.18 9.03,-3.55 2.33,-2.36 3.5,-5.6 3.5,-9.72l0 -29.38 8.84 0 0 49.28 -7 0 0 -21.09 1.1 0c0,4.85 -0.64,8.95 -1.93,12.3 -1.29,3.35 -3.21,5.9 -5.76,7.65 -2.55,1.75 -5.79,2.63 -9.72,2.63l-0.37 0z"/>
  <path id="_21" class="fil0" d="M2155.65 534.45l0 -67.24 8.84 0 0 67.24 -8.84 0zm-6.82 -60.24l0 -7 15.66 0 0 7 -15.66 0z"/>
  <path id="_22" class="fil0" d="M2200.05 553.61c-2.27,0 -4.56,-0.09 -6.86,-0.28 -2.3,-0.18 -4.5,-0.43 -6.59,-0.74l0 -7.46c2.21,0.31 4.53,0.57 6.95,0.78 2.43,0.21 4.71,0.32 6.86,0.32 4.48,0 8.06,-0.6 10.73,-1.8 2.67,-1.2 4.61,-3.07 5.8,-5.62 1.2,-2.55 1.8,-5.82 1.8,-9.81l0 -9.4 2.95 -7c-0.19,4.97 -1.23,9.1 -3.13,12.39 -1.9,3.29 -4.37,5.74 -7.41,7.37 -3.04,1.63 -6.4,2.44 -10.09,2.44 -3.44,0 -6.59,-0.66 -9.44,-1.98 -2.86,-1.32 -5.31,-3.15 -7.37,-5.48 -2.06,-2.33 -3.65,-5.02 -4.79,-8.06 -1.14,-3.04 -1.7,-6.25 -1.7,-9.63l0 -1.66c0,-3.44 0.58,-6.65 1.75,-9.63 1.17,-2.98 2.79,-5.57 4.88,-7.78 2.09,-2.21 4.59,-3.93 7.51,-5.16 2.92,-1.23 6.13,-1.84 9.63,-1.84 4.11,0 7.74,0.87 10.87,2.62 3.13,1.75 5.6,4.3 7.42,7.65 1.81,3.35 2.81,7.45 2.99,12.3l-2.58 0.09 0 -21 7 0 0 43.39c0,5.9 -0.91,10.67 -2.72,14.32 -1.81,3.65 -4.7,6.34 -8.66,8.06 -3.96,1.72 -9.23,2.58 -15.8,2.58zm2.67 -26.9c2.95,0 5.63,-0.64 8.06,-1.93 2.43,-1.29 4.36,-3.15 5.8,-5.57 1.44,-2.43 2.16,-5.33 2.16,-8.71l0 -4.24c0,-3.32 -0.75,-6.11 -2.26,-8.38 -1.5,-2.27 -3.45,-3.99 -5.85,-5.16 -2.39,-1.17 -5,-1.75 -7.83,-1.75 -3.19,0 -6.02,0.74 -8.48,2.21 -2.46,1.47 -4.36,3.55 -5.71,6.22 -1.35,2.67 -2.03,5.82 -2.03,9.44 0,3.62 0.69,6.79 2.07,9.49 1.38,2.7 3.28,4.77 5.71,6.22 2.43,1.44 5.2,2.16 8.34,2.16z"/>
  <path id="_23" class="fil0" d="M2273.37 534.45l0 -14.74 -1.47 0 0 -17.04c0,-3.38 -0.87,-5.93 -2.63,-7.65 -1.75,-1.72 -4.31,-2.58 -7.69,-2.58 -1.9,0 -3.87,0.03 -5.9,0.09 -2.03,0.06 -3.96,0.12 -5.8,0.19 -1.84,0.06 -3.44,0.15 -4.79,0.28l0 -7.74c1.35,-0.12 2.78,-0.23 4.28,-0.32 1.5,-0.09 3.05,-0.15 4.65,-0.18 1.6,-0.03 3.13,-0.05 4.61,-0.05 5.04,0 9.15,0.6 12.34,1.8 3.19,1.2 5.56,3.15 7.09,5.85 1.53,2.7 2.3,6.36 2.3,10.96l0 31.13 -7 0zm-16.12 1.29c-3.68,0 -6.86,-0.63 -9.53,-1.89 -2.67,-1.26 -4.73,-3.09 -6.17,-5.48 -1.44,-2.39 -2.16,-5.28 -2.16,-8.66 0,-3.5 0.78,-6.42 2.35,-8.75 1.57,-2.33 3.85,-4.1 6.86,-5.3 3.01,-1.2 6.63,-1.8 10.87,-1.8l13.36 0 0 6.63 -13.72 0c-3.56,0 -6.29,0.86 -8.2,2.58 -1.9,1.72 -2.86,3.93 -2.86,6.63 0,2.7 0.95,4.88 2.86,6.54 1.9,1.66 4.64,2.49 8.2,2.49 2.09,0 4.08,-0.38 5.99,-1.15 1.9,-0.77 3.48,-2.06 4.74,-3.87 1.26,-1.81 1.95,-4.31 2.07,-7.51l2.39 3.5c-0.31,3.5 -1.15,6.43 -2.53,8.8 -1.38,2.36 -3.28,4.16 -5.71,5.39 -2.43,1.23 -5.36,1.84 -8.8,1.84z"/>
  <path id="_24" class="fil0" d="M2296.58 534.45l0 -49.19 7 0 0 20.27 -0.37 0c0,-7.19 1.58,-12.45 4.74,-15.8 3.16,-3.35 7.91,-5.02 14.23,-5.02l1.66 0 0 7.92 -3.13 0c-4.91,0 -8.69,1.3 -11.33,3.91 -2.64,2.61 -3.96,6.37 -3.96,11.28l0 26.62 -8.84 0z"/>
  <path id="_25" class="fil0" d="M2336.74 534.45l0 -49.19 8.84 0 0 49.19 -8.84 0zm-7.55 -42.19l0 -7 16.4 0 0 7 -16.4 0zm10.04 -14.92c-1.97,0 -3.42,-0.52 -4.38,-1.57 -0.95,-1.04 -1.43,-2.36 -1.43,-3.96 0,-1.6 0.48,-2.92 1.43,-3.96 0.95,-1.04 2.41,-1.57 4.38,-1.57 1.96,0 3.42,0.52 4.37,1.57 0.95,1.04 1.43,2.36 1.43,3.96 0,1.6 -0.48,2.92 -1.43,3.96 -0.95,1.04 -2.41,1.57 -4.37,1.57z"/>
  <path id="_26" class="fil0" d="M2392.47 534.45l0 -14.74 -1.47 0 0 -17.04c0,-3.38 -0.87,-5.93 -2.63,-7.65 -1.75,-1.72 -4.31,-2.58 -7.69,-2.58 -1.9,0 -3.87,0.03 -5.9,0.09 -2.03,0.06 -3.96,0.12 -5.8,0.19 -1.84,0.06 -3.44,0.15 -4.79,0.28l0 -7.74c1.35,-0.12 2.78,-0.23 4.28,-0.32 1.5,-0.09 3.05,-0.15 4.65,-0.18 1.6,-0.03 3.13,-0.05 4.61,-0.05 5.04,0 9.15,0.6 12.34,1.8 3.19,1.2 5.56,3.15 7.09,5.85 1.53,2.7 2.3,6.36 2.3,10.96l0 31.13 -7 0zm-16.12 1.29c-3.68,0 -6.86,-0.63 -9.53,-1.89 -2.67,-1.26 -4.73,-3.09 -6.17,-5.48 -1.44,-2.39 -2.16,-5.28 -2.16,-8.66 0,-3.5 0.78,-6.42 2.35,-8.75 1.57,-2.33 3.85,-4.1 6.86,-5.3 3.01,-1.2 6.63,-1.8 10.87,-1.8l13.36 0 0 6.63 -13.72 0c-3.56,0 -6.29,0.86 -8.2,2.58 -1.9,1.72 -2.86,3.93 -2.86,6.63 0,2.7 0.95,4.88 2.86,6.54 1.9,1.66 4.64,2.49 8.2,2.49 2.09,0 4.08,-0.38 5.99,-1.15 1.9,-0.77 3.48,-2.06 4.74,-3.87 1.26,-1.81 1.95,-4.31 2.07,-7.51l2.39 3.5c-0.31,3.5 -1.15,6.43 -2.53,8.8 -1.38,2.36 -3.28,4.16 -5.71,5.39 -2.43,1.23 -5.36,1.84 -8.8,1.84z"/>
  <g id="_2632299139440">
   <path class="fil1" d="M-0 237.77c0,45.09 14.2,86.86 38.37,121.08l-2.07 179.9 102.96 -103.12c15.14,5.42 31.09,9.15 47.62,10.97 0.04,0.01 0.08,0.01 0.12,0.02 7.59,0.83 15.3,1.25 23.11,1.25 2.8,0 5.58,-0.06 8.35,-0.16 93.9,-4.94 168.52,-82.64 168.52,-177.77 0,-98.32 -79.7,-178.02 -178.02,-178.02 -86.13,0 -157.97,61.16 -174.46,142.42 -1.51,-10 -2.3,-20.25 -2.3,-30.67 0,-49.67 17.79,-95.19 47.35,-130.53 -48.46,38.48 -79.55,97.93 -79.55,164.63zm96.72 32.18c0,-61.99 50.25,-112.23 112.23,-112.23 61.99,0 112.23,50.25 112.23,112.23 0,61.99 -50.25,112.23 -112.23,112.23 -61.99,0 -112.23,-50.25 -112.23,-112.23z"/>
   <path class="fil1" d="M148.51 269.95c0,33.39 27.06,60.45 60.45,60.45 33.39,0 60.45,-27.06 60.45,-60.45 0,-33.39 -27.06,-60.45 -60.45,-60.45 -33.39,0 -60.45,27.06 -60.45,60.45z"/>
  </g>
 </g>
</svg>
