<svg xmlns="http://www.w3.org/2000/svg" width="30" height="20" viewBox="0 0 30 20" fill="none">
    <path d="M11.3165 4.82824L10.5856 4.47307L10.598 5.28556L10.7541 15.5385L10.767 16.3856L11.5023 15.9649L21.1207 10.4621L21.9423 9.99209L21.091 9.5784L11.3165 4.82824ZM15.2178 19.5C11.4663 19.5 8.66557 19.4778 6.56276 19.2921C4.44795 19.1053 3.12609 18.7582 2.27348 18.1714C1.45649 17.6092 1.00524 16.7789 0.76287 15.4256C0.516324 14.049 0.5 12.2143 0.5 9.7158C0.5 7.32362 0.50807 5.58005 0.73952 4.27722C0.966306 3.00064 1.39341 2.23126 2.17804 1.71233C3.00323 1.16657 4.29326 0.848264 6.37512 0.680497C8.44359 0.513809 11.2054 0.5 14.9154 0.5C18.6256 0.5 21.3976 0.512846 23.4815 0.683088C25.5781 0.854357 26.8894 1.18051 27.736 1.74424C28.544 2.28236 28.9921 3.0825 29.2344 4.40379C29.4812 5.74992 29.4999 7.55389 29.4999 10.025C29.4999 10.1436 29.4999 10.2607 29.4999 10.3763C29.5004 12.6732 29.5008 14.3689 29.3026 15.6523C29.098 16.9776 28.6958 17.7624 27.9413 18.2862C27.1473 18.8375 25.8855 19.1579 23.8074 19.3247C21.7437 19.4903 18.9701 19.5 15.2178 19.5Z" stroke="#526172"/>
</svg>