<svg xmlns="http://www.w3.org/2000/svg" width="30" height="25" viewBox="0 0 30 25" fill="none">
    <path d="M17.5817 19.069L17.2726 18.8734L16.9925 19.1088L12.9222 22.5311L12.3114 22.6142L9.78596 13.8837L9.71267 13.6303L9.46214 13.5477L1.49131 10.921L28.7355 0.502077L29.4025 0.517048L25.1279 23.8447L17.5817 19.069ZM24.5385 4.1322L24.3685 4.11199L24.2218 4.20023L11.0947 12.0957L10.7827 12.2834L10.8655 12.6379L12.3772 19.1078L12.4902 19.5916L12.9747 19.4816L13.3889 19.3876L13.6686 19.3241L13.755 19.0507L15.2909 14.1915L25.6763 5.10819L26.5226 4.36802L25.4062 4.23533L24.5385 4.1322Z" stroke="#526172"/>
</svg>